{
copyright = "Copyright 2015 John Vargas Beltr\U00E1n and Pria Ravichandran (john.vargasbeltran@gmail.com, pria.ravichandran@gmail.com)";
customParameters = (
{
name = glyphOrder;
value = (
    ".notdef",
    B,
    C,
    D,
    E,
    V,
    I,
    O,
    P,
    S,
    N,
    space,
    F,
    G,
    H,
    U,
    M,
    L,
    "L_I",
    "L_A",
    R,
    T,
    "T_A",
    "T_E",
    "T_I",
    K,
    J,
    Q,
    W,
    X,
    Y,
    Z,
    o,
    a,
    b,
    c,
    d,
    e,
    f,
    g,
    h,
    i,
    l,
    j,
    k,
    n,
    m,
    p,
    q,
    r,
    s,
    t,
    u,
    v,
    w,
    x,
    y,
    z,
    acute,
    "a_peq",
    aacute,
    "e_peq",
    eacute,
    dotlessi,
    iacute,
    oacute,
    "o_peq",
    "u_peq",
    uacute,
    dotaccent,
    edotaccent,
    one,
    seven,
    A,
    six,
    zero,
    period,
    two,
    three,
    four,
    five,
    eight,
    nine,
    comma,
    grave,
    agrave,
    egrave,
    igrave,
    ograve,
    ugrave,
    breve,
    caron,
    circumflex,
    abreve,
    acircumflex,
    ccaron,
    ebreve,
    ecaron,
    ecircumflex,
    "c.peq",
    cacute,
    ccircumflex,
    cdotaccent,
    dieresis,
    macron,
    amacron,
    emacron,
    imacron,
    omacron,
    edieresis,
    adieresis,
    idieresis,
    icircumflex,
    ibreve,
    obreve,
    ocircumflex,
    odieresis,
    ubreve,
    ucircumflex,
    udieresis,
    umacron,
    Eacute,
    tilde,
    ring,
    aring,
    uring,
    atilde,
    itilde,
    otilde,
    utilde,
    cedilla,
    ccedilla,
    fi,
    ff,
    ffi,
    oe,
    "T_O",
    ogonek,
    eogonek,
    hungarumlaut,
    uhungarumlaut,
    uogonek,
    iogonek,
    Eogonek,
    Iogonek,
    Uogonek,
    hyphen,
    parenleft,
    parenright,
    endash,
    emdash,
    minus,
    "A.peq",
    Aacute,
    Abreve,
    Acircumflex,
    Agrave,
    Adieresis,
    Amacron,
    Aogonek,
    Aring,
    Atilde,
    AE,
    Cacute,
    "C.peq",
    Ccaron,
    Ccedilla,

glyphs = (
{
glyphname = B;
lastChange = "2016-04-14 15:38:08 +0000";
layers = (
{
layerId = "7A0FC40B-77F8-4D14-AD08-D047673E78CB";
name = Regular;
paths = (
{
closed = 1;
nodes = (
"26 478 OFFCURVE",
"26 421 OFFCURVE",
"26 362 CURVE SMOOTH",
"26 238 OFFCURVE",
"21 129 OFFCURVE",
"8 12 CURVE",
"78 0 OFFCURVE",
"223 -10 OFFCURVE",
"311 -10 CURVE SMOOTH",
"415 -10 OFFCURVE",
"516 -2 OFFCURVE",
"590 26 CURVE",
"640 66 OFFCURVE",
"668 122 OFFCURVE",
"668 187 CURVE SMOOTH",
"668 262 OFFCURVE",
"646 297 OFFCURVE",
"589 326 CURVE",
"614 351 OFFCURVE",
"626 391 OFFCURVE",
"626 422 CURVE SMOOTH",
"626 466 OFFCURVE",
"607 514 OFFCURVE",
"562 548 CURVE",
"506 564 OFFCURVE",
"427 570 OFFCURVE",
"336 570 CURVE SMOOTH",
"243 570 OFFCURVE",
"117 559 OFFCURVE",
"23 545 CURVE"
);
},
{
closed = 1;
nodes = (
"298 462 OFFCURVE",
"306 462 OFFCURVE",
"313 462 CURVE SMOOTH",
"338 462 OFFCURVE",
"359 452 OFFCURVE",
"359 406 CURVE SMOOTH",
"359 362 OFFCURVE",
"336 332 OFFCURVE",
"292 330 CURVE",
"290 360 OFFCURVE",
"290 405 OFFCURVE",
"290 459 CURVE"
);
},
{
closed = 1;
nodes = (
"294 232 OFFCURVE",
"308 234 OFFCURVE",
"320 234 CURVE SMOOTH",
"358 234 OFFCURVE",
"382 210 OFFCURVE",
"382 162 CURVE SMOOTH",
"382 102 OFFCURVE",
"357 78 OFFCURVE",
"288 78 CURVE",
"284 118 OFFCURVE",
"281 177 OFFCURVE",
"281 227 CURVE"
);
}
);
width = 680;
}
);
unicode = 0042;
},
{
glyphname = C;
lastChange = "2016-04-14 15:38:08 +0000";
layers = (
{
layerId = "7A0FC40B-77F8-4D14-AD08-D047673E78CB";
name = Regular;
paths = (
{
closed = 1;
nodes = (
"518 134 LINE",
"495 130 OFFCURVE",
"474 130 OFFCURVE",
"454 130 CURVE SMOOTH",
"412 130 OFFCURVE",
"378 133 OFFCURVE",
"350 138 CURVE",
"318 164 OFFCURVE",
"299 210 OFFCURVE",
"299 285 CURVE SMOOTH",
"299 344 OFFCURVE",
"314 386 OFFCURVE",
"338 410 CURVE",
"361 414 OFFCURVE",
"390 417 OFFCURVE",
"423 417 CURVE SMOOTH",
"452 417 OFFCURVE",
"483 411 OFFCURVE",
"514 403 CURVE",
"542 543 LINE",
"490 559 OFFCURVE",
"427 570 OFFCURVE",
"346 570 CURVE SMOOTH",
"251 570 OFFCURVE",
"182 561 OFFCURVE",
"112 542 CURVE",
"42 482 OFFCURVE",
"4 414 OFFCURVE",
"4 283 CURVE SMOOTH",
"4 158 OFFCURVE",
"37 91 OFFCURVE",
"102 28 CURVE",
"184 0 OFFCURVE",
"258 -10 OFFCURVE",
"370 -10 CURVE SMOOTH",
"414 -10 OFFCURVE",
"478 -3 OFFCURVE",
"529 5 CURVE"
);
}
);
width = 554;
}
);
unicode = 0043;
},
{
glyphname = D;
lastChange = "2016-04-14 15:38:08 +0000";
layers = (
{
layerId = "7A0FC40B-77F8-4D14-AD08-D047673E78CB";
name = Regular;
paths = (
{
closed = 1;
nodes = (
"370 213 OFFCURVE",
"364 159 OFFCURVE",
"354 124 CURVE",
"340 105 OFFCURVE",
"319 94 OFFCURVE",
"288 94 CURVE",
"284 223 OFFCURVE",
"281 310 OFFCURVE",
"278 443 CURVE",
"288 446 OFFCURVE",
"304 446 OFFCURVE",
"313 446 CURVE SMOOTH",
"329 446 OFFCURVE",
"343 442 OFFCURVE",
"354 430 CURVE",
"370 402 OFFCURVE",
"370 356 OFFCURVE",
"370 281 CURVE SMOOTH"
);
},
{
closed = 1;
nodes = (
"430 -10 OFFCURVE",
"533 10 OFFCURVE",
"600 51 CURVE",
"640 101 OFFCURVE",
"662 177 OFFCURVE",
"662 283 CURVE SMOOTH",
"662 398 OFFCURVE",
"635 477 OFFCURVE",
"587 524 CURVE",
"524 555 OFFCURVE",
"433 570 OFFCURVE",
"320 570 CURVE SMOOTH",
"232 570 OFFCURVE",
"112 559 OFFCURVE",
"23 545 CURVE",
"26 478 OFFCURVE",
"26 421 OFFCURVE",
"26 362 CURVE SMOOTH",
"26 238 OFFCURVE",
"21 129 OFFCURVE",
"8 12 CURVE",
"74 0 OFFCURVE",
"212 -10 OFFCURVE",
"295 -10 CURVE SMOOTH"
);
}
);
width = 682;
}
);
unicode = 0044;
},
{
glyphname = E;
lastChange = "2016-04-14 15:38:08 +0000";
layers = (
{
layerId = "7A0FC40B-77F8-4D14-AD08-D047673E78CB";
name = Regular;
paths = (
{
closed = 1;
nodes = (
"289 119 LINE",
"281 225 LINE",
"486 233 LINE",
"500 359 LINE",
"428 358 OFFCURVE",
"358 355 OFFCURVE",
"290 354 CURVE",
"290 435 LINE",
"377 435 OFFCURVE",
"456 434 OFFCURVE",
"534 431 CURVE",
"544 570 LINE",
"371 566 OFFCURVE",
"196 562 OFFCURVE",
"17 560 CURVE",
"17 371 OFFCURVE",
"14 181 OFFCURVE",
"8 -10 CURVE",
"189 -4 OFFCURVE",
"366 -1 OFFCURVE",
"543 1 CURVE",
"554 128 LINE"
);
}
);
width = 566;
}
);
unicode = 0045;
},
{
glyphname = V;
lastChange = "2016-04-14 15:38:08 +0000";
layers = (
{
layerId = "7A0FC40B-77F8-4D14-AD08-D047673E78CB";
name = Regular;
paths = (
{
closed = 1;
nodes = (
"212 565 OFFCURVE",
"106 562 OFFCURVE",
"4 560 CURVE",
"62 372 OFFCURVE",
"101 178 OFFCURVE",
"127 -10 CURVE",
"245 -2 OFFCURVE",
"414 2 OFFCURVE",
"541 2 CURVE",
"575 190 OFFCURVE",
"614 375 OFFCURVE",
"676 558 CURVE",
"466 568 LINE",
"442 430 OFFCURVE",
"415 296 OFFCURVE",
"387 165 CURVE",
"358 298 OFFCURVE",
"332 430 OFFCURVE",
"319 570 CURVE"
);
}
);
width = 680;
}
);
unicode = 0056;
},
{
glyphname = I;
lastChange = "2016-04-14 15:38:08 +0000";
layers = (
{
layerId = "7A0FC40B-77F8-4D14-AD08-D047673E78CB";
name = Regular;
paths = (
{
closed = 1;
nodes = (
"292 570 LINE",
"27 560 LINE",
"8 -10 LINE",
"301 1 LINE"
);
}
);
width = 309;
}
);
unicode = 0049;
},
{
glyphname = O;
lastChange = "2016-04-14 15:38:08 +0000";
layers = (
{
layerId = "7A0FC40B-77F8-4D14-AD08-D047673E78CB";
name = Regular;
paths = (
{
closed = 1;
nodes = (
"469 -10 OFFCURVE",
"565 10 OFFCURVE",
"628 50 CURVE",
"665 118 OFFCURVE",
"685 180 OFFCURVE",
"685 283 CURVE SMOOTH",
"685 390 OFFCURVE",
"665 449 OFFCURVE",
"629 515 CURVE",
"570 552 OFFCURVE",
"478 570 OFFCURVE",
"359 570 CURVE SMOOTH",
"235 570 OFFCURVE",
"139 553 OFFCURVE",
"76 518 CURVE",
"31 459 OFFCURVE",
"8 389 OFFCURVE",
"8 277 CURVE SMOOTH",
"8 156 OFFCURVE",
"36 83 OFFCURVE",
"89 26 CURVE",
"147 2 OFFCURVE",
"231 -10 OFFCURVE",
"334 -10 CURVE SMOOTH"
);
},
{
closed = 1;
nodes = (
"322 94 OFFCURVE",
"313 99 OFFCURVE",
"307 105 CURVE",
"301 135 OFFCURVE",
"298 193 OFFCURVE",
"298 271 CURVE SMOOTH",
"298 343 OFFCURVE",
"303 390 OFFCURVE",
"314 418 CURVE",
"323 426 OFFCURVE",
"335 430 OFFCURVE",
"352 430 CURVE SMOOTH",
"364 430 OFFCURVE",
"374 426 OFFCURVE",
"382 420 CURVE",
"389 394 OFFCURVE",
"394 348 OFFCURVE",
"394 281 CURVE SMOOTH",
"394 198 OFFCURVE",
"389 142 OFFCURVE",
"375 109 CURVE",
"366 99 OFFCURVE",
"354 94 OFFCURVE",
"335 94 CURVE SMOOTH"
);
}
);
width = 693;
}
);
leftKerningGroup = O;
rightKerningGroup = O;
unicode = 004F;
},
{
glyphname = P;
lastChange = "2016-04-14 15:38:08 +0000";
layers = (
{
layerId = "7A0FC40B-77F8-4D14-AD08-D047673E78CB";
name = Regular;
paths = (
{
closed = 1;
nodes = (
"362 306 OFFCURVE",
"357 276 OFFCURVE",
"348 256 CURVE",
"334 245 OFFCURVE",
"315 238 OFFCURVE",
"288 238 CURVE",
"283 310 OFFCURVE",
"282 367 OFFCURVE",
"278 443 CURVE",
"288 446 OFFCURVE",
"304 446 OFFCURVE",
"313 446 CURVE SMOOTH",
"329 446 OFFCURVE",
"342 443 OFFCURVE",
"353 435 CURVE",
"358 418 OFFCURVE",
"362 390 OFFCURVE",
"362 345 CURVE SMOOTH"
);
},
{
closed = 1;
nodes = (
"295 134 LINE",
"438 134 OFFCURVE",
"540 152 OFFCURVE",
"603 189 CURVE",
"635 226 OFFCURVE",
"654 278 OFFCURVE",
"654 347 CURVE SMOOTH",
"654 427 OFFCURVE",
"634 485 OFFCURVE",
"594 522 CURVE",
"534 554 OFFCURVE",
"441 570 OFFCURVE",
"320 570 CURVE SMOOTH",
"232 570 OFFCURVE",
"112 559 OFFCURVE",
"23 545 CURVE",
"26 478 OFFCURVE",
"26 421 OFFCURVE",
"26 362 CURVE SMOOTH",
"26 238 OFFCURVE",
"21 129 OFFCURVE",
"8 12 CURVE",
"74 0 OFFCURVE",
"212 -10 OFFCURVE",
"295 -10 CURVE"
);
}
);
width = 658;
}
);
unicode = 0050;
},
{
glyphname = S;
lastChange = "2016-04-14 15:38:08 +0000";
layers = (
{
layerId = "7A0FC40B-77F8-4D14-AD08-D047673E78CB";
name = Regular;
paths = (
{
closed = 1;
nodes = (
"4 5 LINE",
"65 -3 OFFCURVE",
"141 -10 OFFCURVE",
"194 -10 CURVE SMOOTH",
"322 -10 OFFCURVE",
"422 6 OFFCURVE",
"482 38 CURVE",
"513 75 OFFCURVE",
"529 131 OFFCURVE",
"529 203 CURVE SMOOTH",
"529 257 OFFCURVE",
"514 291 OFFCURVE",
"497 316 CURVE",
"438 339 OFFCURVE",
"358 351 OFFCURVE",
"314 364 CURVE",
"305 374 OFFCURVE",
"299 384 OFFCURVE",
"299 397 CURVE SMOOTH",
"299 411 OFFCURVE",
"303 422 OFFCURVE",
"310 429 CURVE",
"330 435 OFFCURVE",
"358 438 OFFCURVE",
"389 438 CURVE SMOOTH",
"411 438 OFFCURVE",
"458 434 OFFCURVE",
"482 423 CURVE",
"510 551 LINE",
"460 562 OFFCURVE",
"400 570 OFFCURVE",
"322 570 CURVE SMOOTH",
"211 570 OFFCURVE",
"121 561 OFFCURVE",
"62 538 CURVE",
"25 506 OFFCURVE",
"4 458 OFFCURVE",
"4 387 CURVE SMOOTH",
"4 324 OFFCURVE",
"24 284 OFFCURVE",
"50 256 CURVE",
"102 234 OFFCURVE",
"170 222 OFFCURVE",
"214 213 CURVE",
"226 203 OFFCURVE",
"234 193 OFFCURVE",
"234 179 CURVE SMOOTH",
"234 162 OFFCURVE",
"229 148 OFFCURVE",
"219 139 CURVE",
"196 130 OFFCURVE",
"161 126 OFFCURVE",
"118 126 CURVE SMOOTH",
"83 126 OFFCURVE",
"38 130 OFFCURVE",
"15 134 CURVE"
);
}
);
width = 533;
}
);
unicode = 0053;
},
{
glyphname = N;
lastChange = "2016-04-14 15:38:08 +0000";
layers = (
{
layerId = "7A0FC40B-77F8-4D14-AD08-D047673E78CB";
name = Regular;
paths = (
{
closed = 1;
nodes = (
"594 570 LINE",
"377 560 LINE",
"383 378 LINE",
"220 567 LINE",
"30 560 LINE",
"30 362 OFFCURVE",
"24 172 OFFCURVE",
"12 -10 CURVE",
"264 -1 LINE",
"254 212 LINE",
"351 115 LINE",
"342 -10 LINE",
"603 1 LINE"
);
}
);
width = 615;
}
);
unicode = 004E;
},
{
glyphname = F;
lastChange = "2016-04-14 15:38:08 +0000";
layers = (
{
layerId = "7A0FC40B-77F8-4D14-AD08-D047673E78CB";
name = Regular;
paths = (
{
closed = 1;
nodes = (
"281 201 LINE",
"486 209 LINE",
"500 335 LINE",
"430 333 OFFCURVE",
"360 331 OFFCURVE",
"290 330 CURVE",
"290 435 LINE",
"373 435 OFFCURVE",
"454 434 OFFCURVE",
"534 431 CURVE",
"544 570 LINE",
"368 566 OFFCURVE",
"193 562 OFFCURVE",
"17 560 CURVE",
"16 370 OFFCURVE",
"14 180 OFFCURVE",
"8 -10 CURVE",
"290 1 LINE"
);
}
);
width = 548;
}
);
unicode = 0046;
},
{
glyphname = G;
lastChange = "2016-04-14 15:38:08 +0000";
layers = (
{
layerId = "7A0FC40B-77F8-4D14-AD08-D047673E78CB";
name = Regular;
paths = (
{
closed = 1;
nodes = (
"654 290 LINE",
"388 280 LINE",
"403 134 LINE",
"375 137 OFFCURVE",
"353 142 OFFCURVE",
"333 152 CURVE",
"311 177 OFFCURVE",
"299 221 OFFCURVE",
"299 285 CURVE SMOOTH",
"299 338 OFFCURVE",
"311 376 OFFCURVE",
"334 398 CURVE",
"362 408 OFFCURVE",
"396 414 OFFCURVE",
"437 414 CURVE SMOOTH",
"485 414 OFFCURVE",
"544 410 OFFCURVE",
"594 399 CURVE",
"630 551 LINE",
"556 562 OFFCURVE",
"472 570 OFFCURVE",
"362 570 CURVE SMOOTH",
"261 570 OFFCURVE",
"179 560 OFFCURVE",
"115 541 CURVE",
"42 487 OFFCURVE",
"4 411 OFFCURVE",
"4 283 CURVE SMOOTH",
"4 158 OFFCURVE",
"40 90 OFFCURVE",
"112 26 CURVE",
"175 2 OFFCURVE",
"263 -10 OFFCURVE",
"370 -10 CURVE SMOOTH",
"446 -10 OFFCURVE",
"542 -3 OFFCURVE",
"638 25 CURVE"
);
}
);
width = 674;
}
);
unicode = 0047;
},
{
glyphname = H;
lastChange = "2016-04-14 15:38:08 +0000";
layers = (
{
layerId = "7A0FC40B-77F8-4D14-AD08-D047673E78CB";
name = Regular;
paths = (
{
closed = 1;
nodes = (
"614 570 LINE",
"373 560 LINE",
"379 378 LINE",
"295 374 LINE",
"312 570 LINE",
"26 560 LINE",
"26 362 OFFCURVE",
"20 172 OFFCURVE",
"8 -10 CURVE",
"276 -1 LINE",
"265 222 LINE",
"356 216 LINE",
"356 -10 LINE",
"623 1 LINE"
);
}
);
width = 631;
}
);
unicode = 0048;
},
{
glyphname = U;
lastChange = "2016-04-14 15:38:08 +0000";
layers = (
{
layerId = "7A0FC40B-77F8-4D14-AD08-D047673E78CB";
name = Regular;
paths = (
{
closed = 1;
nodes = (
"28 560 LINE",
"15 456 OFFCURVE",
"12 359 OFFCURVE",
"12 261 CURVE SMOOTH",
"12 162 OFFCURVE",
"29 91 OFFCURVE",
"61 44 CURVE",
"118 7 OFFCURVE",
"207 -10 OFFCURVE",
"322 -10 CURVE SMOOTH",
"432 -10 OFFCURVE",
"522 6 OFFCURVE",
"581 38 CURVE",
"620 85 OFFCURVE",
"642 156 OFFCURVE",
"642 254 CURVE SMOOTH",
"642 362 OFFCURVE",
"639 466 OFFCURVE",
"626 570 CURVE",
"377 560 LINE",
"385 462 OFFCURVE",
"390 378 OFFCURVE",
"390 281 CURVE SMOOTH",
"390 201 OFFCURVE",
"384 150 OFFCURVE",
"368 127 CURVE",
"356 122 OFFCURVE",
"342 118 OFFCURVE",
"323 118 CURVE SMOOTH",
"308 118 OFFCURVE",
"295 118 OFFCURVE",
"287 128 CURVE",
"281 150 OFFCURVE",
"278 193 OFFCURVE",
"278 271 CURVE SMOOTH",
"278 383 OFFCURVE",
"284 467 OFFCURVE",
"293 570 CURVE"
);
}
);
width = 654;
}
);
unicode = 0055;
},
{
glyphname = M;
lastChange = "2016-04-14 15:38:08 +0000";
layers = (
{
layerId = "7A0FC40B-77F8-4D14-AD08-D047673E78CB";
name = Regular;
paths = (
{
closed = 1;
nodes = (
"488 253 LINE",
"494 251 LINE",
"478 -10 LINE",
"731 1 LINE",
"725 189 OFFCURVE",
"722 378 OFFCURVE",
"722 570 CURVE",
"425 559 LINE",
"366 390 LINE",
"308 570 LINE",
"22 560 LINE",
"22 362 OFFCURVE",
"16 172 OFFCURVE",
"4 -10 CURVE",
"256 -1 LINE",
"238 244 LINE",
"244 251 LINE",
"296 70 LINE",
"440 78 LINE"
);
}
);
width = 735;
}
);
unicode = 004D;
},
{
glyphname = L;
lastChange = "2016-04-14 15:38:08 +0000";
layers = (
{
layerId = "7A0FC40B-77F8-4D14-AD08-D047673E78CB";
name = Regular;
paths = (
{
closed = 1;
nodes = (
"292 570 LINE",
"27 560 LINE",
"8 -10 LINE",
"184 -5 OFFCURVE",
"363 -2 OFFCURVE",
"543 1 CURVE",
"554 144 LINE",
"298 135 LINE"
);
}
);
width = 566;
}
);
unicode = 004C;
},
{
glyphname = L_I;
lastChange = "2016-04-14 15:41:28 +0000";
layers = (
{
layerId = "7A0FC40B-77F8-4D14-AD08-D047673E78CB";
name = Regular;
paths = (
{
closed = 1;
nodes = (
"292 570 LINE",
"27 560 LINE",
"8 -10 LINE",
"184 -5 OFFCURVE",
"520 -2 OFFCURVE",
"700 1 CURVE",
"711 150 LINE",
"298 135 LINE"
);
},
{
closed = 1;
nodes = (
"692 570 LINE",
"426 560 LINE",
"408 174 LINE",
"701 185 LINE"
);
}
);
width = 719;
}
);
},
{
glyphname = L_A;
lastChange = "2016-04-14 15:41:28 +0000";
layers = (
{
layerId = "7A0FC40B-77F8-4D14-AD08-D047673E78CB";
name = Regular;
paths = (
{
closed = 1;
nodes = (
"560 170 LINE",
"567 200 LINE",
"658 200 LINE",
"689 -10 LINE",
"796 -2 OFFCURVE",
"902 3 OFFCURVE",
"1004 5 CURVE",
"950 192 OFFCURVE",
"914 382 OFFCURVE",
"889 570 CURVE",
"771 561 OFFCURVE",
"602 555 OFFCURVE",
"475 555 CURVE",
"440 426 OFFCURVE",
"396 298 OFFCURVE",
"332 170 CURVE"
);
},
{
closed = 1;
nodes = (
"597 316 LINE",
"619 410 LINE",
"631 412 LINE",
"647 322 LINE"
);
},
{
closed = 1;
nodes = (
"292 570 LINE",
"27 560 LINE",
"8 -10 LINE",
"184 -5 OFFCURVE",
"363 -2 OFFCURVE",
"543 1 CURVE",
"554 144 LINE",
"298 135 LINE"
);
}
);
width = 1008;
}
);
},
{
glyphname = R;
lastChange = "2016-04-14 15:38:08 +0000";
layers = (
{
layerId = "7A0FC40B-77F8-4D14-AD08-D047673E78CB";
name = Regular;
paths = (
{
closed = 1;
nodes = (
"295 158 LINE",
"316 158 LINE",
"343 117 OFFCURVE",
"368 66 OFFCURVE",
"385 -10 CURVE",
"485 -2 OFFCURVE",
"581 3 OFFCURVE",
"676 5 CURVE",
"632 69 OFFCURVE",
"589 135 OFFCURVE",
"562 202 CURVE",
"588 208 OFFCURVE",
"609 214 OFFCURVE",
"628 221 CURVE",
"650 254 OFFCURVE",
"662 301 OFFCURVE",
"662 359 CURVE SMOOTH",
"662 426 OFFCURVE",
"647 478 OFFCURVE",
"620 514 CURVE",
"558 552 OFFCURVE",
"459 570 OFFCURVE",
"320 570 CURVE SMOOTH",
"232 570 OFFCURVE",
"112 559 OFFCURVE",
"23 545 CURVE",
"26 478 OFFCURVE",
"26 421 OFFCURVE",
"26 362 CURVE SMOOTH",
"26 238 OFFCURVE",
"21 129 OFFCURVE",
"8 12 CURVE",
"74 0 OFFCURVE",
"212 -10 OFFCURVE",
"295 -10 CURVE"
);
},
{
closed = 1;
nodes = (
"370 333 OFFCURVE",
"366 315 OFFCURVE",
"358 302 CURVE",
"342 292 OFFCURVE",
"320 286 OFFCURVE",
"288 286 CURVE",
"283 342 OFFCURVE",
"280 386 OFFCURVE",
"278 443 CURVE",
"288 446 OFFCURVE",
"304 446 OFFCURVE",
"313 446 CURVE SMOOTH",
"333 446 OFFCURVE",
"350 443 OFFCURVE",
"362 435 CURVE",
"367 420 OFFCURVE",
"370 396 OFFCURVE",
"370 357 CURVE SMOOTH"
);
}
);
width = 680;
}
);
unicode = 0052;
},
{
glyphname = T;
lastChange = "2016-04-14 15:38:08 +0000";
layers = (
{
layerId = "7A0FC40B-77F8-4D14-AD08-D047673E78CB";
name = Regular;
paths = (
{
closed = 1;
nodes = (
"595 390 LINE",
"595 570 LINE",
"398 566 OFFCURVE",
"201 562 OFFCURVE",
"4 560 CURVE",
"4 414 LINE",
"161 406 LINE",
"147 -10 LINE",
"440 1 LINE",
"427 396 LINE"
);
}
);
width = 599;
}
);
unicode = 0054;
},
{
glyphname = T_A;
lastChange = "2016-04-14 15:41:28 +0000";
layers = (
{
layerId = "7A0FC40B-77F8-4D14-AD08-D047673E78CB";
name = Regular;
paths = (
{
closed = 1;
nodes = (
"1040 422 LINE",
"1034 570 LINE",
"837 566 OFFCURVE",
"201 562 OFFCURVE",
"4 560 CURVE",
"4 414 LINE",
"161 406 LINE",
"147 -10 LINE",
"444 1 LINE",
"427 404 LINE"
);
},
{
closed = 1;
nodes = (
"694 -6 LINE",
"718 80 LINE",
"827 80 LINE",
"845 -10 LINE",
"952 -2 OFFCURVE",
"1054 3 OFFCURVE",
"1156 5 CURVE",
"1102 144 OFFCURVE",
"1066 262 OFFCURVE",
"1041 402 CURVE",
"923 393 OFFCURVE",
"754 387 OFFCURVE",
"627 387 CURVE",
"591 252 OFFCURVE",
"548 142 OFFCURVE",
"484 10 CURVE"
);
},
{
closed = 1;
nodes = (
"786 236 LINE",
"805 186 LINE",
"754 180 LINE",
"774 234 LINE"
);
}
);
width = 1160;
}
);
},
{
glyphname = T_E;
lastChange = "2016-04-14 15:41:28 +0000";
layers = (
{
layerId = "7A0FC40B-77F8-4D14-AD08-D047673E78CB";
name = Regular;
paths = (
{
closed = 1;
nodes = (
"1040 457 LINE",
"1034 570 LINE",
"837 566 OFFCURVE",
"201 562 OFFCURVE",
"4 560 CURVE",
"4 414 LINE",
"161 406 LINE",
"147 -10 LINE",
"444 1 LINE",
"427 438 LINE"
);
},
{
closed = 1;
nodes = (
"793 119 LINE",
"785 149 LINE",
"990 157 LINE",
"1004 250 LINE",
"794 250 LINE",
"794 291 LINE",
"878 290 OFFCURVE",
"959 291 OFFCURVE",
"1038 287 CURVE",
"1048 428 LINE",
"521 410 LINE",
"521 270 OFFCURVE",
"520 124 OFFCURVE",
"512 -10 CURVE",
"691 -3 OFFCURVE",
"870 1 OFFCURVE",
"1047 1 CURVE",
"1058 128 LINE"
);
}
);
width = 1070;
}
);
},
{
glyphname = T_I;
lastChange = "2016-04-14 15:41:28 +0000";
layers = (
{
layerId = "7A0FC40B-77F8-4D14-AD08-D047673E78CB";
name = Regular;
paths = (
{
closed = 1;
nodes = (
"819 422 LINE",
"814 570 LINE",
"616 566 OFFCURVE",
"201 561 OFFCURVE",
"4 560 CURVE",
"4 414 LINE",
"161 406 LINE",
"147 -10 LINE",
"444 1 LINE",
"427 404 LINE"
);
},
{
closed = 1;
nodes = (
"804 386 LINE",
"538 376 LINE",
"520 -10 LINE",
"813 1 LINE"
);
}
);
width = 827;
}
);
},
{
glyphname = K;
lastChange = "2016-04-14 15:38:08 +0000";
layers = (
{
layerId = "7A0FC40B-77F8-4D14-AD08-D047673E78CB";
name = Regular;
paths = (
{
closed = 1;
nodes = (
"630 560 LINE",
"381 570 LINE",
"307 378 LINE",
"295 374 LINE",
"312 570 LINE",
"26 560 LINE",
"26 362 OFFCURVE",
"20 172 OFFCURVE",
"8 -10 CURVE",
"276 -1 LINE",
"265 222 LINE",
"284 216 LINE",
"364 -10 LINE",
"631 1 LINE",
"538 298 LINE"
);
}
);
width = 631;
}
);
unicode = 004B;
},
{
glyphname = J;
lastChange = "2016-04-14 15:38:08 +0000";
layers = (
{
layerId = "7A0FC40B-77F8-4D14-AD08-D047673E78CB";
name = Regular;
paths = (
{
closed = 1;
nodes = (
"219 560 LINE",
"201 179 LINE SMOOTH",
"200 162 OFFCURVE",
"195 148 OFFCURVE",
"186 139 CURVE",
"169 130 OFFCURVE",
"146 126 OFFCURVE",
"118 126 CURVE SMOOTH",
"83 126 OFFCURVE",
"38 130 OFFCURVE",
"15 134 CURVE",
"4 5 LINE",
"65 -3 OFFCURVE",
"141 -10 OFFCURVE",
"194 -10 CURVE SMOOTH",
"308 -10 OFFCURVE",
"393 6 OFFCURVE",
"449 38 CURVE",
"482 137 OFFCURVE",
"490 214 OFFCURVE",
"490 322 CURVE SMOOTH",
"490 386 OFFCURVE",
"489 468 OFFCURVE",
"485 570 CURVE"
);
}
);
width = 507;
}
);
unicode = 004A;
},
{
glyphname = Q;
lastChange = "2016-04-14 15:38:08 +0000";
layers = (
{
layerId = "7A0FC40B-77F8-4D14-AD08-D047673E78CB";
name = Regular;
paths = (
{
closed = 1;
nodes = (
"239 3 OFFCURVE",
"452 -16 OFFCURVE",
"605 -16 CURVE",
"625 16 OFFCURVE",
"643 48 OFFCURVE",
"662 94 CURVE",
"511 94 LINE",
"585 106 OFFCURVE",
"638 125 OFFCURVE",
"652 138 CURVE",
"674 192 OFFCURVE",
"685 242 OFFCURVE",
"685 323 CURVE SMOOTH",
"685 394 OFFCURVE",
"665 461 OFFCURVE",
"629 515 CURVE",
"570 552 OFFCURVE",
"478 570 OFFCURVE",
"359 570 CURVE SMOOTH",
"235 570 OFFCURVE",
"139 553 OFFCURVE",
"76 518 CURVE",
"31 459 OFFCURVE",
"8 389 OFFCURVE",
"8 277 CURVE SMOOTH",
"8 156 OFFCURVE",
"35 86 OFFCURVE",
"89 26 CURVE"
);
},
{
closed = 1;
nodes = (
"323 427 OFFCURVE",
"335 430 OFFCURVE",
"352 430 CURVE SMOOTH",
"364 430 OFFCURVE",
"374 427 OFFCURVE",
"382 419 CURVE",
"389 393 OFFCURVE",
"394 350 OFFCURVE",
"394 281 CURVE SMOOTH",
"394 222 OFFCURVE",
"389 166 OFFCURVE",
"375 109 CURVE",
"368 102 OFFCURVE",
"359 97 OFFCURVE",
"348 95 CURVE",
"323 95 LINE",
"316 97 OFFCURVE",
"311 100 OFFCURVE",
"307 105 CURVE",
"301 137 OFFCURVE",
"298 189 OFFCURVE",
"298 271 CURVE SMOOTH",
"298 329 OFFCURVE",
"303 377 OFFCURVE",
"314 422 CURVE"
);
}
);
width = 693;
}
);
unicode = 0051;
},
{
glyphname = W;
lastChange = "2016-04-14 15:38:08 +0000";
layers = (
{
layerId = "7A0FC40B-77F8-4D14-AD08-D047673E78CB";
name = Regular;
paths = (
{
closed = 1;
nodes = (
"588 565 OFFCURVE",
"482 562 OFFCURVE",
"380 560 CURVE",
"393 512 OFFCURVE",
"404 465 OFFCURVE",
"415 417 CURVE",
"405 326 OFFCURVE",
"390 242 OFFCURVE",
"371 149 CURVE",
"348 286 OFFCURVE",
"329 426 OFFCURVE",
"319 570 CURVE",
"212 565 OFFCURVE",
"106 562 OFFCURVE",
"4 560 CURVE",
"54 372 OFFCURVE",
"88 178 OFFCURVE",
"111 -10 CURVE",
"211 -4 OFFCURVE",
"346 2 OFFCURVE",
"501 2 CURVE",
"508 57 OFFCURVE",
"522 110 OFFCURVE",
"534 164 CURVE",
"544 106 OFFCURVE",
"552 47 OFFCURVE",
"559 -10 CURVE",
"660 -2 OFFCURVE",
"806 2 OFFCURVE",
"917 2 CURVE",
"941 190 OFFCURVE",
"969 375 OFFCURVE",
"1012 558 CURVE",
"802 568 LINE",
"786 426 OFFCURVE",
"767 285 OFFCURVE",
"747 149 CURVE",
"724 286 OFFCURVE",
"705 426 OFFCURVE",
"695 570 CURVE"
);
}
);
width = 1016;
}
);
rightKerningGroup = W;
unicode = 0057;
},
{
glyphname = X;
lastChange = "2016-04-14 15:38:08 +0000";
layers = (
{
layerId = "7A0FC40B-77F8-4D14-AD08-D047673E78CB";
name = Regular;
paths = (
{
closed = 1;
nodes = (
"231 565 OFFCURVE",
"122 562 OFFCURVE",
"18 560 CURVE",
"60 477 OFFCURVE",
"98 391 OFFCURVE",
"127 306 CURVE",
"92 194 OFFCURVE",
"55 106 OFFCURVE",
"4 0 CURVE",
"68 0 OFFCURVE",
"135 -3 OFFCURVE",
"202 -8 CURVE",
"218 48 OFFCURVE",
"238 108 OFFCURVE",
"264 166 CURVE",
"282 106 OFFCURVE",
"296 48 OFFCURVE",
"309 -10 CURVE",
"418 -2 OFFCURVE",
"513 1 OFFCURVE",
"615 1 CURVE",
"571 91 OFFCURVE",
"532 181 OFFCURVE",
"498 270 CURVE",
"529 367 OFFCURVE",
"567 462 OFFCURVE",
"618 558 CURVE",
"416 568 LINE",
"408 518 OFFCURVE",
"394 470 OFFCURVE",
"378 421 CURVE",
"363 470 OFFCURVE",
"351 519 OFFCURVE",
"341 570 CURVE"
);
}
);
width = 622;
}
);
unicode = 0058;
},
{
glyphname = Y;
lastChange = "2016-04-14 15:38:08 +0000";
layers = (
{
layerId = "7A0FC40B-77F8-4D14-AD08-D047673E78CB";
name = Regular;
paths = (
{
closed = 1;
nodes = (
"215 565 OFFCURVE",
"106 562 OFFCURVE",
"2 560 CURVE",
"47 468 OFFCURVE",
"87 376 OFFCURVE",
"178 191 CURVE",
"168 -10 LINE",
"462 1 LINE",
"455 200 LINE",
"498 322 OFFCURVE",
"556 438 OFFCURVE",
"634 558 CURVE",
"432 568 LINE",
"418 508 OFFCURVE",
"395 450 OFFCURVE",
"369 393 CURVE",
"351 450 OFFCURVE",
"337 510 OFFCURVE",
"325 570 CURVE"
);
}
);
width = 635;
}
);
rightKerningGroup = Y;
unicode = 0059;
},
{
glyphname = Z;
lastChange = "2016-04-14 15:38:08 +0000";
layers = (
{
layerId = "7A0FC40B-77F8-4D14-AD08-D047673E78CB";
name = Regular;
paths = (
{
closed = 1;
nodes = (
"17 422 LINE",
"181 410 LINE",
"149 319 OFFCURVE",
"76 218 OFFCURVE",
"12 130 CURVE",
"12 0 LINE",
"183 0 OFFCURVE",
"338 -2 OFFCURVE",
"494 -10 CURVE",
"510 154 LINE",
"337 146 LINE",
"378 245 OFFCURVE",
"436 342 OFFCURVE",
"502 441 CURVE",
"494 570 LINE",
"354 564 OFFCURVE",
"204 560 OFFCURVE",
"33 560 CURVE"
);
}
);
width = 522;
}
);
unicode = 005A;
},
{
glyphname = o;
lastChange = "2016-04-14 15:38:08 +0000";
layers = (
{
layerId = "7A0FC40B-77F8-4D14-AD08-D047673E78CB";
name = Regular;
paths = (
{
closed = 1;
nodes = (
"443 -10 OFFCURVE",
"533 10 OFFCURVE",
"592 50 CURVE",
"618 106 OFFCURVE",
"633 157 OFFCURVE",
"633 243 CURVE SMOOTH",
"633 322 OFFCURVE",
"618 370 OFFCURVE",
"593 419 CURVE",
"534 456 OFFCURVE",
"444 474 OFFCURVE",
"327 474 CURVE SMOOTH",
"211 474 OFFCURVE",
"123 457 OFFCURVE",
"64 422 CURVE",
"30 376 OFFCURVE",
"12 321 OFFCURVE",
"12 237 CURVE SMOOTH",
"12 136 OFFCURVE",
"34 75 OFFCURVE",
"77 26 CURVE",
"134 2 OFFCURVE",
"217 -10 OFFCURVE",
"318 -10 CURVE SMOOTH"
);
},
{
closed = 1;
nodes = (
"302 331 OFFCURVE",
"311 335 OFFCURVE",
"328 335 CURVE SMOOTH",
"339 335 OFFCURVE",
"348 335 OFFCURVE",
"355 329 CURVE",
"363 311 OFFCURVE",
"367 280 OFFCURVE",
"367 233 CURVE SMOOTH",
"367 184 OFFCURVE",
"363 147 OFFCURVE",
"349 128 CURVE SMOOTH",
"342 118 OFFCURVE",
"333 114 OFFCURVE",
"319 114 CURVE SMOOTH",
"302 114 OFFCURVE",
"292 117 OFFCURVE",
"286 124 CURVE",
"277 142 OFFCURVE",
"277 174 OFFCURVE",
"277 223 CURVE SMOOTH",
"277 258 OFFCURVE",
"281 290 OFFCURVE",
"293 323 CURVE"
);
}
);
width = 645;
}
);
unicode = 006F;
},
{
glyphname = a;
lastChange = "2016-04-14 15:38:08 +0000";
layers = (
{
layerId = "7A0FC40B-77F8-4D14-AD08-D047673E78CB";
name = Regular;
paths = (
{
closed = 1;
nodes = (
"29 248 OFFCURVE",
"12 211 OFFCURVE",
"12 155 CURVE SMOOTH",
"12 106 OFFCURVE",
"21 50 OFFCURVE",
"51 9 CURVE",
"94 -6 OFFCURVE",
"133 -14 OFFCURVE",
"184 -14 CURVE SMOOTH",
"259 -14 OFFCURVE",
"308 2 OFFCURVE",
"333 14 CURVE",
"332 -1 OFFCURVE",
"332 -10 OFFCURVE",
"332 -10 CURVE",
"419 -3 OFFCURVE",
"510 2 OFFCURVE",
"604 2 CURVE",
"608 34 OFFCURVE",
"614 102 OFFCURVE",
"614 176 CURVE SMOOTH",
"614 274 OFFCURVE",
"603 381 OFFCURVE",
"559 425 CURVE",
"478 468 OFFCURVE",
"374 477 OFFCURVE",
"274 477 CURVE SMOOTH",
"154 477 OFFCURVE",
"73 447 OFFCURVE",
"73 447 CURVE",
"92 411 OFFCURVE",
"108 374 OFFCURVE",
"114 327 CURVE",
"114 327 OFFCURVE",
"166 346 OFFCURVE",
"234 346 CURVE SMOOTH",
"259 346 OFFCURVE",
"294 342 OFFCURVE",
"322 337 CURVE",
"335 324 OFFCURVE",
"342 308 OFFCURVE",
"342 287 CURVE",
"306 302 OFFCURVE",
"258 310 OFFCURVE",
"210 310 CURVE SMOOTH",
"145 310 OFFCURVE",
"101 304 OFFCURVE",
"50 280 CURVE"
);
},
{
closed = 1;
nodes = (
"358 173 OFFCURVE",
"354 149 OFFCURVE",
"346 123 CURVE",
"334 121 OFFCURVE",
"326 118 OFFCURVE",
"310 118 CURVE SMOOTH",
"300 118 OFFCURVE",
"288 120 OFFCURVE",
"280 124 CURVE",
"275 131 OFFCURVE",
"274 142 OFFCURVE",
"274 155 CURVE SMOOTH",
"274 174 OFFCURVE",
"276 187 OFFCURVE",
"282 198 CURVE",
"292 202 OFFCURVE",
"306 203 OFFCURVE",
"316 203 CURVE SMOOTH",
"332 203 OFFCURVE",
"343 202 OFFCURVE",
"359 198 CURVE"
);
}
);
width = 632;
}
);
unicode = 0061;
},
{
glyphname = b;
lastChange = "2016-04-14 15:38:08 +0000";
layers = (
{
layerId = "7A0FC40B-77F8-4D14-AD08-D047673E78CB";
name = Regular;
paths = (
{
closed = 1;
nodes = (
"299 -10 LINE",
"402 -10 OFFCURVE",
"501 -5 OFFCURVE",
"585 36 CURVE",
"610 86 OFFCURVE",
"624 160 OFFCURVE",
"624 232 CURVE SMOOTH",
"624 319 OFFCURVE",
"613 379 OFFCURVE",
"569 441 CURVE",
"511 464 OFFCURVE",
"454 478 OFFCURVE",
"371 478 CURVE SMOOTH",
"349 478 OFFCURVE",
"323 477 OFFCURVE",
"296 474 CURVE",
"301 570 LINE",
"12 559 LINE",
"29 370 OFFCURVE",
"29 181 OFFCURVE",
"29 -10 CURVE",
"105 -2 OFFCURVE",
"183 -1 OFFCURVE",
"266 0 CURVE",
"266 36 LINE"
);
},
{
closed = 1;
nodes = (
"291 338 OFFCURVE",
"316 334 OFFCURVE",
"339 325 CURVE",
"346 310 OFFCURVE",
"351 290 OFFCURVE",
"351 267 CURVE SMOOTH",
"351 220 OFFCURVE",
"341 178 OFFCURVE",
"331 152 CURVE",
"313 142 OFFCURVE",
"300 139 OFFCURVE",
"283 139 CURVE",
"272 207 OFFCURVE",
"270 268 OFFCURVE",
"270 338 CURVE"
);
}
);
width = 644;
}
);
unicode = 0062;
},
{
glyphname = c;
lastChange = "2016-04-14 15:38:08 +0000";
layers = (
{
layerId = "7A0FC40B-77F8-4D14-AD08-D047673E78CB";
name = Regular;
paths = (
{
closed = 1;
nodes = (
"23 369 OFFCURVE",
"12 305 OFFCURVE",
"12 232 CURVE SMOOTH",
"12 160 OFFCURVE",
"26 86 OFFCURVE",
"51 36 CURVE",
"121 -5 OFFCURVE",
"205 -10 OFFCURVE",
"289 -10 CURVE SMOOTH",
"358 -10 OFFCURVE",
"413 -2 OFFCURVE",
"470 12 CURVE",
"456 51 OFFCURVE",
"450 100 OFFCURVE",
"449 138 CURVE",
"429 133 OFFCURVE",
"402 130 OFFCURVE",
"373 130 CURVE SMOOTH",
"351 130 OFFCURVE",
"329 133 OFFCURVE",
"305 142 CURVE",
"293 167 OFFCURVE",
"285 194 OFFCURVE",
"285 229 CURVE SMOOTH",
"285 257 OFFCURVE",
"288 290 OFFCURVE",
"296 312 CURVE",
"330 322 OFFCURVE",
"354 325 OFFCURVE",
"382 325 CURVE SMOOTH",
"402 325 OFFCURVE",
"430 322 OFFCURVE",
"447 321 CURVE",
"447 358 OFFCURVE",
"454 410 OFFCURVE",
"469 456 CURVE",
"410 470 OFFCURVE",
"359 477 OFFCURVE",
"300 477 CURVE SMOOTH",
"213 477 OFFCURVE",
"138 465 OFFCURVE",
"67 438 CURVE"
);
}
);
width = 474;
}
);
unicode = 0063;
},
{
glyphname = d;
lastChange = "2016-04-14 15:38:08 +0000";
layers = (
{
layerId = "7A0FC40B-77F8-4D14-AD08-D047673E78CB";
name = Regular;
paths = (
{
closed = 1;
nodes = (
"329 -10 OFFCURVE",
"344 10 OFFCURVE",
"363 35 CURVE",
"368 -10 LINE",
"444 -2 OFFCURVE",
"498 -1 OFFCURVE",
"580 0 CURVE",
"616 570 LINE",
"327 559 LINE",
"334 478 LINE",
"319 478 LINE SMOOTH",
"203 478 OFFCURVE",
"115 461 OFFCURVE",
"56 426 CURVE",
"22 374 OFFCURVE",
"4 309 OFFCURVE",
"4 229 CURVE SMOOTH",
"4 148 OFFCURVE",
"26 77 OFFCURVE",
"61 26 CURVE",
"118 2 OFFCURVE",
"227 -10 OFFCURVE",
"329 -10 CURVE"
);
},
{
closed = 1;
nodes = (
"358 274 OFFCURVE",
"356 210 OFFCURVE",
"345 139 CURVE",
"328 139 OFFCURVE",
"315 142 OFFCURVE",
"297 152 CURVE",
"287 178 OFFCURVE",
"277 220 OFFCURVE",
"277 267 CURVE SMOOTH",
"277 293 OFFCURVE",
"282 315 OFFCURVE",
"289 333 CURVE",
"312 342 OFFCURVE",
"337 346 OFFCURVE",
"358 346 CURVE"
);
}
);
width = 624;
}
);
unicode = 0064;
},
{
glyphname = e;
lastChange = "2016-04-14 15:38:08 +0000";
layers = (
{
layerId = "7A0FC40B-77F8-4D14-AD08-D047673E78CB";
name = Regular;
paths = (
{
closed = 1;
nodes = (
"437 178 OFFCURVE",
"516 179 OFFCURVE",
"581 188 CURVE",
"596 225 OFFCURVE",
"604 283 OFFCURVE",
"604 336 CURVE SMOOTH",
"604 373 OFFCURVE",
"601 409 OFFCURVE",
"589 440 CURVE",
"491 465 OFFCURVE",
"422 477 OFFCURVE",
"324 477 CURVE SMOOTH",
"224 477 OFFCURVE",
"139 465 OFFCURVE",
"59 438 CURVE",
"15 369 OFFCURVE",
"4 305 OFFCURVE",
"4 232 CURVE SMOOTH",
"4 160 OFFCURVE",
"18 86 OFFCURVE",
"43 36 CURVE",
"137 -5 OFFCURVE",
"245 -10 OFFCURVE",
"361 -10 CURVE SMOOTH",
"446 -10 OFFCURVE",
"513 0 OFFCURVE",
"582 16 CURVE",
"569 55 OFFCURVE",
"562 104 OFFCURVE",
"561 142 CURVE",
"519 134 OFFCURVE",
"470 130 OFFCURVE",
"413 130 CURVE SMOOTH",
"377 130 OFFCURVE",
"340 133 OFFCURVE",
"297 142 CURVE",
"293 154 OFFCURVE",
"289 166 OFFCURVE",
"286 181 CURVE",
"309 178 OFFCURVE",
"333 178 OFFCURVE",
"359 178 CURVE SMOOTH"
);
},
{
closed = 1;
nodes = (
"365 319 OFFCURVE",
"366 302 OFFCURVE",
"367 286 CURVE",
"329 282 OFFCURVE",
"295 282 OFFCURVE",
"263 282 CURVE",
"265 298 OFFCURVE",
"268 314 OFFCURVE",
"272 328 CURVE",
"306 338 OFFCURVE",
"330 341 OFFCURVE",
"359 341 CURVE"
);
}
);
width = 616;
}
);
unicode = 0065;
},
{
glyphname = f;
lastChange = "2016-04-14 15:38:08 +0000";
layers = (
{
layerId = "7A0FC40B-77F8-4D14-AD08-D047673E78CB";
name = Regular;
paths = (
{
closed = 1;
nodes = (
"19 366 LINE",
"26 249 LINE",
"70 247 LINE",
"69 214 OFFCURVE",
"69 179 OFFCURVE",
"69 146 CURVE SMOOTH",
"69 85 OFFCURVE",
"78 14 OFFCURVE",
"83 -10 CURVE",
"170 -3 OFFCURVE",
"262 2 OFFCURVE",
"355 2 CURVE",
"344 79 OFFCURVE",
"346 159 OFFCURVE",
"345 222 CURVE",
"526 214 LINE",
"526 386 LINE",
"337 378 LINE",
"340 388 OFFCURVE",
"344 398 OFFCURVE",
"350 406 CURVE",
"382 416 OFFCURVE",
"423 418 OFFCURVE",
"454 418 CURVE SMOOTH",
"502 418 OFFCURVE",
"541 412 OFFCURVE",
"541 412 CURVE",
"545 459 OFFCURVE",
"555 495 OFFCURVE",
"566 532 CURVE",
"566 532 OFFCURVE",
"488 570 OFFCURVE",
"374 570 CURVE SMOOTH",
"285 570 OFFCURVE",
"192 553 OFFCURVE",
"120 518 CURVE",
"102 485 OFFCURVE",
"90 431 OFFCURVE",
"83 368 CURVE"
);
}
);
width = 546;
}
);
unicode = 0066;
},
{
glyphname = g;
lastChange = "2016-04-14 15:38:08 +0000";
layers = (
{
layerId = "7A0FC40B-77F8-4D14-AD08-D047673E78CB";
name = Regular;
paths = (
{
closed = 1;
nodes = (
"510 475 OFFCURVE",
"419 469 OFFCURVE",
"332 464 CURVE",
"332 464 OFFCURVE",
"332 454 OFFCURVE",
"333 440 CURVE",
"308 454 OFFCURVE",
"259 475 OFFCURVE",
"184 475 CURVE SMOOTH",
"133 475 OFFCURVE",
"94 468 OFFCURVE",
"51 453 CURVE",
"21 393 OFFCURVE",
"12 310 OFFCURVE",
"12 242 CURVE SMOOTH",
"12 170 OFFCURVE",
"29 121 OFFCURVE",
"50 77 CURVE",
"101 53 OFFCURVE",
"145 47 OFFCURVE",
"210 47 CURVE SMOOTH",
"254 47 OFFCURVE",
"300 54 OFFCURVE",
"334 70 CURVE",
"334 46 OFFCURVE",
"327 23 OFFCURVE",
"314 3 CURVE",
"288 -6 OFFCURVE",
"257 -6 OFFCURVE",
"234 -6 CURVE SMOOTH",
"147 -6 OFFCURVE",
"82 13 OFFCURVE",
"82 13 CURVE",
"76 -34 OFFCURVE",
"60 -71 OFFCURVE",
"41 -107 CURVE",
"41 -107 OFFCURVE",
"135 -153 OFFCURVE",
"274 -153 CURVE SMOOTH",
"371 -153 OFFCURVE",
"472 -134 OFFCURVE",
"551 -93 CURVE",
"595 -50 OFFCURVE",
"606 53 OFFCURVE",
"606 148 CURVE SMOOTH",
"606 220 OFFCURVE",
"602 285 OFFCURVE",
"602 379 CURVE SMOOTH",
"602 409 OFFCURVE",
"602 440 OFFCURVE",
"604 475 CURVE"
);
},
{
closed = 1;
nodes = (
"338 189 OFFCURVE",
"326 185 OFFCURVE",
"310 185 CURVE SMOOTH",
"300 185 OFFCURVE",
"288 185 OFFCURVE",
"280 194 CURVE",
"266 220 OFFCURVE",
"257 242 OFFCURVE",
"257 268 CURVE SMOOTH",
"257 286 OFFCURVE",
"259 302 OFFCURVE",
"265 321 CURVE",
"291 321 OFFCURVE",
"318 319 OFFCURVE",
"348 313 CURVE",
"352 294 OFFCURVE",
"354 278 OFFCURVE",
"354 260 CURVE SMOOTH",
"354 235 OFFCURVE",
"353 211 OFFCURVE",
"350 190 CURVE"
);
}
);
width = 632;
}
);
unicode = 0067;
},
{
glyphname = h;
lastChange = "2016-04-14 15:38:08 +0000";
layers = (
{
layerId = "7A0FC40B-77F8-4D14-AD08-D047673E78CB";
name = Regular;
paths = (
{
closed = 1;
nodes = (
"270 302 LINE",
"291 314 OFFCURVE",
"310 319 OFFCURVE",
"333 319 CURVE",
"342 286 OFFCURVE",
"350 248 OFFCURVE",
"350 203 CURVE SMOOTH",
"350 144 OFFCURVE",
"346 73 OFFCURVE",
"334 -10 CURVE",
"389 -4 OFFCURVE",
"442 -2 OFFCURVE",
"492 -2 CURVE SMOOTH",
"530 -2 OFFCURVE",
"570 -2 OFFCURVE",
"608 -3 CURVE",
"603 47 OFFCURVE",
"600 160 OFFCURVE",
"600 232 CURVE SMOOTH",
"600 319 OFFCURVE",
"594 379 OFFCURVE",
"569 441 CURVE",
"526 464 OFFCURVE",
"483 478 OFFCURVE",
"419 478 CURVE SMOOTH",
"382 478 OFFCURVE",
"342 472 OFFCURVE",
"296 450 CURVE",
"301 570 LINE",
"12 559 LINE",
"29 370 OFFCURVE",
"29 181 OFFCURVE",
"29 -10 CURVE",
"107 -2 OFFCURVE",
"192 -1 OFFCURVE",
"277 0 CURVE"
);
}
);
width = 624;
}
);
unicode = 0068;
},
{
glyphname = i;
lastChange = "2016-04-14 15:38:08 +0000";
layers = (
{
layerId = "7A0FC40B-77F8-4D14-AD08-D047673E78CB";
name = Regular;
paths = (
{
closed = 1;
nodes = (
"301 570 LINE",
"12 559 LINE",
"20 505 OFFCURVE",
"22 458 OFFCURVE",
"22 410 CURVE",
"58 412 OFFCURVE",
"97 414 OFFCURVE",
"138 414 CURVE SMOOTH",
"178 414 OFFCURVE",
"220 412 OFFCURVE",
"265 407 CURVE"
);
},
{
closed = 1;
nodes = (
"277 384 LINE",
"217 378 OFFCURVE",
"150 375 OFFCURVE",
"85 375 CURVE SMOOTH",
"64 375 OFFCURVE",
"43 375 OFFCURVE",
"23 376 CURVE",
"29 248 OFFCURVE",
"29 119 OFFCURVE",
"29 -10 CURVE",
"107 -2 OFFCURVE",
"200 -1 OFFCURVE",
"285 0 CURVE"
);
}
);
width = 321;
}
);
unicode = 0069;
},
{
glyphname = l;
lastChange = "2016-04-14 15:38:08 +0000";
layers = (
{
layerId = "7A0FC40B-77F8-4D14-AD08-D047673E78CB";
name = Regular;
paths = (
{
closed = 1;
nodes = (
"233 559 OFFCURVE",
"150 559 OFFCURVE",
"85 559 CURVE SMOOTH",
"64 559 OFFCURVE",
"43 559 OFFCURVE",
"23 560 CURVE",
"29 435 OFFCURVE",
"29 116 OFFCURVE",
"29 -10 CURVE",
"107 -2 OFFCURVE",
"200 -1 OFFCURVE",
"285 0 CURVE",
"282 78 OFFCURVE",
"279 155 OFFCURVE",
"279 233 CURVE SMOOTH",
"279 345 OFFCURVE",
"284 456 OFFCURVE",
"293 568 CURVE"
);
}
);
width = 313;
}
);
unicode = 006C;
},
{
glyphname = j;
lastChange = "2016-04-14 15:38:08 +0000";
layers = (
{
layerId = "7A0FC40B-77F8-4D14-AD08-D047673E78CB";
name = Regular;
paths = (
{
closed = 1;
nodes = (
"31 400 LINE",
"79 408 OFFCURVE",
"135 414 OFFCURVE",
"175 414 CURVE SMOOTH",
"216 414 OFFCURVE",
"254 412 OFFCURVE",
"291 410 CURVE",
"290 422 OFFCURVE",
"290 432 OFFCURVE",
"290 442 CURVE SMOOTH",
"290 483 OFFCURVE",
"294 528 OFFCURVE",
"301 570 CURVE",
"12 560 LINE"
);
},
{
closed = 1;
nodes = (
"26 331 OFFCURVE",
"28 289 OFFCURVE",
"28 247 CURVE SMOOTH",
"28 158 OFFCURVE",
"19 72 OFFCURVE",
"-6 -5 CURVE",
"-32 -14 OFFCURVE",
"-63 -14 OFFCURVE",
"-86 -14 CURVE",
"-62 -57 OFFCURVE",
"-49 -107 OFFCURVE",
"-46 -153 CURVE",
"51 -153 OFFCURVE",
"152 -134 OFFCURVE",
"231 -93 CURVE",
"275 -50 OFFCURVE",
"286 53 OFFCURVE",
"286 148 CURVE SMOOTH",
"286 220 OFFCURVE",
"277 290 OFFCURVE",
"277 384 CURVE",
"217 378 OFFCURVE",
"150 375 OFFCURVE",
"85 375 CURVE SMOOTH",
"64 375 OFFCURVE",
"43 375 OFFCURVE",
"23 376 CURVE"
);
}
);
width = 321;
}
);
unicode = 006A;
},
{
glyphname = k;
lastChange = "2016-04-14 15:38:08 +0000";
layers = (
{
layerId = "7A0FC40B-77F8-4D14-AD08-D047673E78CB";
name = Regular;
paths = (
{
closed = 1;
nodes = (
"357 148 OFFCURVE",
"377 69 OFFCURVE",
"384 -2 CURVE",
"384 -2 OFFCURVE",
"625 26 OFFCURVE",
"625 26 CURVE",
"623 131 OFFCURVE",
"607 221 OFFCURVE",
"569 299 CURVE",
"569 299 OFFCURVE",
"538 310 OFFCURVE",
"538 310 CURVE SMOOTH",
"538 310 OFFCURVE",
"606 390 OFFCURVE",
"621 466 CURVE",
"541 466 OFFCURVE",
"463 470 OFFCURVE",
"386 476 CURVE",
"369 423 OFFCURVE",
"339 386 OFFCURVE",
"293 362 CURVE",
"301 570 LINE",
"12 559 LINE",
"29 370 OFFCURVE",
"29 181 OFFCURVE",
"29 -10 CURVE",
"107 -2 OFFCURVE",
"193 0 OFFCURVE",
"278 0 CURVE",
"270 198 LINE",
"291 210 OFFCURVE",
"310 215 OFFCURVE",
"333 215 CURVE"
);
}
);
width = 624;
}
);
unicode = 006B;
},
{
glyphname = n;
lastChange = "2016-04-14 15:38:08 +0000";
layers = (
{
layerId = "7A0FC40B-77F8-4D14-AD08-D047673E78CB";
name = Regular;
paths = (
{
closed = 1;
nodes = (
"270 250 LINE",
"291 270 OFFCURVE",
"310 279 OFFCURVE",
"333 279 CURVE",
"342 234 OFFCURVE",
"350 184 OFFCURVE",
"350 123 CURVE SMOOTH",
"350 88 OFFCURVE",
"346 41 OFFCURVE",
"334 -10 CURVE",
"389 -4 OFFCURVE",
"442 -2 OFFCURVE",
"492 -2 CURVE SMOOTH",
"530 -2 OFFCURVE",
"570 -2 OFFCURVE",
"608 -3 CURVE",
"612 78 OFFCURVE",
"625 154 OFFCURVE",
"625 230 CURVE SMOOTH",
"625 294 OFFCURVE",
"616 359 OFFCURVE",
"585 427 CURVE",
"544 455 OFFCURVE",
"504 472 OFFCURVE",
"443 472 CURVE SMOOTH",
"399 472 OFFCURVE",
"352 462 OFFCURVE",
"296 424 CURVE",
"301 472 LINE",
"12 462 LINE",
"21 300 OFFCURVE",
"21 154 OFFCURVE",
"21 -10 CURVE",
"99 -2 OFFCURVE",
"184 -1 OFFCURVE",
"269 0 CURVE"
);
}
);
width = 641;
}
);
unicode = 006E;
},
{
glyphname = m;
lastChange = "2016-04-14 15:38:08 +0000";
layers = (
{
layerId = "7A0FC40B-77F8-4D14-AD08-D047673E78CB";
name = Regular;
paths = (
{
closed = 1;
nodes = (
"609 297 OFFCURVE",
"626 303 OFFCURVE",
"642 303 CURVE",
"647 251 OFFCURVE",
"651 194 OFFCURVE",
"651 123 CURVE SMOOTH",
"651 88 OFFCURVE",
"648 41 OFFCURVE",
"636 -10 CURVE",
"690 -4 OFFCURVE",
"743 -2 OFFCURVE",
"794 -2 CURVE SMOOTH",
"832 -2 OFFCURVE",
"871 -2 OFFCURVE",
"910 -3 CURVE",
"905 117 OFFCURVE",
"914 329 OFFCURVE",
"878 441 CURVE",
"828 464 OFFCURVE",
"778 478 OFFCURVE",
"705 478 CURVE SMOOTH",
"622 478 OFFCURVE",
"561 441 OFFCURVE",
"561 441 CURVE SMOOTH",
"561 441 OFFCURVE",
"528 470 OFFCURVE",
"427 470 CURVE SMOOTH",
"388 470 OFFCURVE",
"346 462 OFFCURVE",
"296 430 CURVE",
"301 466 LINE",
"12 476 LINE",
"29 315 OFFCURVE",
"29 154 OFFCURVE",
"29 -10 CURVE",
"107 -2 OFFCURVE",
"192 -1 OFFCURVE",
"277 0 CURVE",
"266 250 LINE",
"283 265 OFFCURVE",
"300 271 OFFCURVE",
"317 271 CURVE",
"326 229 OFFCURVE",
"334 181 OFFCURVE",
"334 123 CURVE SMOOTH",
"334 88 OFFCURVE",
"330 46 OFFCURVE",
"318 -5 CURVE",
"373 1 OFFCURVE",
"426 3 OFFCURVE",
"476 3 CURVE SMOOTH",
"514 3 OFFCURVE",
"564 2 OFFCURVE",
"602 2 CURVE",
"597 90 OFFCURVE",
"594 182 OFFCURVE",
"592 282 CURVE"
);
}
);
width = 926;
}
);
unicode = 006D;
},
{
glyphname = p;
lastChange = "2016-04-14 15:38:08 +0000";
layers = (
{
layerId = "7A0FC40B-77F8-4D14-AD08-D047673E78CB";
name = Regular;
paths = (
{
closed = 1;
nodes = (
"538 467 OFFCURVE",
"501 478 OFFCURVE",
"443 478 CURVE SMOOTH",
"399 478 OFFCURVE",
"352 468 OFFCURVE",
"296 430 CURVE",
"301 478 LINE",
"12 467 LINE",
"29 306 OFFCURVE",
"29 10 OFFCURVE",
"29 -154 CURVE",
"107 -146 OFFCURVE",
"192 -145 OFFCURVE",
"277 -144 CURVE",
"266 12 LINE",
"299 -10 LINE",
"402 -10 OFFCURVE",
"501 -5 OFFCURVE",
"585 36 CURVE",
"610 86 OFFCURVE",
"624 160 OFFCURVE",
"624 232 CURVE SMOOTH",
"624 322 OFFCURVE",
"614 385 OFFCURVE",
"577 449 CURVE"
);
},
{
closed = 1;
nodes = (
"291 314 OFFCURVE",
"316 310 OFFCURVE",
"339 301 CURVE",
"346 286 OFFCURVE",
"351 266 OFFCURVE",
"351 243 CURVE SMOOTH",
"351 209 OFFCURVE",
"341 179 OFFCURVE",
"331 160 CURVE",
"316 150 OFFCURVE",
"305 147 OFFCURVE",
"291 147 CURVE",
"273 206 OFFCURVE",
"270 255 OFFCURVE",
"270 314 CURVE"
);
}
);
width = 644;
}
);
unicode = 0070;
},
{
glyphname = q;
lastChange = "2016-04-14 15:38:08 +0000";
layers = (
{
layerId = "7A0FC40B-77F8-4D14-AD08-D047673E78CB";
name = Regular;
paths = (
{
closed = 1;
nodes = (
"342 -45 OFFCURVE",
"348 -100 OFFCURVE",
"349 -154 CURVE",
"427 -146 OFFCURVE",
"512 -145 OFFCURVE",
"597 -144 CURVE",
"603 70 OFFCURVE",
"620 255 OFFCURVE",
"620 475 CURVE",
"522 475 OFFCURVE",
"424 469 OFFCURVE",
"332 464 CURVE",
"332 464 OFFCURVE",
"332 454 OFFCURVE",
"333 440 CURVE",
"308 454 OFFCURVE",
"259 475 OFFCURVE",
"184 475 CURVE SMOOTH",
"133 475 OFFCURVE",
"94 468 OFFCURVE",
"51 453 CURVE",
"21 393 OFFCURVE",
"12 310 OFFCURVE",
"12 242 CURVE SMOOTH",
"12 148 OFFCURVE",
"29 82 OFFCURVE",
"50 21 CURVE",
"101 -3 OFFCURVE",
"145 -9 OFFCURVE",
"210 -9 CURVE SMOOTH",
"254 -9 OFFCURVE",
"300 -2 OFFCURVE",
"334 14 CURVE"
);
},
{
closed = 1;
nodes = (
"348 157 OFFCURVE",
"342 153 OFFCURVE",
"334 153 CURVE SMOOTH",
"324 153 OFFCURVE",
"312 153 OFFCURVE",
"304 162 CURVE",
"290 198 OFFCURVE",
"281 233 OFFCURVE",
"281 268 CURVE SMOOTH",
"281 286 OFFCURVE",
"283 302 OFFCURVE",
"289 321 CURVE",
"309 321 OFFCURVE",
"330 319 OFFCURVE",
"352 313 CURVE",
"354 294 OFFCURVE",
"358 278 OFFCURVE",
"358 260 CURVE SMOOTH",
"358 222 OFFCURVE",
"357 189 OFFCURVE",
"354 158 CURVE"
);
}
);
width = 632;
}
);
unicode = 0071;
},
{
glyphname = r;
lastChange = "2016-04-14 15:38:08 +0000";
layers = (
{
layerId = "7A0FC40B-77F8-4D14-AD08-D047673E78CB";
name = Regular;
paths = (
{
closed = 1;
nodes = (
"496 301 OFFCURVE",
"493 344 OFFCURVE",
"493 386 CURVE SMOOTH",
"493 413 OFFCURVE",
"494 439 OFFCURVE",
"497 465 CURVE",
"470 473 OFFCURVE",
"445 478 OFFCURVE",
"403 478 CURVE SMOOTH",
"371 478 OFFCURVE",
"336 468 OFFCURVE",
"296 430 CURVE",
"301 478 LINE",
"12 467 LINE",
"29 306 OFFCURVE",
"29 154 OFFCURVE",
"29 -10 CURVE",
"107 -2 OFFCURVE",
"194 -1 OFFCURVE",
"279 0 CURVE",
"270 250 LINE",
"310 264 OFFCURVE",
"358 270 OFFCURVE",
"404 270 CURVE SMOOTH",
"438 270 OFFCURVE",
"469 266 OFFCURVE",
"504 258 CURVE"
);
}
);
width = 508;
}
);
unicode = 0072;
},
{
glyphname = s;
lastChange = "2016-04-14 15:38:08 +0000";
layers = (
{
layerId = "7A0FC40B-77F8-4D14-AD08-D047673E78CB";
name = Regular;
paths = (
{
closed = 1;
nodes = (
"18 273 OFFCURVE",
"26 227 OFFCURVE",
"50 194 CURVE",
"107 174 OFFCURVE",
"136 174 OFFCURVE",
"176 166 CURVE",
"182 158 OFFCURVE",
"186 148 OFFCURVE",
"186 134 CURVE",
"158 131 OFFCURVE",
"134 130 OFFCURVE",
"110 130 CURVE SMOOTH",
"81 130 OFFCURVE",
"54 133 OFFCURVE",
"34 138 CURVE",
"32 100 OFFCURVE",
"26 51 OFFCURVE",
"12 12 CURVE",
"70 -2 OFFCURVE",
"125 -10 OFFCURVE",
"194 -10 CURVE SMOOTH",
"278 -10 OFFCURVE",
"362 -5 OFFCURVE",
"431 36 CURVE",
"462 71 OFFCURVE",
"470 122 OFFCURVE",
"470 160 CURVE SMOOTH",
"470 194 OFFCURVE",
"467 238 OFFCURVE",
"439 278 CURVE",
"390 290 OFFCURVE",
"343 295 OFFCURVE",
"292 298 CURVE",
"290 302 OFFCURVE",
"288 309 OFFCURVE",
"288 320 CURVE",
"325 324 OFFCURVE",
"351 325 OFFCURVE",
"382 325 CURVE SMOOTH",
"402 325 OFFCURVE",
"430 322 OFFCURVE",
"447 321 CURVE",
"447 358 OFFCURVE",
"454 418 OFFCURVE",
"469 464 CURVE",
"410 478 OFFCURVE",
"359 485 OFFCURVE",
"300 485 CURVE SMOOTH",
"206 485 OFFCURVE",
"126 473 OFFCURVE",
"51 446 CURVE",
"22 402 OFFCURVE",
"18 356 OFFCURVE",
"18 320 CURVE SMOOTH"
);
}
);
width = 474;
}
);
unicode = 0073;
},
{
glyphname = t;
lastChange = "2016-04-14 15:38:08 +0000";
layers = (
{
layerId = "7A0FC40B-77F8-4D14-AD08-D047673E78CB";
name = Regular;
paths = (
{
closed = 1;
nodes = (
"83 247 LINE",
"89 162 OFFCURVE",
"98 86 OFFCURVE",
"112 42 CURVE",
"177 6 OFFCURVE",
"262 -10 OFFCURVE",
"342 -10 CURVE SMOOTH",
"403 -10 OFFCURVE",
"446 27 OFFCURVE",
"446 27 CURVE",
"450 62 OFFCURVE",
"453 95 OFFCURVE",
"453 139 CURVE",
"453 139 OFFCURVE",
"431 129 OFFCURVE",
"406 129 CURVE SMOOTH",
"390 129 OFFCURVE",
"368 132 OFFCURVE",
"350 146 CURVE",
"344 180 OFFCURVE",
"340 224 OFFCURVE",
"337 261 CURVE",
"454 254 LINE",
"454 424 LINE",
"353 418 LINE",
"353 443 OFFCURVE",
"353 476 OFFCURVE",
"363 507 CURVE",
"270 507 OFFCURVE",
"178 494 OFFCURVE",
"91 480 CURVE",
"78 448 OFFCURVE",
"74 415 OFFCURVE",
"74 394 CURVE",
"26 392 LINE",
"19 250 LINE"
);
}
);
width = 470;
}
);
unicode = 0074;
},
{
glyphname = u;
lastChange = "2016-04-14 15:38:08 +0000";
layers = (
{
layerId = "7A0FC40B-77F8-4D14-AD08-D047673E78CB";
name = Regular;
paths = (
{
closed = 1;
nodes = (
"350 226 LINE",
"330 208 OFFCURVE",
"312 201 OFFCURVE",
"291 201 CURVE",
"286 243 OFFCURVE",
"282 291 OFFCURVE",
"282 349 CURVE SMOOTH",
"282 383 OFFCURVE",
"284 429 OFFCURVE",
"290 478 CURVE",
"235 471 OFFCURVE",
"182 470 OFFCURVE",
"132 470 CURVE SMOOTH",
"98 470 OFFCURVE",
"62 470 OFFCURVE",
"28 471 CURVE",
"20 421 OFFCURVE",
"20 308 OFFCURVE",
"20 236 CURVE SMOOTH",
"20 149 OFFCURVE",
"26 89 OFFCURVE",
"51 27 CURVE",
"87 4 OFFCURVE",
"122 -10 OFFCURVE",
"177 -10 CURVE SMOOTH",
"221 -10 OFFCURVE",
"268 0 OFFCURVE",
"324 38 CURVE",
"319 -10 LINE",
"608 1 LINE",
"599 164 OFFCURVE",
"599 317 OFFCURVE",
"599 482 CURVE",
"516 474 OFFCURVE",
"429 473 OFFCURVE",
"339 472 CURVE"
);
}
);
width = 624;
}
);
unicode = 0075;
},
{
glyphname = v;
lastChange = "2016-04-14 15:38:08 +0000";
layers = (
{
layerId = "7A0FC40B-77F8-4D14-AD08-D047673E78CB";
name = Regular;
paths = (
{
closed = 1;
nodes = (
"440 1 LINE",
"474 164 OFFCURVE",
"527 317 OFFCURVE",
"607 482 CURVE",
"519 474 OFFCURVE",
"426 473 OFFCURVE",
"331 472 CURVE",
"331 386 OFFCURVE",
"324 297 OFFCURVE",
"307 217 CURVE",
"278 300 OFFCURVE",
"269 389 OFFCURVE",
"266 478 CURVE",
"211 471 OFFCURVE",
"158 470 OFFCURVE",
"108 470 CURVE SMOOTH",
"74 470 OFFCURVE",
"38 470 OFFCURVE",
"4 471 CURVE",
"54 298 OFFCURVE",
"119 159 OFFCURVE",
"151 -10 CURVE"
);
}
);
width = 611;
}
);
unicode = 0076;
},
{
glyphname = w;
lastChange = "2016-04-14 15:38:08 +0000";
layers = (
{
layerId = "7A0FC40B-77F8-4D14-AD08-D047673E78CB";
name = Regular;
paths = (
{
closed = 1;
nodes = (
"744 1 LINE",
"778 164 OFFCURVE",
"831 317 OFFCURVE",
"911 482 CURVE",
"826 474 OFFCURVE",
"735 473 OFFCURVE",
"643 472 CURVE",
"643 386 OFFCURVE",
"634 297 OFFCURVE",
"611 217 CURVE",
"587 300 OFFCURVE",
"580 389 OFFCURVE",
"578 478 CURVE",
"526 471 OFFCURVE",
"476 470 OFFCURVE",
"428 470 CURVE SMOOTH",
"394 470 OFFCURVE",
"360 470 OFFCURVE",
"323 472 CURVE",
"323 386 OFFCURVE",
"314 297 OFFCURVE",
"291 217 CURVE",
"267 300 OFFCURVE",
"260 389 OFFCURVE",
"258 478 CURVE",
"206 471 OFFCURVE",
"156 470 OFFCURVE",
"108 470 CURVE SMOOTH",
"74 470 OFFCURVE",
"38 470 OFFCURVE",
"4 471 CURVE",
"50 298 OFFCURVE",
"106 159 OFFCURVE",
"135 -10 CURVE",
"400 1 LINE",
"411 74 OFFCURVE",
"426 155 OFFCURVE",
"442 227 CURVE",
"456 153 OFFCURVE",
"470 68 OFFCURVE",
"479 -10 CURVE"
);
}
);
width = 915;
}
);
unicode = 0077;
},
{
glyphname = x;
lastChange = "2016-04-14 15:38:08 +0000";
layers = (
{
layerId = "7A0FC40B-77F8-4D14-AD08-D047673E78CB";
name = Regular;
paths = (
{
closed = 1;
nodes = (
"519 474 OFFCURVE",
"426 473 OFFCURVE",
"331 472 CURVE",
"331 417 OFFCURVE",
"324 370 OFFCURVE",
"307 321 CURVE",
"278 373 OFFCURVE",
"269 425 OFFCURVE",
"266 478 CURVE",
"211 471 OFFCURVE",
"158 470 OFFCURVE",
"108 470 CURVE SMOOTH",
"74 470 OFFCURVE",
"38 470 OFFCURVE",
"4 471 CURVE",
"32 375 OFFCURVE",
"65 290 OFFCURVE",
"89 198 CURVE",
"66 130 OFFCURVE",
"38 63 OFFCURVE",
"4 -10 CURVE",
"92 -2 OFFCURVE",
"186 -1 OFFCURVE",
"280 0 CURVE",
"280 55 OFFCURVE",
"287 102 OFFCURVE",
"304 151 CURVE",
"334 99 OFFCURVE",
"342 47 OFFCURVE",
"346 -6 CURVE",
"400 1 OFFCURVE",
"453 2 OFFCURVE",
"503 2 CURVE SMOOTH",
"538 2 OFFCURVE",
"573 2 OFFCURVE",
"607 1 CURVE",
"579 96 OFFCURVE",
"546 182 OFFCURVE",
"522 274 CURVE",
"544 342 OFFCURVE",
"572 409 OFFCURVE",
"607 482 CURVE"
);
}
);
width = 611;
}
);
unicode = 0078;
},
{
glyphname = y;
lastChange = "2016-04-14 15:38:08 +0000";
layers = (
{
layerId = "7A0FC40B-77F8-4D14-AD08-D047673E78CB";
name = Regular;
paths = (
{
closed = 1;
nodes = (
"519 474 OFFCURVE",
"426 473 OFFCURVE",
"331 472 CURVE",
"331 386 OFFCURVE",
"324 297 OFFCURVE",
"307 217 CURVE",
"278 300 OFFCURVE",
"269 389 OFFCURVE",
"266 478 CURVE",
"211 471 OFFCURVE",
"158 470 OFFCURVE",
"108 470 CURVE SMOOTH",
"74 470 OFFCURVE",
"38 470 OFFCURVE",
"4 471 CURVE",
"43 314 OFFCURVE",
"85 189 OFFCURVE",
"114 46 CURVE",
"158 34 OFFCURVE",
"214 23 OFFCURVE",
"258 11 CURVE",
"191 2 OFFCURVE",
"106 2 OFFCURVE",
"42 2 CURVE",
"57 -46 OFFCURVE",
"64 -102 OFFCURVE",
"66 -153 CURVE",
"211 -153 OFFCURVE",
"348 -134 OFFCURVE",
"463 -93 CURVE",
"489 103 OFFCURVE",
"532 286 OFFCURVE",
"607 482 CURVE"
);
}
);
width = 611;
}
);
unicode = 0079;
},
{
glyphname = z;
lastChange = "2016-04-14 15:38:08 +0000";
layers = (
{
layerId = "7A0FC40B-77F8-4D14-AD08-D047673E78CB";
name = Regular;
paths = (
{
closed = 1;
nodes = (
"17 330 LINE",
"157 318 LINE",
"130 256 OFFCURVE",
"66 186 OFFCURVE",
"12 130 CURVE",
"12 0 LINE",
"170 0 OFFCURVE",
"315 -2 OFFCURVE",
"462 -10 CURVE",
"478 154 LINE",
"321 146 LINE",
"358 215 OFFCURVE",
"410 279 OFFCURVE",
"470 349 CURVE",
"462 480 LINE",
"332 471 OFFCURVE",
"191 468 OFFCURVE",
"33 468 CURVE"
);
}
);
width = 494;
}
);
unicode = 007A;
},
{
glyphname = acute;
lastChange = "2016-04-14 15:42:29 +0000";
layers = (
{
layerId = "7A0FC40B-77F8-4D14-AD08-D047673E78CB";
name = Regular;
paths = (
{
closed = 1;
nodes = (
"-6 509 OFFCURVE",
"5 474 OFFCURVE",
"7 438 CURVE",
"123 455 OFFCURVE",
"244 462 OFFCURVE",
"357 466 CURVE",
"346 510 OFFCURVE",
"338 549 OFFCURVE",
"334 601 CURVE",
"232 575 OFFCURVE",
"90 557 OFFCURVE",
"-21 546 CURVE"
);
}
);
width = 366;
}
);
unicode = 00B4;
},
{
glyphname = a_peq;
lastChange = "2016-04-14 15:38:08 +0000";
layers = (
{
layerId = "7A0FC40B-77F8-4D14-AD08-D047673E78CB";
name = Regular;
paths = (
{
closed = 1;
nodes = (
"22 222 OFFCURVE",
"12 194 OFFCURVE",
"12 147 CURVE SMOOTH",
"12 101 OFFCURVE",
"21 47 OFFCURVE",
"51 9 CURVE",
"94 -6 OFFCURVE",
"133 -14 OFFCURVE",
"184 -14 CURVE SMOOTH",
"259 -14 OFFCURVE",
"308 2 OFFCURVE",
"333 14 CURVE",
"332 -1 OFFCURVE",
"332 -10 OFFCURVE",
"332 -10 CURVE",
"419 -3 OFFCURVE",
"510 2 OFFCURVE",
"604 2 CURVE",
"608 30 OFFCURVE",
"614 93 OFFCURVE",
"614 160 CURVE SMOOTH",
"614 249 OFFCURVE",
"603 346 OFFCURVE",
"559 385 CURVE",
"478 422 OFFCURVE",
"374 429 OFFCURVE",
"274 429 CURVE SMOOTH",
"145 429 OFFCURVE",
"57 407 OFFCURVE",
"57 407 CURVE",
"76 371 OFFCURVE",
"93 334 OFFCURVE",
"98 287 CURVE",
"98 287 OFFCURVE",
"157 298 OFFCURVE",
"234 298 CURVE SMOOTH",
"259 298 OFFCURVE",
"294 294 OFFCURVE",
"322 289 CURVE",
"330 281 OFFCURVE",
"334 272 OFFCURVE",
"334 259 CURVE",
"298 266 OFFCURVE",
"252 270 OFFCURVE",
"206 270 CURVE SMOOTH",
"136 270 OFFCURVE",
"88 266 OFFCURVE",
"34 248 CURVE"
);
},
{
closed = 1;
nodes = (
"358 150 OFFCURVE",
"356 138 OFFCURVE",
"350 123 CURVE",
"337 120 OFFCURVE",
"326 118 OFFCURVE",
"310 118 CURVE SMOOTH",
"298 118 OFFCURVE",
"285 120 OFFCURVE",
"276 124 CURVE",
"274 130 OFFCURVE",
"273 137 OFFCURVE",
"273 146 CURVE SMOOTH",
"273 154 OFFCURVE",
"274 161 OFFCURVE",
"278 166 CURVE",
"290 170 OFFCURVE",
"306 171 OFFCURVE",
"316 171 CURVE SMOOTH",
"332 171 OFFCURVE",
"343 170 OFFCURVE",
"359 166 CURVE"
);
}
);
width = 632;
}
);
},
{
glyphname = aacute;
lastChange = "2016-04-14 15:41:28 +0000";
layers = (
{
layerId = "7A0FC40B-77F8-4D14-AD08-D047673E78CB";
name = Regular;
paths = (
{
closed = 1;
nodes = (
"22 222 OFFCURVE",
"12 194 OFFCURVE",
"12 147 CURVE SMOOTH",
"12 101 OFFCURVE",
"21 47 OFFCURVE",
"51 9 CURVE",
"94 -6 OFFCURVE",
"133 -14 OFFCURVE",
"184 -14 CURVE SMOOTH",
"259 -14 OFFCURVE",
"308 2 OFFCURVE",
"333 14 CURVE",
"332 -1 OFFCURVE",
"332 -10 OFFCURVE",
"332 -10 CURVE",
"419 -3 OFFCURVE",
"510 2 OFFCURVE",
"604 2 CURVE",
"608 30 OFFCURVE",
"614 93 OFFCURVE",
"614 160 CURVE SMOOTH",
"614 249 OFFCURVE",
"603 346 OFFCURVE",
"559 385 CURVE",
"478 422 OFFCURVE",
"374 429 OFFCURVE",
"274 429 CURVE SMOOTH",
"145 429 OFFCURVE",
"57 407 OFFCURVE",
"57 407 CURVE",
"76 371 OFFCURVE",
"93 334 OFFCURVE",
"98 287 CURVE",
"98 287 OFFCURVE",
"157 298 OFFCURVE",
"234 298 CURVE SMOOTH",
"259 298 OFFCURVE",
"294 294 OFFCURVE",
"322 289 CURVE",
"330 281 OFFCURVE",
"334 272 OFFCURVE",
"334 259 CURVE",
"298 266 OFFCURVE",
"252 270 OFFCURVE",
"206 270 CURVE SMOOTH",
"136 270 OFFCURVE",
"88 266 OFFCURVE",
"34 248 CURVE"
);
},
{
closed = 1;
nodes = (
"358 150 OFFCURVE",
"356 138 OFFCURVE",
"350 123 CURVE",
"337 120 OFFCURVE",
"326 118 OFFCURVE",
"310 118 CURVE SMOOTH",
"298 118 OFFCURVE",
"285 120 OFFCURVE",
"276 124 CURVE",
"274 130 OFFCURVE",
"273 137 OFFCURVE",
"273 146 CURVE SMOOTH",
"273 154 OFFCURVE",
"274 161 OFFCURVE",
"278 166 CURVE",
"290 170 OFFCURVE",
"306 171 OFFCURVE",
"316 171 CURVE SMOOTH",
"332 171 OFFCURVE",
"343 170 OFFCURVE",
"359 166 CURVE"
);
},
{
closed = 1;
nodes = (
"159 509 OFFCURVE",
"170 474 OFFCURVE",
"172 438 CURVE",
"288 455 OFFCURVE",
"409 462 OFFCURVE",
"522 466 CURVE",
"511 510 OFFCURVE",
"503 549 OFFCURVE",
"499 601 CURVE",
"397 575 OFFCURVE",
"255 557 OFFCURVE",
"144 546 CURVE"
);
}
);
width = 632;
}
);
unicode = 00E1;
},
{
glyphname = e_peq;
lastChange = "2016-04-14 15:38:08 +0000";
layers = (
{
layerId = "7A0FC40B-77F8-4D14-AD08-D047673E78CB";
name = Regular;
paths = (
{
closed = 1;
nodes = (
"437 170 OFFCURVE",
"516 171 OFFCURVE",
"581 180 CURVE",
"596 211 OFFCURVE",
"604 261 OFFCURVE",
"604 304 CURVE SMOOTH",
"604 338 OFFCURVE",
"599 374 OFFCURVE",
"581 404 CURVE",
"486 423 OFFCURVE",
"418 433 OFFCURVE",
"324 433 CURVE SMOOTH",
"221 433 OFFCURVE",
"134 424 OFFCURVE",
"51 402 CURVE",
"14 342 OFFCURVE",
"4 286 OFFCURVE",
"4 224 CURVE SMOOTH",
"4 155 OFFCURVE",
"18 84 OFFCURVE",
"43 36 CURVE",
"137 -5 OFFCURVE",
"245 -10 OFFCURVE",
"361 -10 CURVE SMOOTH",
"446 -10 OFFCURVE",
"513 0 OFFCURVE",
"582 16 CURVE",
"569 55 OFFCURVE",
"562 104 OFFCURVE",
"561 142 CURVE",
"519 134 OFFCURVE",
"470 130 OFFCURVE",
"413 130 CURVE SMOOTH",
"377 130 OFFCURVE",
"340 133 OFFCURVE",
"297 142 CURVE",
"293 151 OFFCURVE",
"289 162 OFFCURVE",
"286 173 CURVE",
"309 170 OFFCURVE",
"333 170 OFFCURVE",
"359 170 CURVE SMOOTH"
);
},
{
closed = 1;
nodes = (
"365 302 OFFCURVE",
"366 292 OFFCURVE",
"367 278 CURVE",
"329 274 OFFCURVE",
"295 274 OFFCURVE",
"263 274 CURVE",
"265 284 OFFCURVE",
"268 295 OFFCURVE",
"272 304 CURVE",
"306 314 OFFCURVE",
"330 317 OFFCURVE",
"359 317 CURVE"
);
}
);
width = 616;
}
);
},
{
glyphname = eacute;
lastChange = "2016-04-14 15:41:28 +0000";
layers = (
{
layerId = "7A0FC40B-77F8-4D14-AD08-D047673E78CB";
name = Regular;
paths = (
{
closed = 1;
nodes = (
"437 170 OFFCURVE",
"516 171 OFFCURVE",
"581 180 CURVE",
"596 211 OFFCURVE",
"604 261 OFFCURVE",
"604 304 CURVE SMOOTH",
"604 338 OFFCURVE",
"599 374 OFFCURVE",
"581 404 CURVE",
"486 423 OFFCURVE",
"418 433 OFFCURVE",
"324 433 CURVE SMOOTH",
"221 433 OFFCURVE",
"134 424 OFFCURVE",
"51 402 CURVE",
"14 342 OFFCURVE",
"4 286 OFFCURVE",
"4 224 CURVE SMOOTH",
"4 155 OFFCURVE",
"18 84 OFFCURVE",
"43 36 CURVE",
"137 -5 OFFCURVE",
"245 -10 OFFCURVE",
"361 -10 CURVE SMOOTH",
"446 -10 OFFCURVE",
"513 0 OFFCURVE",
"582 16 CURVE",
"569 55 OFFCURVE",
"562 104 OFFCURVE",
"561 142 CURVE",
"519 134 OFFCURVE",
"470 130 OFFCURVE",
"413 130 CURVE SMOOTH",
"377 130 OFFCURVE",
"340 133 OFFCURVE",
"297 142 CURVE",
"293 151 OFFCURVE",
"289 162 OFFCURVE",
"286 173 CURVE",
"309 170 OFFCURVE",
"333 170 OFFCURVE",
"359 170 CURVE SMOOTH"
);
},
{
closed = 1;
nodes = (
"365 302 OFFCURVE",
"366 292 OFFCURVE",
"367 278 CURVE",
"329 274 OFFCURVE",
"295 274 OFFCURVE",
"263 274 CURVE",
"265 284 OFFCURVE",
"268 295 OFFCURVE",
"272 304 CURVE",
"306 314 OFFCURVE",
"330 317 OFFCURVE",
"359 317 CURVE"
);
},
{
closed = 1;
nodes = (
"151 509 OFFCURVE",
"162 474 OFFCURVE",
"164 438 CURVE",
"280 455 OFFCURVE",
"401 462 OFFCURVE",
"514 466 CURVE",
"503 510 OFFCURVE",
"495 549 OFFCURVE",
"491 601 CURVE",
"389 575 OFFCURVE",
"247 557 OFFCURVE",
"136 546 CURVE"
);
}
);
width = 616;
}
);
unicode = 00E9;
},
{
glyphname = dotlessi;
lastChange = "2016-04-14 15:38:08 +0000";
layers = (
{
layerId = "7A0FC40B-77F8-4D14-AD08-D047673E78CB";
name = Regular;
paths = (
{
closed = 1;
nodes = (
"277 416 LINE",
"217 407 OFFCURVE",
"150 407 OFFCURVE",
"85 407 CURVE SMOOTH",
"64 407 OFFCURVE",
"43 407 OFFCURVE",
"23 408 CURVE",
"29 270 OFFCURVE",
"29 129 OFFCURVE",
"29 -10 CURVE",
"107 -2 OFFCURVE",
"200 -1 OFFCURVE",
"285 0 CURVE"
);
}
);
width = 321;
}
);
unicode = 0131;
},
{
glyphname = iacute;
lastChange = "2016-04-14 15:41:28 +0000";
layers = (
{
layerId = "7A0FC40B-77F8-4D14-AD08-D047673E78CB";
name = Regular;
paths = (
{
closed = 1;
nodes = (
"277 416 LINE",
"217 407 OFFCURVE",
"150 407 OFFCURVE",
"85 407 CURVE SMOOTH",
"64 407 OFFCURVE",
"43 407 OFFCURVE",
"23 408 CURVE",
"29 270 OFFCURVE",
"29 129 OFFCURVE",
"29 -10 CURVE",
"107 -2 OFFCURVE",
"200 -1 OFFCURVE",
"285 0 CURVE"
);
},
{
closed = 1;
nodes = (
"4 509 OFFCURVE",
"15 474 OFFCURVE",
"17 438 CURVE",
"133 455 OFFCURVE",
"254 462 OFFCURVE",
"367 466 CURVE",
"356 510 OFFCURVE",
"348 549 OFFCURVE",
"344 601 CURVE",
"242 575 OFFCURVE",
"100 557 OFFCURVE",
"-11 546 CURVE"
);
}
);
width = 321;
}
);
unicode = 00ED;
},
{
glyphname = oacute;
lastChange = "2016-04-14 15:41:28 +0000";
layers = (
{
layerId = "7A0FC40B-77F8-4D14-AD08-D047673E78CB";
name = Regular;
paths = (
{
closed = 1;
nodes = (
"443 -10 OFFCURVE",
"533 10 OFFCURVE",
"592 50 CURVE",
"618 101 OFFCURVE",
"633 146 OFFCURVE",
"633 223 CURVE SMOOTH",
"633 293 OFFCURVE",
"622 336 OFFCURVE",
"601 379 CURVE",
"541 414 OFFCURVE",
"447 430 OFFCURVE",
"327 430 CURVE SMOOTH",
"208 430 OFFCURVE",
"117 415 OFFCURVE",
"56 386 CURVE",
"28 343 OFFCURVE",
"12 292 OFFCURVE",
"12 217 CURVE SMOOTH",
"12 126 OFFCURVE",
"34 71 OFFCURVE",
"77 26 CURVE",
"134 2 OFFCURVE",
"217 -10 OFFCURVE",
"318 -10 CURVE SMOOTH"
);
},
{
closed = 1;
nodes = (
"299 287 OFFCURVE",
"310 291 OFFCURVE",
"328 291 CURVE SMOOTH",
"339 291 OFFCURVE",
"348 291 OFFCURVE",
"355 285 CURVE",
"363 272 OFFCURVE",
"367 248 OFFCURVE",
"367 213 CURVE SMOOTH",
"367 172 OFFCURVE",
"364 140 OFFCURVE",
"353 124 CURVE",
"345 117 OFFCURVE",
"334 114 OFFCURVE",
"319 114 CURVE SMOOTH",
"302 114 OFFCURVE",
"292 117 OFFCURVE",
"286 124 CURVE",
"277 138 OFFCURVE",
"277 164 OFFCURVE",
"277 203 CURVE SMOOTH",
"277 230 OFFCURVE",
"280 254 OFFCURVE",
"289 279 CURVE"
);
},
{
closed = 1;
nodes = (
"176 509 OFFCURVE",
"187 474 OFFCURVE",
"189 438 CURVE",
"305 455 OFFCURVE",
"426 462 OFFCURVE",
"539 466 CURVE",
"528 510 OFFCURVE",
"520 549 OFFCURVE",
"516 601 CURVE",
"414 575 OFFCURVE",
"272 557 OFFCURVE",
"161 546 CURVE"
);
}
);
width = 645;
}
);
unicode = 00F3;
},
{
glyphname = o_peq;
lastChange = "2016-04-14 15:38:08 +0000";
layers = (
{
layerId = "7A0FC40B-77F8-4D14-AD08-D047673E78CB";
name = Regular;
paths = (
{
closed = 1;
nodes = (
"443 -10 OFFCURVE",
"533 10 OFFCURVE",
"592 50 CURVE",
"618 101 OFFCURVE",
"633 146 OFFCURVE",
"633 223 CURVE SMOOTH",
"633 293 OFFCURVE",
"622 336 OFFCURVE",
"601 379 CURVE",
"541 414 OFFCURVE",
"447 430 OFFCURVE",
"327 430 CURVE SMOOTH",
"208 430 OFFCURVE",
"117 415 OFFCURVE",
"56 386 CURVE",
"28 343 OFFCURVE",
"12 292 OFFCURVE",
"12 217 CURVE SMOOTH",
"12 126 OFFCURVE",
"34 71 OFFCURVE",
"77 26 CURVE",
"134 2 OFFCURVE",
"217 -10 OFFCURVE",
"318 -10 CURVE SMOOTH"
);
},
{
closed = 1;
nodes = (
"299 287 OFFCURVE",
"310 291 OFFCURVE",
"328 291 CURVE SMOOTH",
"339 291 OFFCURVE",
"348 291 OFFCURVE",
"355 285 CURVE",
"363 272 OFFCURVE",
"367 248 OFFCURVE",
"367 213 CURVE SMOOTH",
"367 172 OFFCURVE",
"364 140 OFFCURVE",
"353 124 CURVE",
"345 117 OFFCURVE",
"334 114 OFFCURVE",
"319 114 CURVE SMOOTH",
"302 114 OFFCURVE",
"292 117 OFFCURVE",
"286 124 CURVE",
"277 138 OFFCURVE",
"277 164 OFFCURVE",
"277 203 CURVE SMOOTH",
"277 230 OFFCURVE",
"280 254 OFFCURVE",
"289 279 CURVE"
);
}
);
width = 645;
}
);
},
{
glyphname = u_peq;
lastChange = "2016-04-14 15:38:08 +0000";
layers = (
{
layerId = "7A0FC40B-77F8-4D14-AD08-D047673E78CB";
name = Regular;
paths = (
{
closed = 1;
nodes = (
"350 226 LINE",
"330 208 OFFCURVE",
"312 201 OFFCURVE",
"291 201 CURVE",
"286 231 OFFCURVE",
"282 267 OFFCURVE",
"282 309 CURVE SMOOTH",
"282 341 OFFCURVE",
"284 384 OFFCURVE",
"290 430 CURVE",
"235 425 OFFCURVE",
"184 422 OFFCURVE",
"132 422 CURVE SMOOTH",
"98 422 OFFCURVE",
"62 422 OFFCURVE",
"28 423 CURVE",
"22 359 OFFCURVE",
"20 294 OFFCURVE",
"20 236 CURVE SMOOTH",
"20 149 OFFCURVE",
"26 89 OFFCURVE",
"51 27 CURVE",
"87 4 OFFCURVE",
"122 -10 OFFCURVE",
"177 -10 CURVE SMOOTH",
"221 -10 OFFCURVE",
"268 0 OFFCURVE",
"324 38 CURVE",
"319 -10 LINE",
"608 1 LINE",
"599 152 OFFCURVE",
"599 289 OFFCURVE",
"599 442 CURVE",
"516 432 OFFCURVE",
"429 432 OFFCURVE",
"339 432 CURVE"
);
}
);
width = 624;
}
);
},
{
glyphname = uacute;
lastChange = "2016-04-14 15:41:28 +0000";
layers = (
{
layerId = "7A0FC40B-77F8-4D14-AD08-D047673E78CB";
name = Regular;
paths = (
{
closed = 1;
nodes = (
"350 226 LINE",
"330 208 OFFCURVE",
"312 201 OFFCURVE",
"291 201 CURVE",
"286 231 OFFCURVE",
"282 267 OFFCURVE",
"282 309 CURVE SMOOTH",
"282 341 OFFCURVE",
"284 384 OFFCURVE",
"290 430 CURVE",
"235 425 OFFCURVE",
"184 422 OFFCURVE",
"132 422 CURVE SMOOTH",
"98 422 OFFCURVE",
"62 422 OFFCURVE",
"28 423 CURVE",
"22 359 OFFCURVE",
"20 294 OFFCURVE",
"20 236 CURVE SMOOTH",
"20 149 OFFCURVE",
"26 89 OFFCURVE",
"51 27 CURVE",
"87 4 OFFCURVE",
"122 -10 OFFCURVE",
"177 -10 CURVE SMOOTH",
"221 -10 OFFCURVE",
"268 0 OFFCURVE",
"324 38 CURVE",
"319 -10 LINE",
"608 1 LINE",
"599 152 OFFCURVE",
"599 289 OFFCURVE",
"599 442 CURVE",
"516 432 OFFCURVE",
"429 432 OFFCURVE",
"339 432 CURVE"
);
},
{
closed = 1;
nodes = (
"126 509 OFFCURVE",
"137 474 OFFCURVE",
"139 438 CURVE",
"255 455 OFFCURVE",
"376 462 OFFCURVE",
"489 466 CURVE",
"478 510 OFFCURVE",
"470 549 OFFCURVE",
"466 601 CURVE",
"364 575 OFFCURVE",
"222 557 OFFCURVE",
"111 546 CURVE"
);
}
);
width = 624;
}
);
unicode = 00FA;
},
{
glyphname = dotaccent;
lastChange = "2016-04-14 15:42:29 +0000";
layers = (
{
layerId = "7A0FC40B-77F8-4D14-AD08-D047673E78CB";
name = Regular;
paths = (
{
closed = 1;
nodes = (
"285 594 LINE",
"28 583 LINE",
"37 525 OFFCURVE",
"38 480 OFFCURVE",
"38 434 CURVE",
"70 436 OFFCURVE",
"102 438 OFFCURVE",
"138 438 CURVE SMOOTH",
"173 438 OFFCURVE",
"210 436 OFFCURVE",
"249 431 CURVE"
);
}
);
width = 313;
}
);
unicode = 02D9;
},
{
glyphname = edotaccent;
lastChange = "2016-04-14 15:41:28 +0000";
layers = (
{
layerId = "7A0FC40B-77F8-4D14-AD08-D047673E78CB";
name = Regular;
paths = (
{
closed = 1;
nodes = (
"437 170 OFFCURVE",
"516 171 OFFCURVE",
"581 180 CURVE",
"596 211 OFFCURVE",
"604 261 OFFCURVE",
"604 304 CURVE SMOOTH",
"604 338 OFFCURVE",
"599 374 OFFCURVE",
"581 404 CURVE",
"486 423 OFFCURVE",
"418 433 OFFCURVE",
"324 433 CURVE SMOOTH",
"221 433 OFFCURVE",
"134 424 OFFCURVE",
"51 402 CURVE",
"14 342 OFFCURVE",
"4 286 OFFCURVE",
"4 224 CURVE SMOOTH",
"4 155 OFFCURVE",
"18 84 OFFCURVE",
"43 36 CURVE",
"137 -5 OFFCURVE",
"245 -10 OFFCURVE",
"361 -10 CURVE SMOOTH",
"446 -10 OFFCURVE",
"513 0 OFFCURVE",
"582 16 CURVE",
"569 55 OFFCURVE",
"562 104 OFFCURVE",
"561 142 CURVE",
"519 134 OFFCURVE",
"470 130 OFFCURVE",
"413 130 CURVE SMOOTH",
"377 130 OFFCURVE",
"340 133 OFFCURVE",
"297 142 CURVE",
"293 151 OFFCURVE",
"289 162 OFFCURVE",
"286 173 CURVE",
"309 170 OFFCURVE",
"333 170 OFFCURVE",
"359 170 CURVE SMOOTH"
);
},
{
closed = 1;
nodes = (
"365 302 OFFCURVE",
"366 292 OFFCURVE",
"367 278 CURVE",
"329 274 OFFCURVE",
"295 274 OFFCURVE",
"263 274 CURVE",
"265 284 OFFCURVE",
"268 295 OFFCURVE",
"272 304 CURVE",
"306 314 OFFCURVE",
"330 317 OFFCURVE",
"359 317 CURVE"
);
},
{
closed = 1;
nodes = (
"436 626 LINE",
"179 615 LINE",
"188 557 OFFCURVE",
"189 512 OFFCURVE",
"189 466 CURVE",
"221 468 OFFCURVE",
"253 470 OFFCURVE",
"289 470 CURVE SMOOTH",
"324 470 OFFCURVE",
"361 468 OFFCURVE",
"400 463 CURVE"
);
}
);
width = 616;
}
);
unicode = 0117;
},
{
glyphname = one;
lastChange = "2016-04-14 15:38:08 +0000";
layers = (
{
layerId = "7A0FC40B-77F8-4D14-AD08-D047673E78CB";
name = Regular;
paths = (
{
closed = 1;
nodes = (
"381 554 LINE",
"314 554 OFFCURVE",
"244 558 OFFCURVE",
"178 563 CURVE",
"28 511 LINE",
"36 463 OFFCURVE",
"38 422 OFFCURVE",
"38 378 CURVE",
"66 385 OFFCURVE",
"94 395 OFFCURVE",
"126 399 CURVE",
"129 264 OFFCURVE",
"129 123 OFFCURVE",
"129 -10 CURVE",
"207 -2 OFFCURVE",
"304 -1 OFFCURVE",
"389 0 CURVE",
"374 459 LINE"
);
}
);
width = 417;
}
);
unicode = 0031;
},
{
glyphname = seven;
lastChange = "2016-04-14 15:38:08 +0000";
layers = (
{
layerId = "7A0FC40B-77F8-4D14-AD08-D047673E78CB";
name = Regular;
paths = (
{
closed = 1;
nodes = (
"517 570 LINE",
"366 562 OFFCURVE",
"189 560 OFFCURVE",
"28 559 CURVE",
"38 497 OFFCURVE",
"38 444 OFFCURVE",
"38 386 CURVE",
"75 391 OFFCURVE",
"108 394 OFFCURVE",
"146 394 CURVE SMOOTH",
"172 394 OFFCURVE",
"202 394 OFFCURVE",
"230 391 CURVE",
"166 254 OFFCURVE",
"119 153 OFFCURVE",
"49 -10 CURVE",
"142 -2 OFFCURVE",
"258 -1 OFFCURVE",
"357 0 CURVE",
"395 145 OFFCURVE",
"449 283 OFFCURVE",
"510 419 CURVE"
);
}
);
width = 545;
}
);
unicode = 0037;
},
{
glyphname = A;
lastChange = "2016-04-14 15:38:08 +0000";
layers = (
{
layerId = "7A0FC40B-77F8-4D14-AD08-D047673E78CB";
name = Regular;
paths = (
{
closed = 1;
nodes = (
"214 -6 LINE",
"222 80 LINE",
"351 80 LINE",
"361 -10 LINE",
"468 -2 OFFCURVE",
"574 3 OFFCURVE",
"676 5 CURVE",
"622 192 OFFCURVE",
"586 382 OFFCURVE",
"561 570 CURVE",
"443 561 OFFCURVE",
"274 555 OFFCURVE",
"147 555 CURVE",
"111 370 OFFCURVE",
"68 190 OFFCURVE",
"4 10 CURVE"
);
},
{
closed = 1;
nodes = (
"306 372 LINE",
"341 202 LINE",
"251 196 LINE",
"294 370 LINE"
);
}
);
width = 680;
}
);
leftKerningGroup = A;
unicode = 0041;
},
{
glyphname = six;
lastChange = "2016-04-14 15:38:08 +0000";
layers = (
{
layerId = "7A0FC40B-77F8-4D14-AD08-D047673E78CB";
name = Regular;
paths = (
{
closed = 1;
nodes = (
"509 370 OFFCURVE",
"472 374 OFFCURVE",
"417 374 CURVE SMOOTH",
"369 374 OFFCURVE",
"321 369 OFFCURVE",
"285 359 CURVE",
"285 382 OFFCURVE",
"291 398 OFFCURVE",
"305 414 CURVE",
"333 422 OFFCURVE",
"367 422 OFFCURVE",
"393 422 CURVE SMOOTH",
"460 422 OFFCURVE",
"512 404 OFFCURVE",
"512 404 CURVE",
"518 458 OFFCURVE",
"534 499 OFFCURVE",
"554 540 CURVE",
"554 540 OFFCURVE",
"472 570 OFFCURVE",
"353 570 CURVE SMOOTH",
"253 570 OFFCURVE",
"149 561 OFFCURVE",
"67 518 CURVE",
"23 472 OFFCURVE",
"12 360 OFFCURVE",
"12 256 CURVE SMOOTH",
"12 160 OFFCURVE",
"35 69 OFFCURVE",
"54 26 CURVE",
"118 1 OFFCURVE",
"195 -14 OFFCURVE",
"298 -14 CURVE SMOOTH",
"394 -14 OFFCURVE",
"466 1 OFFCURVE",
"543 33 CURVE",
"580 78 OFFCURVE",
"590 142 OFFCURVE",
"590 195 CURVE SMOOTH",
"590 264 OFFCURVE",
"574 310 OFFCURVE",
"552 352 CURVE"
);
},
{
closed = 1;
nodes = (
"283 234 OFFCURVE",
"294 235 OFFCURVE",
"310 235 CURVE SMOOTH",
"320 235 OFFCURVE",
"334 234 OFFCURVE",
"345 230 CURVE",
"350 210 OFFCURVE",
"353 187 OFFCURVE",
"353 155 CURVE SMOOTH",
"353 142 OFFCURVE",
"351 131 OFFCURVE",
"346 124 CURVE",
"338 120 OFFCURVE",
"326 118 OFFCURVE",
"317 118 CURVE SMOOTH",
"301 118 OFFCURVE",
"293 121 OFFCURVE",
"280 123 CURVE",
"272 158 OFFCURVE",
"269 195 OFFCURVE",
"267 230 CURVE"
);
}
);
width = 606;
}
);
unicode = 0036;
},
{
glyphname = zero;
lastChange = "2016-04-14 15:38:08 +0000";
layers = (
{
layerId = "7A0FC40B-77F8-4D14-AD08-D047673E78CB";
name = Regular;
paths = (
{
closed = 1;
nodes = (
"382 -14 OFFCURVE",
"468 -8 OFFCURVE",
"535 22 CURVE",
"579 71 OFFCURVE",
"590 190 OFFCURVE",
"590 300 CURVE SMOOTH",
"590 396 OFFCURVE",
"567 487 OFFCURVE",
"548 530 CURVE",
"485 555 OFFCURVE",
"408 570 OFFCURVE",
"305 570 CURVE SMOOTH",
"222 570 OFFCURVE",
"134 564 OFFCURVE",
"67 534 CURVE",
"23 485 OFFCURVE",
"12 366 OFFCURVE",
"12 256 CURVE SMOOTH",
"12 160 OFFCURVE",
"35 69 OFFCURVE",
"54 26 CURVE",
"118 1 OFFCURVE",
"195 -14 OFFCURVE",
"298 -14 CURVE SMOOTH"
);
},
{
closed = 1;
nodes = (
"293 410 OFFCURVE",
"301 411 OFFCURVE",
"310 411 CURVE SMOOTH",
"320 411 OFFCURVE",
"334 410 OFFCURVE",
"345 406 CURVE",
"358 354 OFFCURVE",
"361 318 OFFCURVE",
"361 273 CURVE SMOOTH",
"361 211 OFFCURVE",
"354 162 OFFCURVE",
"346 124 CURVE",
"338 120 OFFCURVE",
"326 118 OFFCURVE",
"317 118 CURVE SMOOTH",
"301 118 OFFCURVE",
"293 121 OFFCURVE",
"280 123 CURVE",
"274 166 OFFCURVE",
"271 213 OFFCURVE",
"271 261 CURVE SMOOTH",
"271 313 OFFCURVE",
"275 358 OFFCURVE",
"283 406 CURVE"
);
}
);
width = 606;
}
);
unicode = 0030;
},
{
glyphname = period;
lastChange = "2016-04-14 15:38:08 +0000";
layers = (
{
layerId = "7A0FC40B-77F8-4D14-AD08-D047673E78CB";
name = Regular;
paths = (
{
closed = 1;
nodes = (
"317 194 LINE",
"28 183 LINE",
"38 115 OFFCURVE",
"38 56 OFFCURVE",
"38 -6 CURVE",
"74 -4 OFFCURVE",
"113 -2 OFFCURVE",
"154 -2 CURVE SMOOTH",
"201 -2 OFFCURVE",
"250 -4 OFFCURVE",
"305 -9 CURVE"
);
}
);
width = 353;
}
);
unicode = 002E;
},
{
glyphname = two;
lastChange = "2016-04-14 15:38:08 +0000";
layers = (
{
layerId = "7A0FC40B-77F8-4D14-AD08-D047673E78CB";
name = Regular;
paths = (
{
closed = 1;
nodes = (
"58 404 OFFCURVE",
"97 422 OFFCURVE",
"146 422 CURVE SMOOTH",
"171 422 OFFCURVE",
"206 422 OFFCURVE",
"234 410 CURVE",
"242 396 OFFCURVE",
"246 381 OFFCURVE",
"246 359 CURVE SMOOTH",
"246 273 OFFCURVE",
"102 226 OFFCURVE",
"12 130 CURVE",
"12 0 LINE",
"183 0 OFFCURVE",
"338 -2 OFFCURVE",
"494 -10 CURVE",
"510 154 LINE",
"337 146 LINE",
"378 215 OFFCURVE",
"502 252 OFFCURVE",
"502 360 CURVE SMOOTH",
"502 422 OFFCURVE",
"486 477 OFFCURVE",
"463 518 CURVE",
"394 561 OFFCURVE",
"303 570 OFFCURVE",
"218 570 CURVE SMOOTH",
"98 570 OFFCURVE",
"17 540 OFFCURVE",
"17 540 CURVE",
"36 499 OFFCURVE",
"53 458 OFFCURVE",
"58 404 CURVE"
);
}
);
width = 530;
}
);
unicode = 0032;
},
{
glyphname = three;
lastChange = "2016-04-14 15:38:08 +0000";
layers = (
{
layerId = "7A0FC40B-77F8-4D14-AD08-D047673E78CB";
name = Regular;
paths = (
{
closed = 1;
nodes = (
"58 237 OFFCURVE",
"97 243 OFFCURVE",
"146 243 CURVE SMOOTH",
"174 243 OFFCURVE",
"211 243 OFFCURVE",
"242 234 CURVE",
"244 225 OFFCURVE",
"246 212 OFFCURVE",
"246 192 CURVE SMOOTH",
"246 174 OFFCURVE",
"242 161 OFFCURVE",
"234 150 CURVE",
"206 137 OFFCURVE",
"171 137 OFFCURVE",
"146 137 CURVE SMOOTH",
"97 137 OFFCURVE",
"58 155 OFFCURVE",
"58 155 CURVE",
"53 102 OFFCURVE",
"36 60 OFFCURVE",
"17 19 CURVE",
"17 19 OFFCURVE",
"98 -10 OFFCURVE",
"218 -10 CURVE SMOOTH",
"303 -10 OFFCURVE",
"394 -2 OFFCURVE",
"463 42 CURVE",
"485 66 OFFCURVE",
"499 114 OFFCURVE",
"499 163 CURVE SMOOTH",
"499 217 OFFCURVE",
"489 266 OFFCURVE",
"463 305 CURVE",
"477 334 OFFCURVE",
"486 373 OFFCURVE",
"486 416 CURVE SMOOTH",
"486 456 OFFCURVE",
"477 492 OFFCURVE",
"463 518 CURVE",
"394 561 OFFCURVE",
"303 570 OFFCURVE",
"218 570 CURVE SMOOTH",
"98 570 OFFCURVE",
"17 540 OFFCURVE",
"17 540 CURVE",
"36 502 OFFCURVE",
"53 462 OFFCURVE",
"58 412 CURVE",
"58 412 OFFCURVE",
"97 422 OFFCURVE",
"146 422 CURVE SMOOTH",
"178 422 OFFCURVE",
"222 422 OFFCURVE",
"258 410 CURVE",
"260 403 OFFCURVE",
"262 395 OFFCURVE",
"262 383 CURVE SMOOTH",
"262 371 OFFCURVE",
"260 363 OFFCURVE",
"258 357 CURVE",
"222 348 OFFCURVE",
"178 348 OFFCURVE",
"146 348 CURVE SMOOTH",
"97 348 OFFCURVE",
"58 354 OFFCURVE",
"58 354 CURVE",
"61 330 OFFCURVE",
"62 311 OFFCURVE",
"62 294 CURVE SMOOTH",
"62 274 OFFCURVE",
"61 257 OFFCURVE",
"58 237 CURVE"
);
}
);
width = 530;
}
);
unicode = 0033;
},
{
glyphname = four;
lastChange = "2016-04-14 15:38:08 +0000";
layers = (
{
layerId = "7A0FC40B-77F8-4D14-AD08-D047673E78CB";
name = Regular;
paths = (
{
closed = 1;
nodes = (
"530 514 LINE",
"490 514 OFFCURVE",
"444 514 OFFCURVE",
"403 515 CURVE",
"445 570 LINE",
"357 562 OFFCURVE",
"247 561 OFFCURVE",
"153 560 CURVE",
"118 444 OFFCURVE",
"70 338 OFFCURVE",
"16 229 CURVE",
"9 78 LINE",
"93 82 OFFCURVE",
"183 85 OFFCURVE",
"278 86 CURVE",
"278 -10 LINE",
"356 -2 OFFCURVE",
"453 -1 OFFCURVE",
"538 0 CURVE",
"534 89 LINE",
"610 89 LINE",
"602 125 OFFCURVE",
"599 154 OFFCURVE",
"599 190 CURVE SMOOTH",
"599 212 OFFCURVE",
"599 239 OFFCURVE",
"600 262 CURVE",
"574 258 OFFCURVE",
"552 255 OFFCURVE",
"528 254 CURVE",
"522 419 LINE"
);
},
{
closed = 1;
nodes = (
"302 362 LINE",
"323 359 LINE",
"324 326 OFFCURVE",
"324 288 OFFCURVE",
"324 255 CURVE",
"302 255 OFFCURVE",
"277 256 OFFCURVE",
"256 257 CURVE"
);
}
);
width = 618;
}
);
unicode = 0034;
},
{
glyphname = five;
lastChange = "2016-04-14 15:38:08 +0000";
layers = (
{
layerId = "7A0FC40B-77F8-4D14-AD08-D047673E78CB";
name = Regular;
paths = (
{
closed = 1;
nodes = (
"32 213 OFFCURVE",
"93 227 OFFCURVE",
"175 227 CURVE SMOOTH",
"203 227 OFFCURVE",
"241 227 OFFCURVE",
"271 210 CURVE",
"274 203 OFFCURVE",
"275 195 OFFCURVE",
"275 184 CURVE SMOOTH",
"275 169 OFFCURVE",
"271 158 OFFCURVE",
"263 150 CURVE",
"235 137 OFFCURVE",
"201 137 OFFCURVE",
"175 137 CURVE SMOOTH",
"107 137 OFFCURVE",
"56 155 OFFCURVE",
"56 155 CURVE",
"50 102 OFFCURVE",
"34 60 OFFCURVE",
"14 19 CURVE",
"14 19 OFFCURVE",
"109 -10 OFFCURVE",
"247 -10 CURVE SMOOTH",
"333 -10 OFFCURVE",
"423 -2 OFFCURVE",
"493 42 CURVE",
"514 74 OFFCURVE",
"529 138 OFFCURVE",
"529 203 CURVE SMOOTH",
"529 242 OFFCURVE",
"519 311 OFFCURVE",
"503 340 CURVE",
"463 361 OFFCURVE",
"421 365 OFFCURVE",
"375 365 CURVE SMOOTH",
"322 365 OFFCURVE",
"280 358 OFFCURVE",
"280 358 CURVE",
"281 377 OFFCURVE",
"285 394 OFFCURVE",
"286 414 CURVE",
"515 406 LINE",
"499 570 LINE",
"350 562 OFFCURVE",
"203 560 OFFCURVE",
"42 560 CURVE",
"42 366 LINE",
"38 310 OFFCURVE",
"38 254 OFFCURVE",
"32 213 CURVE"
);
}
);
width = 559;
}
);
unicode = 0035;
},
{
glyphname = eight;
lastChange = "2016-04-14 15:38:08 +0000";
layers = (
{
layerId = "7A0FC40B-77F8-4D14-AD08-D047673E78CB";
name = Regular;
paths = (
{
closed = 1;
nodes = (
"379 -10 OFFCURVE",
"470 -2 OFFCURVE",
"539 42 CURVE",
"561 66 OFFCURVE",
"575 114 OFFCURVE",
"575 163 CURVE SMOOTH",
"575 217 OFFCURVE",
"565 266 OFFCURVE",
"539 305 CURVE",
"553 334 OFFCURVE",
"562 373 OFFCURVE",
"562 416 CURVE SMOOTH",
"562 456 OFFCURVE",
"553 492 OFFCURVE",
"539 518 CURVE",
"470 561 OFFCURVE",
"379 570 OFFCURVE",
"294 570 CURVE SMOOTH",
"208 570 OFFCURVE",
"118 561 OFFCURVE",
"48 518 CURVE",
"34 492 OFFCURVE",
"25 456 OFFCURVE",
"25 416 CURVE SMOOTH",
"25 373 OFFCURVE",
"34 334 OFFCURVE",
"48 305 CURVE",
"22 266 OFFCURVE",
"12 217 OFFCURVE",
"12 163 CURVE SMOOTH",
"12 114 OFFCURVE",
"26 66 OFFCURVE",
"48 42 CURVE",
"118 -2 OFFCURVE",
"208 -10 OFFCURVE",
"294 -10 CURVE SMOOTH"
);
},
{
closed = 1;
nodes = (
"298 430 OFFCURVE",
"315 430 OFFCURVE",
"330 422 CURVE",
"332 414 OFFCURVE",
"334 405 OFFCURVE",
"334 391 CURVE SMOOTH",
"334 375 OFFCURVE",
"334 365 OFFCURVE",
"330 357 CURVE",
"315 348 OFFCURVE",
"298 348 OFFCURVE",
"286 348 CURVE SMOOTH",
"275 348 OFFCURVE",
"262 348 OFFCURVE",
"250 357 CURVE",
"247 365 OFFCURVE",
"246 375 OFFCURVE",
"246 391 CURVE SMOOTH",
"246 405 OFFCURVE",
"246 414 OFFCURVE",
"250 422 CURVE",
"262 428 OFFCURVE",
"275 430 OFFCURVE",
"286 430 CURVE SMOOTH"
);
},
{
closed = 1;
nodes = (
"308 236 OFFCURVE",
"325 235 OFFCURVE",
"340 227 CURVE",
"342 218 OFFCURVE",
"344 205 OFFCURVE",
"344 185 CURVE SMOOTH",
"344 165 OFFCURVE",
"341 150 OFFCURVE",
"336 138 CURVE",
"322 130 OFFCURVE",
"306 130 OFFCURVE",
"296 130 CURVE SMOOTH",
"286 130 OFFCURVE",
"273 130 OFFCURVE",
"260 134 CURVE",
"254 147 OFFCURVE",
"252 163 OFFCURVE",
"252 185 CURVE SMOOTH",
"252 205 OFFCURVE",
"254 218 OFFCURVE",
"256 227 CURVE",
"270 234 OFFCURVE",
"285 236 OFFCURVE",
"296 236 CURVE SMOOTH"
);
}
);
width = 587;
}
);
unicode = 0038;
},
{
glyphname = nine;
lastChange = "2016-04-14 15:38:08 +0000";
layers = (
{
layerId = "7A0FC40B-77F8-4D14-AD08-D047673E78CB";
name = Regular;
paths = (
{
closed = 1;
nodes = (
"94 194 OFFCURVE",
"130 190 OFFCURVE",
"186 190 CURVE SMOOTH",
"234 190 OFFCURVE",
"282 195 OFFCURVE",
"318 205 CURVE",
"318 178 OFFCURVE",
"311 160 OFFCURVE",
"298 142 CURVE",
"270 134 OFFCURVE",
"235 134 OFFCURVE",
"210 134 CURVE SMOOTH",
"142 134 OFFCURVE",
"90 152 OFFCURVE",
"90 152 CURVE",
"85 98 OFFCURVE",
"68 57 OFFCURVE",
"49 16 CURVE",
"49 16 OFFCURVE",
"130 -14 OFFCURVE",
"250 -14 CURVE SMOOTH",
"350 -14 OFFCURVE",
"454 -5 OFFCURVE",
"535 38 CURVE",
"579 100 OFFCURVE",
"590 196 OFFCURVE",
"590 300 CURVE SMOOTH",
"590 385 OFFCURVE",
"579 466 OFFCURVE",
"556 522 CURVE",
"490 552 OFFCURVE",
"410 570 OFFCURVE",
"304 570 CURVE SMOOTH",
"205 570 OFFCURVE",
"130 558 OFFCURVE",
"51 531 CURVE",
"23 486 OFFCURVE",
"12 428 OFFCURVE",
"12 377 CURVE SMOOTH",
"12 305 OFFCURVE",
"29 256 OFFCURVE",
"50 212 CURVE"
);
},
{
closed = 1;
nodes = (
"319 314 OFFCURVE",
"308 313 OFFCURVE",
"292 313 CURVE SMOOTH",
"282 313 OFFCURVE",
"268 314 OFFCURVE",
"258 318 CURVE",
"252 341 OFFCURVE",
"250 366 OFFCURVE",
"250 401 CURVE SMOOTH",
"250 414 OFFCURVE",
"251 425 OFFCURVE",
"256 432 CURVE",
"264 436 OFFCURVE",
"276 438 OFFCURVE",
"286 438 CURVE SMOOTH",
"302 438 OFFCURVE",
"310 435 OFFCURVE",
"322 433 CURVE",
"330 395 OFFCURVE",
"334 355 OFFCURVE",
"335 318 CURVE"
);
}
);
width = 606;
}
);
unicode = 0039;
},
{
glyphname = comma;
lastChange = "2016-04-14 15:38:08 +0000";
layers = (
{
layerId = "7A0FC40B-77F8-4D14-AD08-D047673E78CB";
name = Regular;
paths = (
{
closed = 1;
nodes = (
"120 -154 LINE",
"120 -154 OFFCURVE",
"222 -120 OFFCURVE",
"274 -70 CURVE",
"306 11 OFFCURVE",
"317 98 OFFCURVE",
"317 194 CURVE",
"28 183 LINE",
"38 115 OFFCURVE",
"38 56 OFFCURVE",
"38 -6 CURVE",
"74 -2 OFFCURVE",
"113 0 OFFCURVE",
"157 0 CURVE",
"155 -17 OFFCURVE",
"152 -31 OFFCURVE",
"148 -43 CURVE",
"136 -60 OFFCURVE",
"122 -71 OFFCURVE",
"105 -71 CURVE"
);
}
);
width = 345;
}
);
unicode = 002C;
},
{
glyphname = grave;
lastChange = "2016-04-14 15:42:29 +0000";
layers = (
{
layerId = "7A0FC40B-77F8-4D14-AD08-D047673E78CB";
name = Regular;
paths = (
{
closed = 1;
nodes = (
"246 557 OFFCURVE",
"104 575 OFFCURVE",
"2 601 CURVE",
"-2 549 OFFCURVE",
"-10 510 OFFCURVE",
"-21 466 CURVE",
"92 462 OFFCURVE",
"213 455 OFFCURVE",
"329 438 CURVE",
"331 474 OFFCURVE",
"342 509 OFFCURVE",
"357 546 CURVE"
);
}
);
width = 366;
}
);
unicode = 0060;
},
{
glyphname = agrave;
lastChange = "2016-04-14 15:41:28 +0000";
layers = (
{
layerId = "7A0FC40B-77F8-4D14-AD08-D047673E78CB";
name = Regular;
paths = (
{
closed = 1;
nodes = (
"22 222 OFFCURVE",
"12 194 OFFCURVE",
"12 147 CURVE SMOOTH",
"12 101 OFFCURVE",
"21 47 OFFCURVE",
"51 9 CURVE",
"94 -6 OFFCURVE",
"133 -14 OFFCURVE",
"184 -14 CURVE SMOOTH",
"259 -14 OFFCURVE",
"308 2 OFFCURVE",
"333 14 CURVE",
"332 -1 OFFCURVE",
"332 -10 OFFCURVE",
"332 -10 CURVE",
"419 -3 OFFCURVE",
"510 2 OFFCURVE",
"604 2 CURVE",
"608 30 OFFCURVE",
"614 93 OFFCURVE",
"614 160 CURVE SMOOTH",
"614 249 OFFCURVE",
"603 346 OFFCURVE",
"559 385 CURVE",
"478 422 OFFCURVE",
"374 429 OFFCURVE",
"274 429 CURVE SMOOTH",
"145 429 OFFCURVE",
"57 407 OFFCURVE",
"57 407 CURVE",
"76 371 OFFCURVE",
"93 334 OFFCURVE",
"98 287 CURVE",
"98 287 OFFCURVE",
"157 298 OFFCURVE",
"234 298 CURVE SMOOTH",
"259 298 OFFCURVE",
"294 294 OFFCURVE",
"322 289 CURVE",
"330 281 OFFCURVE",
"334 272 OFFCURVE",
"334 259 CURVE",
"298 266 OFFCURVE",
"252 270 OFFCURVE",
"206 270 CURVE SMOOTH",
"136 270 OFFCURVE",
"88 266 OFFCURVE",
"34 248 CURVE"
);
},
{
closed = 1;
nodes = (
"358 150 OFFCURVE",
"356 138 OFFCURVE",
"350 123 CURVE",
"337 120 OFFCURVE",
"326 118 OFFCURVE",
"310 118 CURVE SMOOTH",
"298 118 OFFCURVE",
"285 120 OFFCURVE",
"276 124 CURVE",
"274 130 OFFCURVE",
"273 137 OFFCURVE",
"273 146 CURVE SMOOTH",
"273 154 OFFCURVE",
"274 161 OFFCURVE",
"278 166 CURVE",
"290 170 OFFCURVE",
"306 171 OFFCURVE",
"316 171 CURVE SMOOTH",
"332 171 OFFCURVE",
"343 170 OFFCURVE",
"359 166 CURVE"
);
},
{
closed = 1;
nodes = (
"394 557 OFFCURVE",
"252 575 OFFCURVE",
"150 601 CURVE",
"146 549 OFFCURVE",
"138 510 OFFCURVE",
"127 466 CURVE",
"240 462 OFFCURVE",
"361 455 OFFCURVE",
"477 438 CURVE",
"479 474 OFFCURVE",
"490 509 OFFCURVE",
"505 546 CURVE"
);
}
);
width = 632;
}
);
unicode = 00E0;
},
{
glyphname = egrave;
lastChange = "2016-04-14 15:41:28 +0000";
layers = (
{
layerId = "7A0FC40B-77F8-4D14-AD08-D047673E78CB";
name = Regular;
paths = (
{
closed = 1;
nodes = (
"437 170 OFFCURVE",
"516 171 OFFCURVE",
"581 180 CURVE",
"596 211 OFFCURVE",
"604 261 OFFCURVE",
"604 304 CURVE SMOOTH",
"604 338 OFFCURVE",
"599 374 OFFCURVE",
"581 404 CURVE",
"486 423 OFFCURVE",
"418 433 OFFCURVE",
"324 433 CURVE SMOOTH",
"221 433 OFFCURVE",
"134 424 OFFCURVE",
"51 402 CURVE",
"14 342 OFFCURVE",
"4 286 OFFCURVE",
"4 224 CURVE SMOOTH",
"4 155 OFFCURVE",
"18 84 OFFCURVE",
"43 36 CURVE",
"137 -5 OFFCURVE",
"245 -10 OFFCURVE",
"361 -10 CURVE SMOOTH",
"446 -10 OFFCURVE",
"513 0 OFFCURVE",
"582 16 CURVE",
"569 55 OFFCURVE",
"562 104 OFFCURVE",
"561 142 CURVE",
"519 134 OFFCURVE",
"470 130 OFFCURVE",
"413 130 CURVE SMOOTH",
"377 130 OFFCURVE",
"340 133 OFFCURVE",
"297 142 CURVE",
"293 151 OFFCURVE",
"289 162 OFFCURVE",
"286 173 CURVE",
"309 170 OFFCURVE",
"333 170 OFFCURVE",
"359 170 CURVE SMOOTH"
);
},
{
closed = 1;
nodes = (
"365 302 OFFCURVE",
"366 292 OFFCURVE",
"367 278 CURVE",
"329 274 OFFCURVE",
"295 274 OFFCURVE",
"263 274 CURVE",
"265 284 OFFCURVE",
"268 295 OFFCURVE",
"272 304 CURVE",
"306 314 OFFCURVE",
"330 317 OFFCURVE",
"359 317 CURVE"
);
},
{
closed = 1;
nodes = (
"386 557 OFFCURVE",
"244 575 OFFCURVE",
"142 601 CURVE",
"138 549 OFFCURVE",
"130 510 OFFCURVE",
"119 466 CURVE",
"232 462 OFFCURVE",
"353 455 OFFCURVE",
"469 438 CURVE",
"471 474 OFFCURVE",
"482 509 OFFCURVE",
"497 546 CURVE"
);
}
);
width = 616;
}
);
unicode = 00E8;
},
{
glyphname = igrave;
lastChange = "2016-04-14 15:41:28 +0000";
layers = (
{
layerId = "7A0FC40B-77F8-4D14-AD08-D047673E78CB";
name = Regular;
paths = (
{
closed = 1;
nodes = (
"277 416 LINE",
"217 407 OFFCURVE",
"150 407 OFFCURVE",
"85 407 CURVE SMOOTH",
"64 407 OFFCURVE",
"43 407 OFFCURVE",
"23 408 CURVE",
"29 270 OFFCURVE",
"29 129 OFFCURVE",
"29 -10 CURVE",
"107 -2 OFFCURVE",
"200 -1 OFFCURVE",
"285 0 CURVE"
);
},
{
closed = 1;
nodes = (
"239 557 OFFCURVE",
"97 575 OFFCURVE",
"-5 601 CURVE",
"-9 549 OFFCURVE",
"-17 510 OFFCURVE",
"-28 466 CURVE",
"85 462 OFFCURVE",
"206 455 OFFCURVE",
"322 438 CURVE",
"324 474 OFFCURVE",
"335 509 OFFCURVE",
"350 546 CURVE"
);
}
);
width = 321;
}
);
unicode = 00EC;
},
{
glyphname = ograve;
lastChange = "2016-04-14 15:41:28 +0000";
layers = (
{
layerId = "7A0FC40B-77F8-4D14-AD08-D047673E78CB";
name = Regular;
paths = (
{
closed = 1;
nodes = (
"443 -10 OFFCURVE",
"533 10 OFFCURVE",
"592 50 CURVE",
"618 101 OFFCURVE",
"633 146 OFFCURVE",
"633 223 CURVE SMOOTH",
"633 293 OFFCURVE",
"622 336 OFFCURVE",
"601 379 CURVE",
"541 414 OFFCURVE",
"447 430 OFFCURVE",
"327 430 CURVE SMOOTH",
"208 430 OFFCURVE",
"117 415 OFFCURVE",
"56 386 CURVE",
"28 343 OFFCURVE",
"12 292 OFFCURVE",
"12 217 CURVE SMOOTH",
"12 126 OFFCURVE",
"34 71 OFFCURVE",
"77 26 CURVE",
"134 2 OFFCURVE",
"217 -10 OFFCURVE",
"318 -10 CURVE SMOOTH"
);
},
{
closed = 1;
nodes = (
"299 287 OFFCURVE",
"310 291 OFFCURVE",
"328 291 CURVE SMOOTH",
"339 291 OFFCURVE",
"348 291 OFFCURVE",
"355 285 CURVE",
"363 272 OFFCURVE",
"367 248 OFFCURVE",
"367 213 CURVE SMOOTH",
"367 172 OFFCURVE",
"364 140 OFFCURVE",
"353 124 CURVE",
"345 117 OFFCURVE",
"334 114 OFFCURVE",
"319 114 CURVE SMOOTH",
"302 114 OFFCURVE",
"292 117 OFFCURVE",
"286 124 CURVE",
"277 138 OFFCURVE",
"277 164 OFFCURVE",
"277 203 CURVE SMOOTH",
"277 230 OFFCURVE",
"280 254 OFFCURVE",
"289 279 CURVE"
);
},
{
closed = 1;
nodes = (
"400 557 OFFCURVE",
"258 575 OFFCURVE",
"156 601 CURVE",
"152 549 OFFCURVE",
"144 510 OFFCURVE",
"133 466 CURVE",
"246 462 OFFCURVE",
"367 455 OFFCURVE",
"483 438 CURVE",
"485 474 OFFCURVE",
"496 509 OFFCURVE",
"511 546 CURVE"
);
}
);
width = 645;
}
);
unicode = 00F2;
},
{
glyphname = ugrave;
lastChange = "2016-04-14 15:41:28 +0000";
layers = (
{
layerId = "7A0FC40B-77F8-4D14-AD08-D047673E78CB";
name = Regular;
paths = (
{
closed = 1;
nodes = (
"350 226 LINE",
"330 208 OFFCURVE",
"312 201 OFFCURVE",
"291 201 CURVE",
"286 231 OFFCURVE",
"282 267 OFFCURVE",
"282 309 CURVE SMOOTH",
"282 341 OFFCURVE",
"284 384 OFFCURVE",
"290 430 CURVE",
"235 425 OFFCURVE",
"184 422 OFFCURVE",
"132 422 CURVE SMOOTH",
"98 422 OFFCURVE",
"62 422 OFFCURVE",
"28 423 CURVE",
"22 359 OFFCURVE",
"20 294 OFFCURVE",
"20 236 CURVE SMOOTH",
"20 149 OFFCURVE",
"26 89 OFFCURVE",
"51 27 CURVE",
"87 4 OFFCURVE",
"122 -10 OFFCURVE",
"177 -10 CURVE SMOOTH",
"221 -10 OFFCURVE",
"268 0 OFFCURVE",
"324 38 CURVE",
"319 -10 LINE",
"608 1 LINE",
"599 152 OFFCURVE",
"599 289 OFFCURVE",
"599 442 CURVE",
"516 432 OFFCURVE",
"429 432 OFFCURVE",
"339 432 CURVE"
);
},
{
closed = 1;
nodes = (
"350 557 OFFCURVE",
"208 575 OFFCURVE",
"106 601 CURVE",
"102 549 OFFCURVE",
"94 510 OFFCURVE",
"83 466 CURVE",
"196 462 OFFCURVE",
"317 455 OFFCURVE",
"433 438 CURVE",
"435 474 OFFCURVE",
"446 509 OFFCURVE",
"461 546 CURVE"
);
}
);
width = 624;
}
);
unicode = 00F9;
},
{
glyphname = breve;
lastChange = "2016-04-14 15:42:29 +0000";
layers = (
{
layerId = "7A0FC40B-77F8-4D14-AD08-D047673E78CB";
name = Regular;
paths = (
{
closed = 1;
nodes = (
"350 515 OFFCURVE",
"345 552 OFFCURVE",
"342 601 CURVE",
"301 579 OFFCURVE",
"243 561 OFFCURVE",
"180 561 CURVE SMOOTH",
"119 561 OFFCURVE",
"64 570 OFFCURVE",
"26 581 CURVE",
"22 540 OFFCURVE",
"13 509 OFFCURVE",
"3 474 CURVE",
"58 446 OFFCURVE",
"118 438 OFFCURVE",
"180 438 CURVE SMOOTH",
"242 438 OFFCURVE",
"301 446 OFFCURVE",
"357 474 CURVE"
);
}
);
width = 366;
}
);
unicode = 02D8;
},
{
glyphname = caron;
lastChange = "2016-04-14 15:42:29 +0000";
layers = (
{
layerId = "7A0FC40B-77F8-4D14-AD08-D047673E78CB";
name = Regular;
paths = (
{
closed = 1;
nodes = (
"397 526 OFFCURVE",
"386 558 OFFCURVE",
"383 601 CURVE",
"332 588 OFFCURVE",
"264 578 OFFCURVE",
"207 572 CURVE",
"152 577 OFFCURVE",
"86 583 OFFCURVE",
"36 593 CURVE",
"33 563 OFFCURVE",
"23 541 OFFCURVE",
"9 514 CURVE",
"67 484 OFFCURVE",
"131 454 OFFCURVE",
"208 438 CURVE",
"275 454 OFFCURVE",
"346 470 OFFCURVE",
"406 490 CURVE"
);
}
);
width = 415;
}
);
unicode = 02C7;
},
{
glyphname = circumflex;
lastChange = "2016-04-14 15:42:29 +0000";
layers = (
{
layerId = "7A0FC40B-77F8-4D14-AD08-D047673E78CB";
name = Regular;
paths = (
{
closed = 1;
nodes = (
"18 498 OFFCURVE",
"29 469 OFFCURVE",
"32 430 CURVE",
"83 446 OFFCURVE",
"151 458 OFFCURVE",
"208 466 CURVE",
"263 460 OFFCURVE",
"330 450 OFFCURVE",
"379 438 CURVE",
"382 477 OFFCURVE",
"393 506 OFFCURVE",
"406 540 CURVE",
"348 564 OFFCURVE",
"284 587 OFFCURVE",
"207 601 CURVE",
"140 580 OFFCURVE",
"70 558 OFFCURVE",
"9 532 CURVE"
);
}
);
width = 415;
}
);
unicode = 02C6;
},
{
glyphname = abreve;
lastChange = "2016-04-14 15:41:28 +0000";
layers = (
{
layerId = "7A0FC40B-77F8-4D14-AD08-D047673E78CB";
name = Regular;
paths = (
{
closed = 1;
nodes = (
"486 515 OFFCURVE",
"481 552 OFFCURVE",
"478 601 CURVE",
"437 579 OFFCURVE",
"379 561 OFFCURVE",
"316 561 CURVE SMOOTH",
"255 561 OFFCURVE",
"200 570 OFFCURVE",
"162 581 CURVE",
"158 540 OFFCURVE",
"149 509 OFFCURVE",
"139 474 CURVE",
"194 446 OFFCURVE",
"254 438 OFFCURVE",
"316 438 CURVE SMOOTH",
"378 438 OFFCURVE",
"437 446 OFFCURVE",
"493 474 CURVE"
);
},
{
closed = 1;
nodes = (
"22 222 OFFCURVE",
"12 194 OFFCURVE",
"12 147 CURVE SMOOTH",
"12 101 OFFCURVE",
"21 47 OFFCURVE",
"51 9 CURVE",
"94 -6 OFFCURVE",
"133 -14 OFFCURVE",
"184 -14 CURVE SMOOTH",
"259 -14 OFFCURVE",
"308 2 OFFCURVE",
"333 14 CURVE",
"332 -1 OFFCURVE",
"332 -10 OFFCURVE",
"332 -10 CURVE",
"419 -3 OFFCURVE",
"510 2 OFFCURVE",
"604 2 CURVE",
"608 30 OFFCURVE",
"614 93 OFFCURVE",
"614 160 CURVE SMOOTH",
"614 249 OFFCURVE",
"603 346 OFFCURVE",
"559 385 CURVE",
"478 422 OFFCURVE",
"374 429 OFFCURVE",
"274 429 CURVE SMOOTH",
"145 429 OFFCURVE",
"57 407 OFFCURVE",
"57 407 CURVE",
"76 371 OFFCURVE",
"93 334 OFFCURVE",
"98 287 CURVE",
"98 287 OFFCURVE",
"157 298 OFFCURVE",
"234 298 CURVE SMOOTH",
"259 298 OFFCURVE",
"294 294 OFFCURVE",
"322 289 CURVE",
"330 281 OFFCURVE",
"334 272 OFFCURVE",
"334 259 CURVE",
"298 266 OFFCURVE",
"252 270 OFFCURVE",
"206 270 CURVE SMOOTH",
"136 270 OFFCURVE",
"88 266 OFFCURVE",
"34 248 CURVE"
);
},
{
closed = 1;
nodes = (
"358 150 OFFCURVE",
"356 138 OFFCURVE",
"350 123 CURVE",
"337 120 OFFCURVE",
"326 118 OFFCURVE",
"310 118 CURVE SMOOTH",
"298 118 OFFCURVE",
"285 120 OFFCURVE",
"276 124 CURVE",
"274 130 OFFCURVE",
"273 137 OFFCURVE",
"273 146 CURVE SMOOTH",
"273 154 OFFCURVE",
"274 161 OFFCURVE",
"278 166 CURVE",
"290 170 OFFCURVE",
"306 171 OFFCURVE",
"316 171 CURVE SMOOTH",
"332 171 OFFCURVE",
"343 170 OFFCURVE",
"359 166 CURVE"
);
}
);
width = 632;
}
);
unicode = 0103;
},
{
glyphname = acircumflex;
lastChange = "2016-04-14 15:41:28 +0000";
layers = (
{
layerId = "7A0FC40B-77F8-4D14-AD08-D047673E78CB";
name = Regular;
paths = (
{
closed = 1;
nodes = (
"126 498 OFFCURVE",
"137 469 OFFCURVE",
"140 430 CURVE",
"191 446 OFFCURVE",
"259 458 OFFCURVE",
"316 466 CURVE",
"371 460 OFFCURVE",
"438 450 OFFCURVE",
"487 438 CURVE",
"490 477 OFFCURVE",
"501 506 OFFCURVE",
"514 540 CURVE",
"456 564 OFFCURVE",
"392 587 OFFCURVE",
"315 601 CURVE",
"248 580 OFFCURVE",
"178 558 OFFCURVE",
"117 532 CURVE"
);
},
{
closed = 1;
nodes = (
"22 222 OFFCURVE",
"12 194 OFFCURVE",
"12 147 CURVE SMOOTH",
"12 101 OFFCURVE",
"21 47 OFFCURVE",
"51 9 CURVE",
"94 -6 OFFCURVE",
"133 -14 OFFCURVE",
"184 -14 CURVE SMOOTH",
"259 -14 OFFCURVE",
"308 2 OFFCURVE",
"333 14 CURVE",
"332 -1 OFFCURVE",
"332 -10 OFFCURVE",
"332 -10 CURVE",
"419 -3 OFFCURVE",
"510 2 OFFCURVE",
"604 2 CURVE",
"608 30 OFFCURVE",
"614 93 OFFCURVE",
"614 160 CURVE SMOOTH",
"614 249 OFFCURVE",
"603 346 OFFCURVE",
"559 385 CURVE",
"478 422 OFFCURVE",
"374 429 OFFCURVE",
"274 429 CURVE SMOOTH",
"145 429 OFFCURVE",
"57 407 OFFCURVE",
"57 407 CURVE",
"76 371 OFFCURVE",
"93 334 OFFCURVE",
"98 287 CURVE",
"98 287 OFFCURVE",
"157 298 OFFCURVE",
"234 298 CURVE SMOOTH",
"259 298 OFFCURVE",
"294 294 OFFCURVE",
"322 289 CURVE",
"330 281 OFFCURVE",
"334 272 OFFCURVE",
"334 259 CURVE",
"298 266 OFFCURVE",
"252 270 OFFCURVE",
"206 270 CURVE SMOOTH",
"136 270 OFFCURVE",
"88 266 OFFCURVE",
"34 248 CURVE"
);
},
{
closed = 1;
nodes = (
"358 150 OFFCURVE",
"356 138 OFFCURVE",
"350 123 CURVE",
"337 120 OFFCURVE",
"326 118 OFFCURVE",
"310 118 CURVE SMOOTH",
"298 118 OFFCURVE",
"285 120 OFFCURVE",
"276 124 CURVE",
"274 130 OFFCURVE",
"273 137 OFFCURVE",
"273 146 CURVE SMOOTH",
"273 154 OFFCURVE",
"274 161 OFFCURVE",
"278 166 CURVE",
"290 170 OFFCURVE",
"306 171 OFFCURVE",
"316 171 CURVE SMOOTH",
"332 171 OFFCURVE",
"343 170 OFFCURVE",
"359 166 CURVE"
);
}
);
width = 632;
}
);
unicode = 00E2;
},
{
glyphname = ccaron;
lastChange = "2016-04-14 15:41:28 +0000";
layers = (
{
layerId = "7A0FC40B-77F8-4D14-AD08-D047673E78CB";
name = Regular;
paths = (
{
closed = 1;
nodes = (
"23 334 OFFCURVE",
"12 278 OFFCURVE",
"12 212 CURVE SMOOTH",
"12 148 OFFCURVE",
"26 81 OFFCURVE",
"51 36 CURVE",
"121 -5 OFFCURVE",
"205 -10 OFFCURVE",
"289 -10 CURVE SMOOTH",
"358 -10 OFFCURVE",
"413 -2 OFFCURVE",
"470 12 CURVE",
"456 51 OFFCURVE",
"450 100 OFFCURVE",
"449 138 CURVE",
"429 133 OFFCURVE",
"402 130 OFFCURVE",
"373 130 CURVE SMOOTH",
"351 130 OFFCURVE",
"329 133 OFFCURVE",
"305 142 CURVE",
"293 162 OFFCURVE",
"285 182 OFFCURVE",
"285 209 CURVE SMOOTH",
"285 230 OFFCURVE",
"288 255 OFFCURVE",
"296 272 CURVE",
"330 282 OFFCURVE",
"354 285 OFFCURVE",
"382 285 CURVE SMOOTH",
"402 285 OFFCURVE",
"430 282 OFFCURVE",
"447 281 CURVE",
"447 318 OFFCURVE",
"454 370 OFFCURVE",
"469 416 CURVE",
"410 426 OFFCURVE",
"359 433 OFFCURVE",
"300 433 CURVE SMOOTH",
"213 433 OFFCURVE",
"138 422 OFFCURVE",
"67 398 CURVE"
);
},
{
closed = 1;
nodes = (
"443 526 OFFCURVE",
"432 558 OFFCURVE",
"429 601 CURVE",
"378 588 OFFCURVE",
"310 578 OFFCURVE",
"253 572 CURVE",
"198 577 OFFCURVE",
"132 583 OFFCURVE",
"82 593 CURVE",
"79 563 OFFCURVE",
"69 541 OFFCURVE",
"55 514 CURVE",
"113 484 OFFCURVE",
"177 454 OFFCURVE",
"254 438 CURVE",
"321 454 OFFCURVE",
"392 470 OFFCURVE",
"452 490 CURVE"
);
}
);
width = 474;
}
);
unicode = 010D;
},
{
glyphname = ebreve;
lastChange = "2016-04-14 15:41:28 +0000";
layers = (
{
layerId = "7A0FC40B-77F8-4D14-AD08-D047673E78CB";
name = Regular;
paths = (
{
closed = 1;
nodes = (
"478 515 OFFCURVE",
"473 552 OFFCURVE",
"470 601 CURVE",
"429 579 OFFCURVE",
"371 561 OFFCURVE",
"308 561 CURVE SMOOTH",
"247 561 OFFCURVE",
"192 570 OFFCURVE",
"154 581 CURVE",
"150 540 OFFCURVE",
"141 509 OFFCURVE",
"131 474 CURVE",
"186 446 OFFCURVE",
"246 438 OFFCURVE",
"308 438 CURVE SMOOTH",
"370 438 OFFCURVE",
"429 446 OFFCURVE",
"485 474 CURVE"
);
},
{
closed = 1;
nodes = (
"437 170 OFFCURVE",
"516 171 OFFCURVE",
"581 180 CURVE",
"596 211 OFFCURVE",
"604 261 OFFCURVE",
"604 304 CURVE SMOOTH",
"604 338 OFFCURVE",
"599 374 OFFCURVE",
"581 404 CURVE",
"486 423 OFFCURVE",
"418 433 OFFCURVE",
"324 433 CURVE SMOOTH",
"221 433 OFFCURVE",
"134 424 OFFCURVE",
"51 402 CURVE",
"14 342 OFFCURVE",
"4 286 OFFCURVE",
"4 224 CURVE SMOOTH",
"4 155 OFFCURVE",
"18 84 OFFCURVE",
"43 36 CURVE",
"137 -5 OFFCURVE",
"245 -10 OFFCURVE",
"361 -10 CURVE SMOOTH",
"446 -10 OFFCURVE",
"513 0 OFFCURVE",
"582 16 CURVE",
"569 55 OFFCURVE",
"562 104 OFFCURVE",
"561 142 CURVE",
"519 134 OFFCURVE",
"470 130 OFFCURVE",
"413 130 CURVE SMOOTH",
"377 130 OFFCURVE",
"340 133 OFFCURVE",
"297 142 CURVE",
"293 151 OFFCURVE",
"289 162 OFFCURVE",
"286 173 CURVE",
"309 170 OFFCURVE",
"333 170 OFFCURVE",
"359 170 CURVE SMOOTH"
);
},
{
closed = 1;
nodes = (
"365 302 OFFCURVE",
"366 292 OFFCURVE",
"367 278 CURVE",
"329 274 OFFCURVE",
"295 274 OFFCURVE",
"263 274 CURVE",
"265 284 OFFCURVE",
"268 295 OFFCURVE",
"272 304 CURVE",
"306 314 OFFCURVE",
"330 317 OFFCURVE",
"359 317 CURVE"
);
}
);
width = 616;
}
);
unicode = 0115;
},
{
glyphname = ecaron;
lastChange = "2016-04-14 15:41:28 +0000";
layers = (
{
layerId = "7A0FC40B-77F8-4D14-AD08-D047673E78CB";
name = Regular;
paths = (
{
closed = 1;
nodes = (
"497 526 OFFCURVE",
"486 558 OFFCURVE",
"483 601 CURVE",
"432 588 OFFCURVE",
"364 578 OFFCURVE",
"307 572 CURVE",
"252 577 OFFCURVE",
"186 583 OFFCURVE",
"136 593 CURVE",
"133 563 OFFCURVE",
"123 541 OFFCURVE",
"109 514 CURVE",
"167 484 OFFCURVE",
"231 454 OFFCURVE",
"308 438 CURVE",
"375 454 OFFCURVE",
"446 470 OFFCURVE",
"506 490 CURVE"
);
},
{
closed = 1;
nodes = (
"437 170 OFFCURVE",
"516 171 OFFCURVE",
"581 180 CURVE",
"596 211 OFFCURVE",
"604 261 OFFCURVE",
"604 304 CURVE SMOOTH",
"604 338 OFFCURVE",
"599 374 OFFCURVE",
"581 404 CURVE",
"486 423 OFFCURVE",
"418 433 OFFCURVE",
"324 433 CURVE SMOOTH",
"221 433 OFFCURVE",
"134 424 OFFCURVE",
"51 402 CURVE",
"14 342 OFFCURVE",
"4 286 OFFCURVE",
"4 224 CURVE SMOOTH",
"4 155 OFFCURVE",
"18 84 OFFCURVE",
"43 36 CURVE",
"137 -5 OFFCURVE",
"245 -10 OFFCURVE",
"361 -10 CURVE SMOOTH",
"446 -10 OFFCURVE",
"513 0 OFFCURVE",
"582 16 CURVE",
"569 55 OFFCURVE",
"562 104 OFFCURVE",
"561 142 CURVE",
"519 134 OFFCURVE",
"470 130 OFFCURVE",
"413 130 CURVE SMOOTH",
"377 130 OFFCURVE",
"340 133 OFFCURVE",
"297 142 CURVE",
"293 151 OFFCURVE",
"289 162 OFFCURVE",
"286 173 CURVE",
"309 170 OFFCURVE",
"333 170 OFFCURVE",
"359 170 CURVE SMOOTH"
);
},
{
closed = 1;
nodes = (
"365 302 OFFCURVE",
"366 292 OFFCURVE",
"367 278 CURVE",
"329 274 OFFCURVE",
"295 274 OFFCURVE",
"263 274 CURVE",
"265 284 OFFCURVE",
"268 295 OFFCURVE",
"272 304 CURVE",
"306 314 OFFCURVE",
"330 317 OFFCURVE",
"359 317 CURVE"
);
}
);
width = 616;
}
);
unicode = 011B;
},
{
glyphname = ecircumflex;
lastChange = "2016-04-14 15:41:28 +0000";
layers = (
{
layerId = "7A0FC40B-77F8-4D14-AD08-D047673E78CB";
name = Regular;
paths = (
{
closed = 1;
nodes = (
"118 498 OFFCURVE",
"129 469 OFFCURVE",
"132 430 CURVE",
"183 446 OFFCURVE",
"251 458 OFFCURVE",
"308 466 CURVE",
"363 460 OFFCURVE",
"430 450 OFFCURVE",
"479 438 CURVE",
"482 477 OFFCURVE",
"493 506 OFFCURVE",
"506 540 CURVE",
"448 564 OFFCURVE",
"384 587 OFFCURVE",
"307 601 CURVE",
"240 580 OFFCURVE",
"170 558 OFFCURVE",
"109 532 CURVE"
);
},
{
closed = 1;
nodes = (
"437 170 OFFCURVE",
"516 171 OFFCURVE",
"581 180 CURVE",
"596 211 OFFCURVE",
"604 261 OFFCURVE",
"604 304 CURVE SMOOTH",
"604 338 OFFCURVE",
"599 374 OFFCURVE",
"581 404 CURVE",
"486 423 OFFCURVE",
"418 433 OFFCURVE",
"324 433 CURVE SMOOTH",
"221 433 OFFCURVE",
"134 424 OFFCURVE",
"51 402 CURVE",
"14 342 OFFCURVE",
"4 286 OFFCURVE",
"4 224 CURVE SMOOTH",
"4 155 OFFCURVE",
"18 84 OFFCURVE",
"43 36 CURVE",
"137 -5 OFFCURVE",
"245 -10 OFFCURVE",
"361 -10 CURVE SMOOTH",
"446 -10 OFFCURVE",
"513 0 OFFCURVE",
"582 16 CURVE",
"569 55 OFFCURVE",
"562 104 OFFCURVE",
"561 142 CURVE",
"519 134 OFFCURVE",
"470 130 OFFCURVE",
"413 130 CURVE SMOOTH",
"377 130 OFFCURVE",
"340 133 OFFCURVE",
"297 142 CURVE",
"293 151 OFFCURVE",
"289 162 OFFCURVE",
"286 173 CURVE",
"309 170 OFFCURVE",
"333 170 OFFCURVE",
"359 170 CURVE SMOOTH"
);
},
{
closed = 1;
nodes = (
"365 302 OFFCURVE",
"366 292 OFFCURVE",
"367 278 CURVE",
"329 274 OFFCURVE",
"295 274 OFFCURVE",
"263 274 CURVE",
"265 284 OFFCURVE",
"268 295 OFFCURVE",
"272 304 CURVE",
"306 314 OFFCURVE",
"330 317 OFFCURVE",
"359 317 CURVE"
);
}
);
width = 616;
}
);
unicode = 00EA;
},
{
glyphname = c.peq;
lastChange = "2016-04-14 15:38:08 +0000";
layers = (
{
layerId = "7A0FC40B-77F8-4D14-AD08-D047673E78CB";
name = Regular;
paths = (
{
closed = 1;
nodes = (
"23 334 OFFCURVE",
"12 278 OFFCURVE",
"12 212 CURVE SMOOTH",
"12 148 OFFCURVE",
"26 81 OFFCURVE",
"51 36 CURVE",
"121 -5 OFFCURVE",
"205 -10 OFFCURVE",
"289 -10 CURVE SMOOTH",
"358 -10 OFFCURVE",
"413 -2 OFFCURVE",
"470 12 CURVE",
"456 51 OFFCURVE",
"450 100 OFFCURVE",
"449 138 CURVE",
"429 133 OFFCURVE",
"402 130 OFFCURVE",
"373 130 CURVE SMOOTH",
"351 130 OFFCURVE",
"329 133 OFFCURVE",
"305 142 CURVE",
"293 162 OFFCURVE",
"285 182 OFFCURVE",
"285 209 CURVE SMOOTH",
"285 230 OFFCURVE",
"288 255 OFFCURVE",
"296 272 CURVE",
"330 282 OFFCURVE",
"354 285 OFFCURVE",
"382 285 CURVE SMOOTH",
"402 285 OFFCURVE",
"430 282 OFFCURVE",
"447 281 CURVE",
"447 318 OFFCURVE",
"454 370 OFFCURVE",
"469 416 CURVE",
"410 426 OFFCURVE",
"359 433 OFFCURVE",
"300 433 CURVE SMOOTH",
"213 433 OFFCURVE",
"138 422 OFFCURVE",
"67 398 CURVE"
);
}
);
width = 474;
}
);
},
{
glyphname = cacute;
lastChange = "2016-04-14 15:41:28 +0000";
layers = (
{
layerId = "7A0FC40B-77F8-4D14-AD08-D047673E78CB";
name = Regular;
paths = (
{
closed = 1;
nodes = (
"87 509 OFFCURVE",
"98 474 OFFCURVE",
"100 438 CURVE",
"216 455 OFFCURVE",
"337 462 OFFCURVE",
"450 466 CURVE",
"439 510 OFFCURVE",
"431 549 OFFCURVE",
"427 601 CURVE",
"325 575 OFFCURVE",
"183 557 OFFCURVE",
"72 546 CURVE"
);
},
{
closed = 1;
nodes = (
"23 334 OFFCURVE",
"12 278 OFFCURVE",
"12 212 CURVE SMOOTH",
"12 148 OFFCURVE",
"26 81 OFFCURVE",
"51 36 CURVE",
"121 -5 OFFCURVE",
"205 -10 OFFCURVE",
"289 -10 CURVE SMOOTH",
"358 -10 OFFCURVE",
"413 -2 OFFCURVE",
"470 12 CURVE",
"456 51 OFFCURVE",
"450 100 OFFCURVE",
"449 138 CURVE",
"429 133 OFFCURVE",
"402 130 OFFCURVE",
"373 130 CURVE SMOOTH",
"351 130 OFFCURVE",
"329 133 OFFCURVE",
"305 142 CURVE",
"293 162 OFFCURVE",
"285 182 OFFCURVE",
"285 209 CURVE SMOOTH",
"285 230 OFFCURVE",
"288 255 OFFCURVE",
"296 272 CURVE",
"330 282 OFFCURVE",
"354 285 OFFCURVE",
"382 285 CURVE SMOOTH",
"402 285 OFFCURVE",
"430 282 OFFCURVE",
"447 281 CURVE",
"447 318 OFFCURVE",
"454 370 OFFCURVE",
"469 416 CURVE",
"410 426 OFFCURVE",
"359 433 OFFCURVE",
"300 433 CURVE SMOOTH",
"213 433 OFFCURVE",
"138 422 OFFCURVE",
"67 398 CURVE"
);
}
);
width = 474;
}
);
unicode = 0107;
},
{
glyphname = ccircumflex;
lastChange = "2016-04-14 15:41:28 +0000";
layers = (
{
layerId = "7A0FC40B-77F8-4D14-AD08-D047673E78CB";
name = Regular;
paths = (
{
closed = 1;
nodes = (
"72 498 OFFCURVE",
"83 469 OFFCURVE",
"86 430 CURVE",
"137 446 OFFCURVE",
"205 458 OFFCURVE",
"262 466 CURVE",
"317 460 OFFCURVE",
"384 450 OFFCURVE",
"433 438 CURVE",
"436 477 OFFCURVE",
"447 506 OFFCURVE",
"460 540 CURVE",
"402 564 OFFCURVE",
"338 587 OFFCURVE",
"261 601 CURVE",
"194 580 OFFCURVE",
"124 558 OFFCURVE",
"63 532 CURVE"
);
},
{
closed = 1;
nodes = (
"23 334 OFFCURVE",
"12 278 OFFCURVE",
"12 212 CURVE SMOOTH",
"12 148 OFFCURVE",
"26 81 OFFCURVE",
"51 36 CURVE",
"121 -5 OFFCURVE",
"205 -10 OFFCURVE",
"289 -10 CURVE SMOOTH",
"358 -10 OFFCURVE",
"413 -2 OFFCURVE",
"470 12 CURVE",
"456 51 OFFCURVE",
"450 100 OFFCURVE",
"449 138 CURVE",
"429 133 OFFCURVE",
"402 130 OFFCURVE",
"373 130 CURVE SMOOTH",
"351 130 OFFCURVE",
"329 133 OFFCURVE",
"305 142 CURVE",
"293 162 OFFCURVE",
"285 182 OFFCURVE",
"285 209 CURVE SMOOTH",
"285 230 OFFCURVE",
"288 255 OFFCURVE",
"296 272 CURVE",
"330 282 OFFCURVE",
"354 285 OFFCURVE",
"382 285 CURVE SMOOTH",
"402 285 OFFCURVE",
"430 282 OFFCURVE",
"447 281 CURVE",
"447 318 OFFCURVE",
"454 370 OFFCURVE",
"469 416 CURVE",
"410 426 OFFCURVE",
"359 433 OFFCURVE",
"300 433 CURVE SMOOTH",
"213 433 OFFCURVE",
"138 422 OFFCURVE",
"67 398 CURVE"
);
}
);
width = 474;
}
);
unicode = 0109;
},
{
glyphname = cdotaccent;
lastChange = "2016-04-14 15:41:28 +0000";
layers = (
{
layerId = "7A0FC40B-77F8-4D14-AD08-D047673E78CB";
name = Regular;
paths = (
{
closed = 1;
nodes = (
"382 602 LINE",
"125 591 LINE",
"134 533 OFFCURVE",
"135 488 OFFCURVE",
"135 442 CURVE",
"167 444 OFFCURVE",
"199 446 OFFCURVE",
"235 446 CURVE SMOOTH",
"270 446 OFFCURVE",
"307 444 OFFCURVE",
"346 439 CURVE"
);
},
{
closed = 1;
nodes = (
"23 334 OFFCURVE",
"12 278 OFFCURVE",
"12 212 CURVE SMOOTH",
"12 148 OFFCURVE",
"26 81 OFFCURVE",
"51 36 CURVE",
"121 -5 OFFCURVE",
"205 -10 OFFCURVE",
"289 -10 CURVE SMOOTH",
"358 -10 OFFCURVE",
"413 -2 OFFCURVE",
"470 12 CURVE",
"456 51 OFFCURVE",
"450 100 OFFCURVE",
"449 138 CURVE",
"429 133 OFFCURVE",
"402 130 OFFCURVE",
"373 130 CURVE SMOOTH",
"351 130 OFFCURVE",
"329 133 OFFCURVE",
"305 142 CURVE",
"293 162 OFFCURVE",
"285 182 OFFCURVE",
"285 209 CURVE SMOOTH",
"285 230 OFFCURVE",
"288 255 OFFCURVE",
"296 272 CURVE",
"330 282 OFFCURVE",
"354 285 OFFCURVE",
"382 285 CURVE SMOOTH",
"402 285 OFFCURVE",
"430 282 OFFCURVE",
"447 281 CURVE",
"447 318 OFFCURVE",
"454 370 OFFCURVE",
"469 416 CURVE",
"410 426 OFFCURVE",
"359 433 OFFCURVE",
"300 433 CURVE SMOOTH",
"213 433 OFFCURVE",
"138 422 OFFCURVE",
"67 398 CURVE"
);
}
);
width = 474;
}
);
unicode = 010B;
},
{
glyphname = dieresis;
lastChange = "2016-04-14 15:42:29 +0000";
layers = (
{
layerId = "7A0FC40B-77F8-4D14-AD08-D047673E78CB";
name = Regular;
paths = (
{
closed = 1;
nodes = (
"203 460 LINE",
"252 459 OFFCURVE",
"298 457 OFFCURVE",
"346 454 CURVE",
"348 495 OFFCURVE",
"351 532 OFFCURVE",
"355 581 CURVE",
"308 578 OFFCURVE",
"251 576 OFFCURVE",
"194 574 CURVE"
);
},
{
closed = 1;
nodes = (
"154 574 LINE",
"101 573 OFFCURVE",
"47 570 OFFCURVE",
"0 570 CURVE",
"7 533 OFFCURVE",
"12 496 OFFCURVE",
"12 460 CURVE",
"163 460 LINE"
);
}
);
width = 366;
}
);
unicode = 00A8;
},
{
glyphname = macron;
lastChange = "2016-04-14 15:42:29 +0000";
layers = (
{
layerId = "7A0FC40B-77F8-4D14-AD08-D047673E78CB";
name = Regular;
paths = (
{
closed = 1;
nodes = (
"6 533 OFFCURVE",
"11 498 OFFCURVE",
"12 462 CURVE",
"123 461 OFFCURVE",
"238 460 OFFCURVE",
"346 454 CURVE",
"348 495 OFFCURVE",
"351 532 OFFCURVE",
"355 581 CURVE",
"253 576 OFFCURVE",
"111 572 OFFCURVE",
"0 570 CURVE"
);
}
);
width = 366;
}
);
unicode = 00AF;
},
{
glyphname = amacron;
lastChange = "2016-04-14 15:41:28 +0000";
layers = (
{
layerId = "7A0FC40B-77F8-4D14-AD08-D047673E78CB";
name = Regular;
paths = (
{
closed = 1;
nodes = (
"22 222 OFFCURVE",
"12 194 OFFCURVE",
"12 147 CURVE SMOOTH",
"12 101 OFFCURVE",
"21 47 OFFCURVE",
"51 9 CURVE",
"94 -6 OFFCURVE",
"133 -14 OFFCURVE",
"184 -14 CURVE SMOOTH",
"259 -14 OFFCURVE",
"308 2 OFFCURVE",
"333 14 CURVE",
"332 -1 OFFCURVE",
"332 -10 OFFCURVE",
"332 -10 CURVE",
"419 -3 OFFCURVE",
"510 2 OFFCURVE",
"604 2 CURVE",
"608 30 OFFCURVE",
"614 93 OFFCURVE",
"614 160 CURVE SMOOTH",
"614 249 OFFCURVE",
"603 346 OFFCURVE",
"559 385 CURVE",
"478 422 OFFCURVE",
"374 429 OFFCURVE",
"274 429 CURVE SMOOTH",
"145 429 OFFCURVE",
"57 407 OFFCURVE",
"57 407 CURVE",
"76 371 OFFCURVE",
"93 334 OFFCURVE",
"98 287 CURVE",
"98 287 OFFCURVE",
"157 298 OFFCURVE",
"234 298 CURVE SMOOTH",
"259 298 OFFCURVE",
"294 294 OFFCURVE",
"322 289 CURVE",
"330 281 OFFCURVE",
"334 272 OFFCURVE",
"334 259 CURVE",
"298 266 OFFCURVE",
"252 270 OFFCURVE",
"206 270 CURVE SMOOTH",
"136 270 OFFCURVE",
"88 266 OFFCURVE",
"34 248 CURVE"
);
},
{
closed = 1;
nodes = (
"358 150 OFFCURVE",
"356 138 OFFCURVE",
"350 123 CURVE",
"337 120 OFFCURVE",
"326 118 OFFCURVE",
"310 118 CURVE SMOOTH",
"298 118 OFFCURVE",
"285 120 OFFCURVE",
"276 124 CURVE",
"274 130 OFFCURVE",
"273 137 OFFCURVE",
"273 146 CURVE SMOOTH",
"273 154 OFFCURVE",
"274 161 OFFCURVE",
"278 166 CURVE",
"290 170 OFFCURVE",
"306 171 OFFCURVE",
"316 171 CURVE SMOOTH",
"332 171 OFFCURVE",
"343 170 OFFCURVE",
"359 166 CURVE"
);
},
{
closed = 1;
nodes = (
"144 533 OFFCURVE",
"149 498 OFFCURVE",
"150 462 CURVE",
"261 461 OFFCURVE",
"376 460 OFFCURVE",
"484 454 CURVE",
"486 495 OFFCURVE",
"489 532 OFFCURVE",
"493 581 CURVE",
"391 576 OFFCURVE",
"249 572 OFFCURVE",
"138 570 CURVE"
);
}
);
width = 632;
}
);
unicode = 0101;
},
{
glyphname = emacron;
lastChange = "2016-04-14 15:41:28 +0000";
layers = (
{
layerId = "7A0FC40B-77F8-4D14-AD08-D047673E78CB";
name = Regular;
paths = (
{
closed = 1;
nodes = (
"437 170 OFFCURVE",
"516 171 OFFCURVE",
"581 180 CURVE",
"596 211 OFFCURVE",
"604 261 OFFCURVE",
"604 304 CURVE SMOOTH",
"604 338 OFFCURVE",
"599 374 OFFCURVE",
"581 404 CURVE",
"486 423 OFFCURVE",
"418 433 OFFCURVE",
"324 433 CURVE SMOOTH",
"221 433 OFFCURVE",
"134 424 OFFCURVE",
"51 402 CURVE",
"14 342 OFFCURVE",
"4 286 OFFCURVE",
"4 224 CURVE SMOOTH",
"4 155 OFFCURVE",
"18 84 OFFCURVE",
"43 36 CURVE",
"137 -5 OFFCURVE",
"245 -10 OFFCURVE",
"361 -10 CURVE SMOOTH",
"446 -10 OFFCURVE",
"513 0 OFFCURVE",
"582 16 CURVE",
"569 55 OFFCURVE",
"562 104 OFFCURVE",
"561 142 CURVE",
"519 134 OFFCURVE",
"470 130 OFFCURVE",
"413 130 CURVE SMOOTH",
"377 130 OFFCURVE",
"340 133 OFFCURVE",
"297 142 CURVE",
"293 151 OFFCURVE",
"289 162 OFFCURVE",
"286 173 CURVE",
"309 170 OFFCURVE",
"333 170 OFFCURVE",
"359 170 CURVE SMOOTH"
);
},
{
closed = 1;
nodes = (
"365 302 OFFCURVE",
"366 292 OFFCURVE",
"367 278 CURVE",
"329 274 OFFCURVE",
"295 274 OFFCURVE",
"263 274 CURVE",
"265 284 OFFCURVE",
"268 295 OFFCURVE",
"272 304 CURVE",
"306 314 OFFCURVE",
"330 317 OFFCURVE",
"359 317 CURVE"
);
},
{
closed = 1;
nodes = (
"136 533 OFFCURVE",
"141 498 OFFCURVE",
"142 462 CURVE",
"253 461 OFFCURVE",
"368 460 OFFCURVE",
"476 454 CURVE",
"478 495 OFFCURVE",
"481 532 OFFCURVE",
"485 581 CURVE",
"383 576 OFFCURVE",
"241 572 OFFCURVE",
"130 570 CURVE"
);
}
);
width = 616;
}
);
unicode = 0113;
},
{
glyphname = imacron;
lastChange = "2016-04-14 15:41:28 +0000";
layers = (
{
layerId = "7A0FC40B-77F8-4D14-AD08-D047673E78CB";
name = Regular;
paths = (
{
closed = 1;
nodes = (
"277 416 LINE",
"217 407 OFFCURVE",
"150 407 OFFCURVE",
"85 407 CURVE SMOOTH",
"64 407 OFFCURVE",
"43 407 OFFCURVE",
"23 408 CURVE",
"29 270 OFFCURVE",
"29 129 OFFCURVE",
"29 -10 CURVE",
"107 -2 OFFCURVE",
"200 -1 OFFCURVE",
"285 0 CURVE"
);
},
{
closed = 1;
nodes = (
"-11 533 OFFCURVE",
"-6 498 OFFCURVE",
"-5 462 CURVE",
"106 461 OFFCURVE",
"221 460 OFFCURVE",
"329 454 CURVE",
"331 495 OFFCURVE",
"334 532 OFFCURVE",
"338 581 CURVE",
"236 576 OFFCURVE",
"94 572 OFFCURVE",
"-17 570 CURVE"
);
}
);
width = 321;
}
);
unicode = 012B;
},
{
glyphname = omacron;
lastChange = "2016-04-14 15:41:28 +0000";
layers = (
{
layerId = "7A0FC40B-77F8-4D14-AD08-D047673E78CB";
name = Regular;
paths = (
{
closed = 1;
nodes = (
"443 -10 OFFCURVE",
"533 10 OFFCURVE",
"592 50 CURVE",
"618 101 OFFCURVE",
"633 146 OFFCURVE",
"633 223 CURVE SMOOTH",
"633 293 OFFCURVE",
"622 336 OFFCURVE",
"601 379 CURVE",
"541 414 OFFCURVE",
"447 430 OFFCURVE",
"327 430 CURVE SMOOTH",
"208 430 OFFCURVE",
"117 415 OFFCURVE",
"56 386 CURVE",
"28 343 OFFCURVE",
"12 292 OFFCURVE",
"12 217 CURVE SMOOTH",
"12 126 OFFCURVE",
"34 71 OFFCURVE",
"77 26 CURVE",
"134 2 OFFCURVE",
"217 -10 OFFCURVE",
"318 -10 CURVE SMOOTH"
);
},
{
closed = 1;
nodes = (
"299 287 OFFCURVE",
"310 291 OFFCURVE",
"328 291 CURVE SMOOTH",
"339 291 OFFCURVE",
"348 291 OFFCURVE",
"355 285 CURVE",
"363 272 OFFCURVE",
"367 248 OFFCURVE",
"367 213 CURVE SMOOTH",
"367 172 OFFCURVE",
"364 140 OFFCURVE",
"353 124 CURVE",
"345 117 OFFCURVE",
"334 114 OFFCURVE",
"319 114 CURVE SMOOTH",
"302 114 OFFCURVE",
"292 117 OFFCURVE",
"286 124 CURVE",
"277 138 OFFCURVE",
"277 164 OFFCURVE",
"277 203 CURVE SMOOTH",
"277 230 OFFCURVE",
"280 254 OFFCURVE",
"289 279 CURVE"
);
},
{
closed = 1;
nodes = (
"151 533 OFFCURVE",
"156 498 OFFCURVE",
"157 462 CURVE",
"268 461 OFFCURVE",
"383 460 OFFCURVE",
"491 454 CURVE",
"493 495 OFFCURVE",
"496 532 OFFCURVE",
"500 581 CURVE",
"398 576 OFFCURVE",
"256 572 OFFCURVE",
"145 570 CURVE"
);
}
);
width = 645;
}
);
unicode = 014D;
},
{
glyphname = edieresis;
lastChange = "2016-04-14 15:41:28 +0000";
layers = (
{
layerId = "7A0FC40B-77F8-4D14-AD08-D047673E78CB";
name = Regular;
paths = (
{
closed = 1;
nodes = (
"437 170 OFFCURVE",
"516 171 OFFCURVE",
"581 180 CURVE",
"596 211 OFFCURVE",
"604 261 OFFCURVE",
"604 304 CURVE SMOOTH",
"604 338 OFFCURVE",
"599 374 OFFCURVE",
"581 404 CURVE",
"486 423 OFFCURVE",
"418 433 OFFCURVE",
"324 433 CURVE SMOOTH",
"221 433 OFFCURVE",
"134 424 OFFCURVE",
"51 402 CURVE",
"14 342 OFFCURVE",
"4 286 OFFCURVE",
"4 224 CURVE SMOOTH",
"4 155 OFFCURVE",
"18 84 OFFCURVE",
"43 36 CURVE",
"137 -5 OFFCURVE",
"245 -10 OFFCURVE",
"361 -10 CURVE SMOOTH",
"446 -10 OFFCURVE",
"513 0 OFFCURVE",
"582 16 CURVE",
"569 55 OFFCURVE",
"562 104 OFFCURVE",
"561 142 CURVE",
"519 134 OFFCURVE",
"470 130 OFFCURVE",
"413 130 CURVE SMOOTH",
"377 130 OFFCURVE",
"340 133 OFFCURVE",
"297 142 CURVE",
"293 151 OFFCURVE",
"289 162 OFFCURVE",
"286 173 CURVE",
"309 170 OFFCURVE",
"333 170 OFFCURVE",
"359 170 CURVE SMOOTH"
);
},
{
closed = 1;
nodes = (
"365 302 OFFCURVE",
"366 292 OFFCURVE",
"367 278 CURVE",
"329 274 OFFCURVE",
"295 274 OFFCURVE",
"263 274 CURVE",
"265 284 OFFCURVE",
"268 295 OFFCURVE",
"272 304 CURVE",
"306 314 OFFCURVE",
"330 317 OFFCURVE",
"359 317 CURVE"
);
},
{
closed = 1;
nodes = (
"333 460 LINE",
"382 459 OFFCURVE",
"428 457 OFFCURVE",
"476 454 CURVE",
"478 495 OFFCURVE",
"481 532 OFFCURVE",
"485 581 CURVE",
"438 578 OFFCURVE",
"381 576 OFFCURVE",
"324 574 CURVE"
);
},
{
closed = 1;
nodes = (
"284 574 LINE",
"231 573 OFFCURVE",
"177 570 OFFCURVE",
"130 570 CURVE",
"137 533 OFFCURVE",
"142 496 OFFCURVE",
"142 460 CURVE",
"293 460 LINE"
);
}
);
width = 616;
}
);
unicode = 00EB;
},
{
glyphname = adieresis;
lastChange = "2016-04-14 15:41:28 +0000";
layers = (
{
layerId = "7A0FC40B-77F8-4D14-AD08-D047673E78CB";
name = Regular;
paths = (
{
closed = 1;
nodes = (
"22 222 OFFCURVE",
"12 194 OFFCURVE",
"12 147 CURVE SMOOTH",
"12 101 OFFCURVE",
"21 47 OFFCURVE",
"51 9 CURVE",
"94 -6 OFFCURVE",
"133 -14 OFFCURVE",
"184 -14 CURVE SMOOTH",
"259 -14 OFFCURVE",
"308 2 OFFCURVE",
"333 14 CURVE",
"332 -1 OFFCURVE",
"332 -10 OFFCURVE",
"332 -10 CURVE",
"419 -3 OFFCURVE",
"510 2 OFFCURVE",
"604 2 CURVE",
"608 30 OFFCURVE",
"614 93 OFFCURVE",
"614 160 CURVE SMOOTH",
"614 249 OFFCURVE",
"603 346 OFFCURVE",
"559 385 CURVE",
"478 422 OFFCURVE",
"374 429 OFFCURVE",
"274 429 CURVE SMOOTH",
"145 429 OFFCURVE",
"57 407 OFFCURVE",
"57 407 CURVE",
"76 371 OFFCURVE",
"93 334 OFFCURVE",
"98 287 CURVE",
"98 287 OFFCURVE",
"157 298 OFFCURVE",
"234 298 CURVE SMOOTH",
"259 298 OFFCURVE",
"294 294 OFFCURVE",
"322 289 CURVE",
"330 281 OFFCURVE",
"334 272 OFFCURVE",
"334 259 CURVE",
"298 266 OFFCURVE",
"252 270 OFFCURVE",
"206 270 CURVE SMOOTH",
"136 270 OFFCURVE",
"88 266 OFFCURVE",
"34 248 CURVE"
);
},
{
closed = 1;
nodes = (
"358 150 OFFCURVE",
"356 138 OFFCURVE",
"350 123 CURVE",
"337 120 OFFCURVE",
"326 118 OFFCURVE",
"310 118 CURVE SMOOTH",
"298 118 OFFCURVE",
"285 120 OFFCURVE",
"276 124 CURVE",
"274 130 OFFCURVE",
"273 137 OFFCURVE",
"273 146 CURVE SMOOTH",
"273 154 OFFCURVE",
"274 161 OFFCURVE",
"278 166 CURVE",
"290 170 OFFCURVE",
"306 171 OFFCURVE",
"316 171 CURVE SMOOTH",
"332 171 OFFCURVE",
"343 170 OFFCURVE",
"359 166 CURVE"
);
},
{
closed = 1;
nodes = (
"341 460 LINE",
"390 459 OFFCURVE",
"436 457 OFFCURVE",
"484 454 CURVE",
"486 495 OFFCURVE",
"489 532 OFFCURVE",
"493 581 CURVE",
"446 578 OFFCURVE",
"389 576 OFFCURVE",
"332 574 CURVE"
);
},
{
closed = 1;
nodes = (
"292 574 LINE",
"239 573 OFFCURVE",
"185 570 OFFCURVE",
"138 570 CURVE",
"145 533 OFFCURVE",
"150 496 OFFCURVE",
"150 460 CURVE",
"301 460 LINE"
);
}
);
width = 632;
}
);
unicode = 00E4;
},
{
glyphname = idieresis;
lastChange = "2016-04-14 15:41:28 +0000";
layers = (
{
layerId = "7A0FC40B-77F8-4D14-AD08-D047673E78CB";
name = Regular;
paths = (
{
closed = 1;
nodes = (
"277 416 LINE",
"217 407 OFFCURVE",
"150 407 OFFCURVE",
"85 407 CURVE SMOOTH",
"64 407 OFFCURVE",
"43 407 OFFCURVE",
"23 408 CURVE",
"29 270 OFFCURVE",
"29 129 OFFCURVE",
"29 -10 CURVE",
"107 -2 OFFCURVE",
"200 -1 OFFCURVE",
"285 0 CURVE"
);
},
{
closed = 1;
nodes = (
"186 460 LINE",
"235 459 OFFCURVE",
"281 457 OFFCURVE",
"329 454 CURVE",
"331 495 OFFCURVE",
"334 532 OFFCURVE",
"338 581 CURVE",
"291 578 OFFCURVE",
"234 576 OFFCURVE",
"177 574 CURVE"
);
},
{
closed = 1;
nodes = (
"137 574 LINE",
"84 573 OFFCURVE",
"30 570 OFFCURVE",
"-17 570 CURVE",
"-10 533 OFFCURVE",
"-5 496 OFFCURVE",
"-5 460 CURVE",
"146 460 LINE"
);
}
);
width = 321;
}
);
unicode = 00EF;
},
{
glyphname = icircumflex;
lastChange = "2016-04-14 15:41:28 +0000";
layers = (
{
layerId = "7A0FC40B-77F8-4D14-AD08-D047673E78CB";
name = Regular;
paths = (
{
closed = 1;
nodes = (
"277 416 LINE",
"217 407 OFFCURVE",
"150 407 OFFCURVE",
"85 407 CURVE SMOOTH",
"64 407 OFFCURVE",
"43 407 OFFCURVE",
"23 408 CURVE",
"29 270 OFFCURVE",
"29 129 OFFCURVE",
"29 -10 CURVE",
"107 -2 OFFCURVE",
"200 -1 OFFCURVE",
"285 0 CURVE"
);
},
{
closed = 1;
nodes = (
"-29 498 OFFCURVE",
"-18 469 OFFCURVE",
"-15 430 CURVE",
"36 446 OFFCURVE",
"104 458 OFFCURVE",
"161 466 CURVE",
"216 460 OFFCURVE",
"283 450 OFFCURVE",
"332 438 CURVE",
"335 477 OFFCURVE",
"346 506 OFFCURVE",
"359 540 CURVE",
"301 564 OFFCURVE",
"237 587 OFFCURVE",
"160 601 CURVE",
"93 580 OFFCURVE",
"23 558 OFFCURVE",
"-38 532 CURVE"
);
}
);
width = 321;
}
);
unicode = 00EE;
},
{
glyphname = ibreve;
lastChange = "2016-04-14 15:41:28 +0000";
layers = (
{
layerId = "7A0FC40B-77F8-4D14-AD08-D047673E78CB";
name = Regular;
paths = (
{
closed = 1;
nodes = (
"277 416 LINE",
"217 407 OFFCURVE",
"150 407 OFFCURVE",
"85 407 CURVE SMOOTH",
"64 407 OFFCURVE",
"43 407 OFFCURVE",
"23 408 CURVE",
"29 270 OFFCURVE",
"29 129 OFFCURVE",
"29 -10 CURVE",
"107 -2 OFFCURVE",
"200 -1 OFFCURVE",
"285 0 CURVE"
);
},
{
closed = 1;
nodes = (
"331 515 OFFCURVE",
"326 552 OFFCURVE",
"323 601 CURVE",
"282 579 OFFCURVE",
"224 561 OFFCURVE",
"161 561 CURVE SMOOTH",
"100 561 OFFCURVE",
"45 570 OFFCURVE",
"7 581 CURVE",
"3 540 OFFCURVE",
"-6 509 OFFCURVE",
"-16 474 CURVE",
"39 446 OFFCURVE",
"99 438 OFFCURVE",
"161 438 CURVE SMOOTH",
"223 438 OFFCURVE",
"282 446 OFFCURVE",
"338 474 CURVE"
);
}
);
width = 321;
}
);
unicode = 012D;
},
{
glyphname = obreve;
lastChange = "2016-04-14 15:41:28 +0000";
layers = (
{
layerId = "7A0FC40B-77F8-4D14-AD08-D047673E78CB";
name = Regular;
paths = (
{
closed = 1;
nodes = (
"492 515 OFFCURVE",
"487 552 OFFCURVE",
"484 601 CURVE",
"443 579 OFFCURVE",
"385 561 OFFCURVE",
"322 561 CURVE SMOOTH",
"261 561 OFFCURVE",
"206 570 OFFCURVE",
"168 581 CURVE",
"164 540 OFFCURVE",
"155 509 OFFCURVE",
"145 474 CURVE",
"200 446 OFFCURVE",
"260 438 OFFCURVE",
"322 438 CURVE SMOOTH",
"384 438 OFFCURVE",
"443 446 OFFCURVE",
"499 474 CURVE"
);
},
{
closed = 1;
nodes = (
"443 -10 OFFCURVE",
"533 10 OFFCURVE",
"592 50 CURVE",
"618 101 OFFCURVE",
"633 146 OFFCURVE",
"633 223 CURVE SMOOTH",
"633 293 OFFCURVE",
"622 336 OFFCURVE",
"601 379 CURVE",
"541 414 OFFCURVE",
"447 430 OFFCURVE",
"327 430 CURVE SMOOTH",
"208 430 OFFCURVE",
"117 415 OFFCURVE",
"56 386 CURVE",
"28 343 OFFCURVE",
"12 292 OFFCURVE",
"12 217 CURVE SMOOTH",
"12 126 OFFCURVE",
"34 71 OFFCURVE",
"77 26 CURVE",
"134 2 OFFCURVE",
"217 -10 OFFCURVE",
"318 -10 CURVE SMOOTH"
);
},
{
closed = 1;
nodes = (
"299 287 OFFCURVE",
"310 291 OFFCURVE",
"328 291 CURVE SMOOTH",
"339 291 OFFCURVE",
"348 291 OFFCURVE",
"355 285 CURVE",
"363 272 OFFCURVE",
"367 248 OFFCURVE",
"367 213 CURVE SMOOTH",
"367 172 OFFCURVE",
"364 140 OFFCURVE",
"353 124 CURVE",
"345 117 OFFCURVE",
"334 114 OFFCURVE",
"319 114 CURVE SMOOTH",
"302 114 OFFCURVE",
"292 117 OFFCURVE",
"286 124 CURVE",
"277 138 OFFCURVE",
"277 164 OFFCURVE",
"277 203 CURVE SMOOTH",
"277 230 OFFCURVE",
"280 254 OFFCURVE",
"289 279 CURVE"
);
}
);
width = 645;
}
);
unicode = 014F;
},
{
glyphname = ocircumflex;
lastChange = "2016-04-14 15:41:28 +0000";
layers = (
{
layerId = "7A0FC40B-77F8-4D14-AD08-D047673E78CB";
name = Regular;
paths = (
{
closed = 1;
nodes = (
"132 498 OFFCURVE",
"143 469 OFFCURVE",
"146 430 CURVE",
"197 446 OFFCURVE",
"265 458 OFFCURVE",
"322 466 CURVE",
"377 460 OFFCURVE",
"444 450 OFFCURVE",
"493 438 CURVE",
"496 477 OFFCURVE",
"507 506 OFFCURVE",
"520 540 CURVE",
"462 564 OFFCURVE",
"398 587 OFFCURVE",
"321 601 CURVE",
"254 580 OFFCURVE",
"184 558 OFFCURVE",
"123 532 CURVE"
);
},
{
closed = 1;
nodes = (
"443 -10 OFFCURVE",
"533 10 OFFCURVE",
"592 50 CURVE",
"618 101 OFFCURVE",
"633 146 OFFCURVE",
"633 223 CURVE SMOOTH",
"633 293 OFFCURVE",
"622 336 OFFCURVE",
"601 379 CURVE",
"541 414 OFFCURVE",
"447 430 OFFCURVE",
"327 430 CURVE SMOOTH",
"208 430 OFFCURVE",
"117 415 OFFCURVE",
"56 386 CURVE",
"28 343 OFFCURVE",
"12 292 OFFCURVE",
"12 217 CURVE SMOOTH",
"12 126 OFFCURVE",
"34 71 OFFCURVE",
"77 26 CURVE",
"134 2 OFFCURVE",
"217 -10 OFFCURVE",
"318 -10 CURVE SMOOTH"
);
},
{
closed = 1;
nodes = (
"299 287 OFFCURVE",
"310 291 OFFCURVE",
"328 291 CURVE SMOOTH",
"339 291 OFFCURVE",
"348 291 OFFCURVE",
"355 285 CURVE",
"363 272 OFFCURVE",
"367 248 OFFCURVE",
"367 213 CURVE SMOOTH",
"367 172 OFFCURVE",
"364 140 OFFCURVE",
"353 124 CURVE",
"345 117 OFFCURVE",
"334 114 OFFCURVE",
"319 114 CURVE SMOOTH",
"302 114 OFFCURVE",
"292 117 OFFCURVE",
"286 124 CURVE",
"277 138 OFFCURVE",
"277 164 OFFCURVE",
"277 203 CURVE SMOOTH",
"277 230 OFFCURVE",
"280 254 OFFCURVE",
"289 279 CURVE"
);
}
);
width = 645;
}
);
unicode = 00F4;
},
{
glyphname = odieresis;
lastChange = "2016-04-14 15:41:28 +0000";
layers = (
{
layerId = "7A0FC40B-77F8-4D14-AD08-D047673E78CB";
name = Regular;
paths = (
{
closed = 1;
nodes = (
"348 460 LINE",
"397 459 OFFCURVE",
"443 457 OFFCURVE",
"491 454 CURVE",
"493 495 OFFCURVE",
"496 532 OFFCURVE",
"500 581 CURVE",
"453 578 OFFCURVE",
"396 576 OFFCURVE",
"339 574 CURVE"
);
},
{
closed = 1;
nodes = (
"299 574 LINE",
"246 573 OFFCURVE",
"192 570 OFFCURVE",
"145 570 CURVE",
"152 533 OFFCURVE",
"157 496 OFFCURVE",
"157 460 CURVE",
"308 460 LINE"
);
},
{
closed = 1;
nodes = (
"443 -10 OFFCURVE",
"533 10 OFFCURVE",
"592 50 CURVE",
"618 101 OFFCURVE",
"633 146 OFFCURVE",
"633 223 CURVE SMOOTH",
"633 293 OFFCURVE",
"622 336 OFFCURVE",
"601 379 CURVE",
"541 414 OFFCURVE",
"447 430 OFFCURVE",
"327 430 CURVE SMOOTH",
"208 430 OFFCURVE",
"117 415 OFFCURVE",
"56 386 CURVE",
"28 343 OFFCURVE",
"12 292 OFFCURVE",
"12 217 CURVE SMOOTH",
"12 126 OFFCURVE",
"34 71 OFFCURVE",
"77 26 CURVE",
"134 2 OFFCURVE",
"217 -10 OFFCURVE",
"318 -10 CURVE SMOOTH"
);
},
{
closed = 1;
nodes = (
"299 287 OFFCURVE",
"310 291 OFFCURVE",
"328 291 CURVE SMOOTH",
"339 291 OFFCURVE",
"348 291 OFFCURVE",
"355 285 CURVE",
"363 272 OFFCURVE",
"367 248 OFFCURVE",
"367 213 CURVE SMOOTH",
"367 172 OFFCURVE",
"364 140 OFFCURVE",
"353 124 CURVE",
"345 117 OFFCURVE",
"334 114 OFFCURVE",
"319 114 CURVE SMOOTH",
"302 114 OFFCURVE",
"292 117 OFFCURVE",
"286 124 CURVE",
"277 138 OFFCURVE",
"277 164 OFFCURVE",
"277 203 CURVE SMOOTH",
"277 230 OFFCURVE",
"280 254 OFFCURVE",
"289 279 CURVE"
);
}
);
width = 645;
}
);
unicode = 00F6;
},
{
glyphname = ubreve;
lastChange = "2016-04-14 15:41:28 +0000";
layers = (
{
layerId = "7A0FC40B-77F8-4D14-AD08-D047673E78CB";
name = Regular;
paths = (
{
closed = 1;
nodes = (
"482 515 OFFCURVE",
"477 552 OFFCURVE",
"474 601 CURVE",
"433 579 OFFCURVE",
"375 561 OFFCURVE",
"312 561 CURVE SMOOTH",
"251 561 OFFCURVE",
"196 570 OFFCURVE",
"158 581 CURVE",
"154 540 OFFCURVE",
"145 509 OFFCURVE",
"135 474 CURVE",
"190 446 OFFCURVE",
"250 438 OFFCURVE",
"312 438 CURVE SMOOTH",
"374 438 OFFCURVE",
"433 446 OFFCURVE",
"489 474 CURVE"
);
},
{
closed = 1;
nodes = (
"350 226 LINE",
"330 208 OFFCURVE",
"312 201 OFFCURVE",
"291 201 CURVE",
"286 231 OFFCURVE",
"282 267 OFFCURVE",
"282 309 CURVE SMOOTH",
"282 341 OFFCURVE",
"284 384 OFFCURVE",
"290 430 CURVE",
"235 425 OFFCURVE",
"184 422 OFFCURVE",
"132 422 CURVE SMOOTH",
"98 422 OFFCURVE",
"62 422 OFFCURVE",
"28 423 CURVE",
"22 359 OFFCURVE",
"20 294 OFFCURVE",
"20 236 CURVE SMOOTH",
"20 149 OFFCURVE",
"26 89 OFFCURVE",
"51 27 CURVE",
"87 4 OFFCURVE",
"122 -10 OFFCURVE",
"177 -10 CURVE SMOOTH",
"221 -10 OFFCURVE",
"268 0 OFFCURVE",
"324 38 CURVE",
"319 -10 LINE",
"608 1 LINE",
"599 152 OFFCURVE",
"599 289 OFFCURVE",
"599 442 CURVE",
"516 432 OFFCURVE",
"429 432 OFFCURVE",
"339 432 CURVE"
);
}
);
width = 624;
}
);
unicode = 016D;
},
{
glyphname = ucircumflex;
lastChange = "2016-04-14 15:41:28 +0000";
layers = (
{
layerId = "7A0FC40B-77F8-4D14-AD08-D047673E78CB";
name = Regular;
paths = (
{
closed = 1;
nodes = (
"122 498 OFFCURVE",
"133 469 OFFCURVE",
"136 430 CURVE",
"187 446 OFFCURVE",
"255 458 OFFCURVE",
"312 466 CURVE",
"367 460 OFFCURVE",
"434 450 OFFCURVE",
"483 438 CURVE",
"486 477 OFFCURVE",
"497 506 OFFCURVE",
"510 540 CURVE",
"452 564 OFFCURVE",
"388 587 OFFCURVE",
"311 601 CURVE",
"244 580 OFFCURVE",
"174 558 OFFCURVE",
"113 532 CURVE"
);
},
{
closed = 1;
nodes = (
"350 226 LINE",
"330 208 OFFCURVE",
"312 201 OFFCURVE",
"291 201 CURVE",
"286 231 OFFCURVE",
"282 267 OFFCURVE",
"282 309 CURVE SMOOTH",
"282 341 OFFCURVE",
"284 384 OFFCURVE",
"290 430 CURVE",
"235 425 OFFCURVE",
"184 422 OFFCURVE",
"132 422 CURVE SMOOTH",
"98 422 OFFCURVE",
"62 422 OFFCURVE",
"28 423 CURVE",
"22 359 OFFCURVE",
"20 294 OFFCURVE",
"20 236 CURVE SMOOTH",
"20 149 OFFCURVE",
"26 89 OFFCURVE",
"51 27 CURVE",
"87 4 OFFCURVE",
"122 -10 OFFCURVE",
"177 -10 CURVE SMOOTH",
"221 -10 OFFCURVE",
"268 0 OFFCURVE",
"324 38 CURVE",
"319 -10 LINE",
"608 1 LINE",
"599 152 OFFCURVE",
"599 289 OFFCURVE",
"599 442 CURVE",
"516 432 OFFCURVE",
"429 432 OFFCURVE",
"339 432 CURVE"
);
}
);
width = 624;
}
);
unicode = 00FB;
},
{
glyphname = udieresis;
lastChange = "2016-04-14 15:41:28 +0000";
layers = (
{
layerId = "7A0FC40B-77F8-4D14-AD08-D047673E78CB";
name = Regular;
paths = (
{
closed = 1;
nodes = (
"337 460 LINE",
"386 459 OFFCURVE",
"432 457 OFFCURVE",
"480 454 CURVE",
"482 495 OFFCURVE",
"485 532 OFFCURVE",
"489 581 CURVE",
"442 578 OFFCURVE",
"385 576 OFFCURVE",
"328 574 CURVE"
);
},
{
closed = 1;
nodes = (
"288 574 LINE",
"235 573 OFFCURVE",
"181 570 OFFCURVE",
"134 570 CURVE",
"141 533 OFFCURVE",
"146 496 OFFCURVE",
"146 460 CURVE",
"297 460 LINE"
);
},
{
closed = 1;
nodes = (
"350 226 LINE",
"330 208 OFFCURVE",
"312 201 OFFCURVE",
"291 201 CURVE",
"286 231 OFFCURVE",
"282 267 OFFCURVE",
"282 309 CURVE SMOOTH",
"282 341 OFFCURVE",
"284 384 OFFCURVE",
"290 430 CURVE",
"235 425 OFFCURVE",
"184 422 OFFCURVE",
"132 422 CURVE SMOOTH",
"98 422 OFFCURVE",
"62 422 OFFCURVE",
"28 423 CURVE",
"22 359 OFFCURVE",
"20 294 OFFCURVE",
"20 236 CURVE SMOOTH",
"20 149 OFFCURVE",
"26 89 OFFCURVE",
"51 27 CURVE",
"87 4 OFFCURVE",
"122 -10 OFFCURVE",
"177 -10 CURVE SMOOTH",
"221 -10 OFFCURVE",
"268 0 OFFCURVE",
"324 38 CURVE",
"319 -10 LINE",
"608 1 LINE",
"599 152 OFFCURVE",
"599 289 OFFCURVE",
"599 442 CURVE",
"516 432 OFFCURVE",
"429 432 OFFCURVE",
"339 432 CURVE"
);
}
);
width = 624;
}
);
unicode = 00FC;
},
{
glyphname = umacron;
lastChange = "2016-04-14 15:41:28 +0000";
layers = (
{
layerId = "7A0FC40B-77F8-4D14-AD08-D047673E78CB";
name = Regular;
paths = (
{
closed = 1;
nodes = (
"140 533 OFFCURVE",
"145 498 OFFCURVE",
"146 462 CURVE",
"257 461 OFFCURVE",
"372 460 OFFCURVE",
"480 454 CURVE",
"482 495 OFFCURVE",
"485 532 OFFCURVE",
"489 581 CURVE",
"387 576 OFFCURVE",
"245 572 OFFCURVE",
"134 570 CURVE"
);
},
{
closed = 1;
nodes = (
"350 226 LINE",
"330 208 OFFCURVE",
"312 201 OFFCURVE",
"291 201 CURVE",
"286 231 OFFCURVE",
"282 267 OFFCURVE",
"282 309 CURVE SMOOTH",
"282 341 OFFCURVE",
"284 384 OFFCURVE",
"290 430 CURVE",
"235 425 OFFCURVE",
"184 422 OFFCURVE",
"132 422 CURVE SMOOTH",
"98 422 OFFCURVE",
"62 422 OFFCURVE",
"28 423 CURVE",
"22 359 OFFCURVE",
"20 294 OFFCURVE",
"20 236 CURVE SMOOTH",
"20 149 OFFCURVE",
"26 89 OFFCURVE",
"51 27 CURVE",
"87 4 OFFCURVE",
"122 -10 OFFCURVE",
"177 -10 CURVE SMOOTH",
"221 -10 OFFCURVE",
"268 0 OFFCURVE",
"324 38 CURVE",
"319 -10 LINE",
"608 1 LINE",
"599 152 OFFCURVE",
"599 289 OFFCURVE",
"599 442 CURVE",
"516 432 OFFCURVE",
"429 432 OFFCURVE",
"339 432 CURVE"
);
}
);
width = 624;
}
);
unicode = 016B;
},
{
glyphname = Eacute;
lastChange = "2016-04-14 15:41:28 +0000";
layers = (
{
layerId = "7A0FC40B-77F8-4D14-AD08-D047673E78CB";
name = Regular;
paths = (
{
closed = 1;
nodes = (
"289 119 LINE",
"281 169 LINE",
"486 177 LINE",
"500 279 LINE",
"428 278 OFFCURVE",
"358 275 OFFCURVE",
"290 274 CURVE",
"290 323 LINE",
"377 323 OFFCURVE",
"456 322 OFFCURVE",
"534 319 CURVE",
"544 450 LINE",
"371 445 OFFCURVE",
"196 440 OFFCURVE",
"17 440 CURVE",
"17 287 OFFCURVE",
"14 145 OFFCURVE",
"8 -10 CURVE",
"189 -4 OFFCURVE",
"366 -1 OFFCURVE",
"543 1 CURVE",
"554 128 LINE"
);
},
{
closed = 1;
nodes = (
"127 528 OFFCURVE",
"138 493 OFFCURVE",
"140 457 CURVE",
"256 474 OFFCURVE",
"377 481 OFFCURVE",
"490 485 CURVE",
"479 529 OFFCURVE",
"471 568 OFFCURVE",
"467 620 CURVE",
"365 594 OFFCURVE",
"223 576 OFFCURVE",
"112 565 CURVE"
);
}
);
width = 566;
}
);
unicode = 00C9;
},
{
glyphname = tilde;
lastChange = "2016-04-14 15:42:29 +0000";
layers = (
{
layerId = "7A0FC40B-77F8-4D14-AD08-D047673E78CB";
name = Regular;
paths = (
{
closed = 1;
nodes = (
"13 522 OFFCURVE",
"17 493 OFFCURVE",
"18 454 CURVE",
"39 466 OFFCURVE",
"70 478 OFFCURVE",
"104 478 CURVE SMOOTH",
"162 478 OFFCURVE",
"197 438 OFFCURVE",
"252 438 CURVE SMOOTH",
"290 438 OFFCURVE",
"328 446 OFFCURVE",
"364 474 CURVE",
"355 515 OFFCURVE",
"349 552 OFFCURVE",
"346 601 CURVE",
"323 579 OFFCURVE",
"289 561 OFFCURVE",
"252 561 CURVE SMOOTH",
"197 561 OFFCURVE",
"157 593 OFFCURVE",
"104 593 CURVE SMOOTH",
"70 593 OFFCURVE",
"39 583 OFFCURVE",
"8 556 CURVE"
);
}
);
width = 366;
}
);
unicode = 02DC;
},
{
glyphname = ring;
lastChange = "2016-04-14 15:42:29 +0000";
layers = (
{
layerId = "7A0FC40B-77F8-4D14-AD08-D047673E78CB";
name = Regular;
paths = (
{
closed = 1;
nodes = (
"38 551 OFFCURVE",
"34 537 OFFCURVE",
"34 522 CURVE SMOOTH",
"34 502 OFFCURVE",
"40 483 OFFCURVE",
"54 462 CURVE",
"83 450 OFFCURVE",
"112 444 OFFCURVE",
"142 444 CURVE SMOOTH",
"171 444 OFFCURVE",
"202 450 OFFCURVE",
"233 459 CURVE",
"260 484 OFFCURVE",
"271 515 OFFCURVE",
"271 549 CURVE SMOOTH",
"271 558 OFFCURVE",
"270 568 OFFCURVE",
"269 578 CURVE",
"235 589 OFFCURVE",
"202 595 OFFCURVE",
"168 595 CURVE SMOOTH",
"127 595 OFFCURVE",
"86 586 OFFCURVE",
"44 567 CURVE"
);
},
{
closed = 1;
nodes = (
"187 494 OFFCURVE",
"170 490 OFFCURVE",
"154 490 CURVE SMOOTH",
"141 490 OFFCURVE",
"128 490 OFFCURVE",
"114 497 CURVE",
"114 508 OFFCURVE",
"114 520 OFFCURVE",
"121 528 CURVE",
"134 538 OFFCURVE",
"150 542 OFFCURVE",
"164 542 CURVE SMOOTH",
"179 542 OFFCURVE",
"194 538 OFFCURVE",
"201 534 CURVE",
"206 529 OFFCURVE",
"209 524 OFFCURVE",
"209 519 CURVE SMOOTH",
"209 512 OFFCURVE",
"207 507 OFFCURVE",
"204 501 CURVE"
);
}
);
width = 313;
}
);
unicode = 02DA;
},
{
glyphname = aring;
lastChange = "2016-04-14 15:41:28 +0000";
layers = (
{
layerId = "7A0FC40B-77F8-4D14-AD08-D047673E78CB";
name = Regular;
paths = (
{
closed = 1;
nodes = (
"201 551 OFFCURVE",
"197 537 OFFCURVE",
"197 522 CURVE SMOOTH",
"197 502 OFFCURVE",
"203 483 OFFCURVE",
"217 462 CURVE",
"246 450 OFFCURVE",
"275 444 OFFCURVE",
"305 444 CURVE SMOOTH",
"334 444 OFFCURVE",
"365 450 OFFCURVE",
"396 459 CURVE",
"423 484 OFFCURVE",
"434 515 OFFCURVE",
"434 549 CURVE SMOOTH",
"434 558 OFFCURVE",
"433 568 OFFCURVE",
"432 578 CURVE",
"398 589 OFFCURVE",
"365 595 OFFCURVE",
"331 595 CURVE SMOOTH",
"290 595 OFFCURVE",
"249 586 OFFCURVE",
"207 567 CURVE"
);
},
{
closed = 1;
nodes = (
"350 494 OFFCURVE",
"333 490 OFFCURVE",
"317 490 CURVE SMOOTH",
"304 490 OFFCURVE",
"291 490 OFFCURVE",
"277 497 CURVE",
"277 508 OFFCURVE",
"277 520 OFFCURVE",
"284 528 CURVE",
"297 538 OFFCURVE",
"313 542 OFFCURVE",
"327 542 CURVE SMOOTH",
"342 542 OFFCURVE",
"357 538 OFFCURVE",
"364 534 CURVE",
"369 529 OFFCURVE",
"372 524 OFFCURVE",
"372 519 CURVE SMOOTH",
"372 512 OFFCURVE",
"370 507 OFFCURVE",
"367 501 CURVE"
);
},
{
closed = 1;
nodes = (
"22 222 OFFCURVE",
"12 194 OFFCURVE",
"12 147 CURVE SMOOTH",
"12 101 OFFCURVE",
"21 47 OFFCURVE",
"51 9 CURVE",
"94 -6 OFFCURVE",
"133 -14 OFFCURVE",
"184 -14 CURVE SMOOTH",
"259 -14 OFFCURVE",
"308 2 OFFCURVE",
"333 14 CURVE",
"332 -1 OFFCURVE",
"332 -10 OFFCURVE",
"332 -10 CURVE",
"419 -3 OFFCURVE",
"510 2 OFFCURVE",
"604 2 CURVE",
"608 30 OFFCURVE",
"614 93 OFFCURVE",
"614 160 CURVE SMOOTH",
"614 249 OFFCURVE",
"603 346 OFFCURVE",
"559 385 CURVE",
"478 422 OFFCURVE",
"374 429 OFFCURVE",
"274 429 CURVE SMOOTH",
"145 429 OFFCURVE",
"57 407 OFFCURVE",
"57 407 CURVE",
"76 371 OFFCURVE",
"93 334 OFFCURVE",
"98 287 CURVE",
"98 287 OFFCURVE",
"157 298 OFFCURVE",
"234 298 CURVE SMOOTH",
"259 298 OFFCURVE",
"294 294 OFFCURVE",
"322 289 CURVE",
"330 281 OFFCURVE",
"334 272 OFFCURVE",
"334 259 CURVE",
"298 266 OFFCURVE",
"252 270 OFFCURVE",
"206 270 CURVE SMOOTH",
"136 270 OFFCURVE",
"88 266 OFFCURVE",
"34 248 CURVE"
);
},
{
closed = 1;
nodes = (
"358 150 OFFCURVE",
"356 138 OFFCURVE",
"350 123 CURVE",
"337 120 OFFCURVE",
"326 118 OFFCURVE",
"310 118 CURVE SMOOTH",
"298 118 OFFCURVE",
"285 120 OFFCURVE",
"276 124 CURVE",
"274 130 OFFCURVE",
"273 137 OFFCURVE",
"273 146 CURVE SMOOTH",
"273 154 OFFCURVE",
"274 161 OFFCURVE",
"278 166 CURVE",
"290 170 OFFCURVE",
"306 171 OFFCURVE",
"316 171 CURVE SMOOTH",
"332 171 OFFCURVE",
"343 170 OFFCURVE",
"359 166 CURVE"
);
}
);
width = 632;
}
);
unicode = 00E5;
},
{
glyphname = uring;
lastChange = "2016-04-14 15:41:28 +0000";
layers = (
{
layerId = "7A0FC40B-77F8-4D14-AD08-D047673E78CB";
name = Regular;
paths = (
{
closed = 1;
nodes = (
"197 551 OFFCURVE",
"193 537 OFFCURVE",
"193 522 CURVE SMOOTH",
"193 502 OFFCURVE",
"199 483 OFFCURVE",
"213 462 CURVE",
"242 450 OFFCURVE",
"271 444 OFFCURVE",
"301 444 CURVE SMOOTH",
"330 444 OFFCURVE",
"361 450 OFFCURVE",
"392 459 CURVE",
"419 484 OFFCURVE",
"430 515 OFFCURVE",
"430 549 CURVE SMOOTH",
"430 558 OFFCURVE",
"429 568 OFFCURVE",
"428 578 CURVE",
"394 589 OFFCURVE",
"361 595 OFFCURVE",
"327 595 CURVE SMOOTH",
"286 595 OFFCURVE",
"245 586 OFFCURVE",
"203 567 CURVE"
);
},
{
closed = 1;
nodes = (
"346 494 OFFCURVE",
"329 490 OFFCURVE",
"313 490 CURVE SMOOTH",
"300 490 OFFCURVE",
"287 490 OFFCURVE",
"273 497 CURVE",
"273 508 OFFCURVE",
"273 520 OFFCURVE",
"280 528 CURVE",
"293 538 OFFCURVE",
"309 542 OFFCURVE",
"323 542 CURVE SMOOTH",
"338 542 OFFCURVE",
"353 538 OFFCURVE",
"360 534 CURVE",
"365 529 OFFCURVE",
"368 524 OFFCURVE",
"368 519 CURVE SMOOTH",
"368 512 OFFCURVE",
"366 507 OFFCURVE",
"363 501 CURVE"
);
},
{
closed = 1;
nodes = (
"350 226 LINE",
"330 208 OFFCURVE",
"312 201 OFFCURVE",
"291 201 CURVE",
"286 231 OFFCURVE",
"282 267 OFFCURVE",
"282 309 CURVE SMOOTH",
"282 341 OFFCURVE",
"284 384 OFFCURVE",
"290 430 CURVE",
"235 425 OFFCURVE",
"184 422 OFFCURVE",
"132 422 CURVE SMOOTH",
"98 422 OFFCURVE",
"62 422 OFFCURVE",
"28 423 CURVE",
"22 359 OFFCURVE",
"20 294 OFFCURVE",
"20 236 CURVE SMOOTH",
"20 149 OFFCURVE",
"26 89 OFFCURVE",
"51 27 CURVE",
"87 4 OFFCURVE",
"122 -10 OFFCURVE",
"177 -10 CURVE SMOOTH",
"221 -10 OFFCURVE",
"268 0 OFFCURVE",
"324 38 CURVE",
"319 -10 LINE",
"608 1 LINE",
"599 152 OFFCURVE",
"599 289 OFFCURVE",
"599 442 CURVE",
"516 432 OFFCURVE",
"429 432 OFFCURVE",
"339 432 CURVE"
);
}
);
width = 624;
}
);
unicode = 016F;
},
{
glyphname = atilde;
lastChange = "2016-04-14 15:41:28 +0000";
layers = (
{
layerId = "7A0FC40B-77F8-4D14-AD08-D047673E78CB";
name = Regular;
paths = (
{
closed = 1;
nodes = (
"143 522 OFFCURVE",
"147 493 OFFCURVE",
"148 454 CURVE",
"169 466 OFFCURVE",
"200 478 OFFCURVE",
"234 478 CURVE SMOOTH",
"292 478 OFFCURVE",
"327 438 OFFCURVE",
"382 438 CURVE SMOOTH",
"420 438 OFFCURVE",
"458 446 OFFCURVE",
"494 474 CURVE",
"485 515 OFFCURVE",
"479 552 OFFCURVE",
"476 601 CURVE",
"453 579 OFFCURVE",
"419 561 OFFCURVE",
"382 561 CURVE SMOOTH",
"327 561 OFFCURVE",
"287 593 OFFCURVE",
"234 593 CURVE SMOOTH",
"200 593 OFFCURVE",
"169 583 OFFCURVE",
"138 556 CURVE"
);
},
{
closed = 1;
nodes = (
"22 222 OFFCURVE",
"12 194 OFFCURVE",
"12 147 CURVE SMOOTH",
"12 101 OFFCURVE",
"21 47 OFFCURVE",
"51 9 CURVE",
"94 -6 OFFCURVE",
"133 -14 OFFCURVE",
"184 -14 CURVE SMOOTH",
"259 -14 OFFCURVE",
"308 2 OFFCURVE",
"333 14 CURVE",
"332 -1 OFFCURVE",
"332 -10 OFFCURVE",
"332 -10 CURVE",
"419 -3 OFFCURVE",
"510 2 OFFCURVE",
"604 2 CURVE",
"608 30 OFFCURVE",
"614 93 OFFCURVE",
"614 160 CURVE SMOOTH",
"614 249 OFFCURVE",
"603 346 OFFCURVE",
"559 385 CURVE",
"478 422 OFFCURVE",
"374 429 OFFCURVE",
"274 429 CURVE SMOOTH",
"145 429 OFFCURVE",
"57 407 OFFCURVE",
"57 407 CURVE",
"76 371 OFFCURVE",
"93 334 OFFCURVE",
"98 287 CURVE",
"98 287 OFFCURVE",
"157 298 OFFCURVE",
"234 298 CURVE SMOOTH",
"259 298 OFFCURVE",
"294 294 OFFCURVE",
"322 289 CURVE",
"330 281 OFFCURVE",
"334 272 OFFCURVE",
"334 259 CURVE",
"298 266 OFFCURVE",
"252 270 OFFCURVE",
"206 270 CURVE SMOOTH",
"136 270 OFFCURVE",
"88 266 OFFCURVE",
"34 248 CURVE"
);
},
{
closed = 1;
nodes = (
"358 150 OFFCURVE",
"356 138 OFFCURVE",
"350 123 CURVE",
"337 120 OFFCURVE",
"326 118 OFFCURVE",
"310 118 CURVE SMOOTH",
"298 118 OFFCURVE",
"285 120 OFFCURVE",
"276 124 CURVE",
"274 130 OFFCURVE",
"273 137 OFFCURVE",
"273 146 CURVE SMOOTH",
"273 154 OFFCURVE",
"274 161 OFFCURVE",
"278 166 CURVE",
"290 170 OFFCURVE",
"306 171 OFFCURVE",
"316 171 CURVE SMOOTH",
"332 171 OFFCURVE",
"343 170 OFFCURVE",
"359 166 CURVE"
);
}
);
width = 632;
}
);
unicode = 00E3;
},
{
glyphname = itilde;
lastChange = "2016-04-14 15:41:28 +0000";
layers = (
{
layerId = "7A0FC40B-77F8-4D14-AD08-D047673E78CB";
name = Regular;
paths = (
{
closed = 1;
nodes = (
"277 416 LINE",
"217 407 OFFCURVE",
"150 407 OFFCURVE",
"85 407 CURVE SMOOTH",
"64 407 OFFCURVE",
"43 407 OFFCURVE",
"23 408 CURVE",
"29 270 OFFCURVE",
"29 129 OFFCURVE",
"29 -10 CURVE",
"107 -2 OFFCURVE",
"200 -1 OFFCURVE",
"285 0 CURVE"
);
},
{
closed = 1;
nodes = (
"-13 522 OFFCURVE",
"-9 493 OFFCURVE",
"-8 454 CURVE",
"13 466 OFFCURVE",
"44 478 OFFCURVE",
"78 478 CURVE SMOOTH",
"136 478 OFFCURVE",
"171 438 OFFCURVE",
"226 438 CURVE SMOOTH",
"264 438 OFFCURVE",
"302 446 OFFCURVE",
"338 474 CURVE",
"329 515 OFFCURVE",
"323 552 OFFCURVE",
"320 601 CURVE",
"297 579 OFFCURVE",
"263 561 OFFCURVE",
"226 561 CURVE SMOOTH",
"171 561 OFFCURVE",
"131 593 OFFCURVE",
"78 593 CURVE SMOOTH",
"44 593 OFFCURVE",
"13 583 OFFCURVE",
"-18 556 CURVE"
);
}
);
width = 321;
}
);
unicode = 0129;
},
{
glyphname = otilde;
lastChange = "2016-04-14 15:41:28 +0000";
layers = (
{
layerId = "7A0FC40B-77F8-4D14-AD08-D047673E78CB";
name = Regular;
paths = (
{
closed = 1;
nodes = (
"149 522 OFFCURVE",
"153 493 OFFCURVE",
"154 454 CURVE",
"175 466 OFFCURVE",
"206 478 OFFCURVE",
"240 478 CURVE SMOOTH",
"298 478 OFFCURVE",
"333 438 OFFCURVE",
"388 438 CURVE SMOOTH",
"426 438 OFFCURVE",
"464 446 OFFCURVE",
"500 474 CURVE",
"491 515 OFFCURVE",
"485 552 OFFCURVE",
"482 601 CURVE",
"459 579 OFFCURVE",
"425 561 OFFCURVE",
"388 561 CURVE SMOOTH",
"333 561 OFFCURVE",
"293 593 OFFCURVE",
"240 593 CURVE SMOOTH",
"206 593 OFFCURVE",
"175 583 OFFCURVE",
"144 556 CURVE"
);
},
{
closed = 1;
nodes = (
"443 -10 OFFCURVE",
"533 10 OFFCURVE",
"592 50 CURVE",
"618 101 OFFCURVE",
"633 146 OFFCURVE",
"633 223 CURVE SMOOTH",
"633 293 OFFCURVE",
"622 336 OFFCURVE",
"601 379 CURVE",
"541 414 OFFCURVE",
"447 430 OFFCURVE",
"327 430 CURVE SMOOTH",
"208 430 OFFCURVE",
"117 415 OFFCURVE",
"56 386 CURVE",
"28 343 OFFCURVE",
"12 292 OFFCURVE",
"12 217 CURVE SMOOTH",
"12 126 OFFCURVE",
"34 71 OFFCURVE",
"77 26 CURVE",
"134 2 OFFCURVE",
"217 -10 OFFCURVE",
"318 -10 CURVE SMOOTH"
);
},
{
closed = 1;
nodes = (
"299 287 OFFCURVE",
"310 291 OFFCURVE",
"328 291 CURVE SMOOTH",
"339 291 OFFCURVE",
"348 291 OFFCURVE",
"355 285 CURVE",
"363 272 OFFCURVE",
"367 248 OFFCURVE",
"367 213 CURVE SMOOTH",
"367 172 OFFCURVE",
"364 140 OFFCURVE",
"353 124 CURVE",
"345 117 OFFCURVE",
"334 114 OFFCURVE",
"319 114 CURVE SMOOTH",
"302 114 OFFCURVE",
"292 117 OFFCURVE",
"286 124 CURVE",
"277 138 OFFCURVE",
"277 164 OFFCURVE",
"277 203 CURVE SMOOTH",
"277 230 OFFCURVE",
"280 254 OFFCURVE",
"289 279 CURVE"
);
}
);
width = 645;
}
);
unicode = 00F5;
},
{
glyphname = utilde;
lastChange = "2016-04-14 15:41:28 +0000";
layers = (
{
layerId = "7A0FC40B-77F8-4D14-AD08-D047673E78CB";
name = Regular;
paths = (
{
closed = 1;
nodes = (
"139 522 OFFCURVE",
"143 493 OFFCURVE",
"144 454 CURVE",
"165 466 OFFCURVE",
"196 478 OFFCURVE",
"230 478 CURVE SMOOTH",
"288 478 OFFCURVE",
"323 438 OFFCURVE",
"378 438 CURVE SMOOTH",
"416 438 OFFCURVE",
"454 446 OFFCURVE",
"490 474 CURVE",
"481 515 OFFCURVE",
"475 552 OFFCURVE",
"472 601 CURVE",
"449 579 OFFCURVE",
"415 561 OFFCURVE",
"378 561 CURVE SMOOTH",
"323 561 OFFCURVE",
"283 593 OFFCURVE",
"230 593 CURVE SMOOTH",
"196 593 OFFCURVE",
"165 583 OFFCURVE",
"134 556 CURVE"
);
},
{
closed = 1;
nodes = (
"350 226 LINE",
"330 208 OFFCURVE",
"312 201 OFFCURVE",
"291 201 CURVE",
"286 231 OFFCURVE",
"282 267 OFFCURVE",
"282 309 CURVE SMOOTH",
"282 341 OFFCURVE",
"284 384 OFFCURVE",
"290 430 CURVE",
"235 425 OFFCURVE",
"184 422 OFFCURVE",
"132 422 CURVE SMOOTH",
"98 422 OFFCURVE",
"62 422 OFFCURVE",
"28 423 CURVE",
"22 359 OFFCURVE",
"20 294 OFFCURVE",
"20 236 CURVE SMOOTH",
"20 149 OFFCURVE",
"26 89 OFFCURVE",
"51 27 CURVE",
"87 4 OFFCURVE",
"122 -10 OFFCURVE",
"177 -10 CURVE SMOOTH",
"221 -10 OFFCURVE",
"268 0 OFFCURVE",
"324 38 CURVE",
"319 -10 LINE",
"608 1 LINE",
"599 152 OFFCURVE",
"599 289 OFFCURVE",
"599 442 CURVE",
"516 432 OFFCURVE",
"429 432 OFFCURVE",
"339 432 CURVE"
);
}
);
width = 624;
}
);
unicode = 0169;
},
{
glyphname = cedilla;
lastChange = "2016-04-14 15:42:29 +0000";
layers = (
{
layerId = "7A0FC40B-77F8-4D14-AD08-D047673E78CB";
name = Regular;
paths = (
{
closed = 1;
nodes = (
"233 -99 OFFCURVE",
"216 -100 OFFCURVE",
"200 -100 CURVE SMOOTH",
"171 -100 OFFCURVE",
"150 -99 OFFCURVE",
"119 -96 CURVE",
"111 -145 LINE",
"139 -150 OFFCURVE",
"167 -154 OFFCURVE",
"203 -154 CURVE SMOOTH",
"264 -154 OFFCURVE",
"336 -149 OFFCURVE",
"398 -138 CURVE",
"414 -122 OFFCURVE",
"421 -97 OFFCURVE",
"421 -73 CURVE SMOOTH",
"421 -63 OFFCURVE",
"420 -54 OFFCURVE",
"418 -44 CURVE",
"388 -33 OFFCURVE",
"355 -33 OFFCURVE",
"325 -33 CURVE",
"325 16 LINE",
"167 16 LINE",
"151 -73 LINE",
"166 -70 OFFCURVE",
"185 -70 OFFCURVE",
"202 -70 CURVE SMOOTH",
"217 -70 OFFCURVE",
"231 -72 OFFCURVE",
"238 -74 CURVE",
"244 -80 OFFCURVE",
"248 -88 OFFCURVE",
"250 -97 CURVE"
);
}
);
width = 474;
}
);
unicode = 00B8;
},
{
glyphname = ccedilla;
lastChange = "2016-04-14 15:41:28 +0000";
layers = (
{
layerId = "7A0FC40B-77F8-4D14-AD08-D047673E78CB";
name = Regular;
paths = (
{
closed = 1;
nodes = (
"208 -99 OFFCURVE",
"191 -100 OFFCURVE",
"175 -100 CURVE SMOOTH",
"146 -100 OFFCURVE",
"125 -99 OFFCURVE",
"94 -96 CURVE",
"86 -145 LINE",
"114 -150 OFFCURVE",
"142 -154 OFFCURVE",
"178 -154 CURVE SMOOTH",
"239 -154 OFFCURVE",
"311 -149 OFFCURVE",
"373 -138 CURVE",
"389 -122 OFFCURVE",
"396 -97 OFFCURVE",
"396 -73 CURVE SMOOTH",
"396 -63 OFFCURVE",
"395 -54 OFFCURVE",
"393 -44 CURVE",
"363 -33 OFFCURVE",
"330 -33 OFFCURVE",
"300 -33 CURVE",
"300 16 LINE",
"142 16 LINE",
"126 -73 LINE",
"141 -70 OFFCURVE",
"160 -70 OFFCURVE",
"177 -70 CURVE SMOOTH",
"192 -70 OFFCURVE",
"206 -72 OFFCURVE",
"213 -74 CURVE",
"219 -80 OFFCURVE",
"223 -88 OFFCURVE",
"225 -97 CURVE"
);
},
{
closed = 1;
nodes = (
"23 334 OFFCURVE",
"12 278 OFFCURVE",
"12 212 CURVE SMOOTH",
"12 148 OFFCURVE",
"26 81 OFFCURVE",
"51 36 CURVE",
"121 -5 OFFCURVE",
"205 -10 OFFCURVE",
"289 -10 CURVE SMOOTH",
"358 -10 OFFCURVE",
"413 -2 OFFCURVE",
"470 12 CURVE",
"456 51 OFFCURVE",
"450 100 OFFCURVE",
"449 138 CURVE",
"429 133 OFFCURVE",
"402 130 OFFCURVE",
"373 130 CURVE SMOOTH",
"351 130 OFFCURVE",
"329 133 OFFCURVE",
"305 142 CURVE",
"293 162 OFFCURVE",
"285 182 OFFCURVE",
"285 209 CURVE SMOOTH",
"285 230 OFFCURVE",
"288 255 OFFCURVE",
"296 272 CURVE",
"330 282 OFFCURVE",
"354 285 OFFCURVE",
"382 285 CURVE SMOOTH",
"402 285 OFFCURVE",
"430 282 OFFCURVE",
"447 281 CURVE",
"447 318 OFFCURVE",
"454 370 OFFCURVE",
"469 416 CURVE",
"410 426 OFFCURVE",
"359 433 OFFCURVE",
"300 433 CURVE SMOOTH",
"213 433 OFFCURVE",
"138 422 OFFCURVE",
"67 398 CURVE"
);
}
);
width = 474;
}
);
unicode = 00E7;
},
{
glyphname = fi;
lastChange = "2016-04-14 15:41:28 +0000";
layers = (
{
layerId = "7A0FC40B-77F8-4D14-AD08-D047673E78CB";
name = Regular;
paths = (
{
closed = 1;
nodes = (
"340 388 OFFCURVE",
"344 398 OFFCURVE",
"350 406 CURVE",
"392 416 OFFCURVE",
"446 418 OFFCURVE",
"486 418 CURVE SMOOTH",
"554 418 OFFCURVE",
"605 412 OFFCURVE",
"605 412 CURVE",
"608 459 OFFCURVE",
"618 495 OFFCURVE",
"630 532 CURVE",
"630 532 OFFCURVE",
"539 570 OFFCURVE",
"406 570 CURVE SMOOTH",
"304 570 OFFCURVE",
"202 553 OFFCURVE",
"120 518 CURVE",
"102 485 OFFCURVE",
"90 431 OFFCURVE",
"83 368 CURVE",
"19 365 LINE",
"26 249 LINE",
"70 247 LINE",
"69 214 OFFCURVE",
"69 179 OFFCURVE",
"69 146 CURVE SMOOTH",
"69 85 OFFCURVE",
"78 14 OFFCURVE",
"83 -10 CURVE",
"170 -3 OFFCURVE",
"262 2 OFFCURVE",
"355 2 CURVE",
"344 79 OFFCURVE",
"346 159 OFFCURVE",
"345 222 CURVE",
"494 214 LINE",
"495 140 OFFCURVE",
"495 65 OFFCURVE",
"495 -10 CURVE",
"574 -2 OFFCURVE",
"666 -1 OFFCURVE",
"751 0 CURVE",
"747 128 OFFCURVE",
"746 256 OFFCURVE",
"743 384 CURVE",
"683 378 OFFCURVE",
"617 375 OFFCURVE",
"551 375 CURVE SMOOTH",
"480 375 OFFCURVE",
"408 375 OFFCURVE",
"337 378 CURVE"
);
}
);
width = 867;
}
);
unicode = FB01;
},
{
glyphname = ff;
lastChange = "2016-04-14 15:41:28 +0000";
layers = (
{
layerId = "7A0FC40B-77F8-4D14-AD08-D047673E78CB";
name = Regular;
paths = (
{
closed = 1;
nodes = (
"19 358 LINE",
"26 249 LINE",
"70 247 LINE",
"69 214 OFFCURVE",
"69 179 OFFCURVE",
"69 146 CURVE SMOOTH",
"69 85 OFFCURVE",
"78 14 OFFCURVE",
"83 -10 CURVE",
"170 -3 OFFCURVE",
"262 2 OFFCURVE",
"355 2 CURVE",
"344 83 OFFCURVE",
"346 168 OFFCURVE",
"345 234 CURVE",
"537 227 LINE",
"535 188 OFFCURVE",
"535 185 OFFCURVE",
"535 146 CURVE SMOOTH",
"535 85 OFFCURVE",
"545 14 OFFCURVE",
"550 -10 CURVE",
"637 -3 OFFCURVE",
"728 2 OFFCURVE",
"822 2 CURVE",
"810 79 OFFCURVE",
"812 159 OFFCURVE",
"811 222 CURVE",
"992 214 LINE",
"992 386 LINE",
"803 378 LINE",
"806 388 OFFCURVE",
"810 398 OFFCURVE",
"816 406 CURVE",
"849 416 OFFCURVE",
"890 418 OFFCURVE",
"920 418 CURVE SMOOTH",
"969 418 OFFCURVE",
"1007 412 OFFCURVE",
"1007 412 CURVE",
"1011 459 OFFCURVE",
"1022 495 OFFCURVE",
"1033 532 CURVE",
"1033 532 OFFCURVE",
"954 570 OFFCURVE",
"840 570 CURVE SMOOTH",
"762 570 OFFCURVE",
"681 557 OFFCURVE",
"614 530 CURVE",
"582 540 OFFCURVE",
"506 562 OFFCURVE",
"406 562 CURVE SMOOTH",
"304 562 OFFCURVE",
"202 545 OFFCURVE",
"120 510 CURVE",
"102 477 OFFCURVE",
"90 423 OFFCURVE",
"83 360 CURVE"
);
},
{
closed = 1;
nodes = (
"337 370 LINE",
"340 380 OFFCURVE",
"344 390 OFFCURVE",
"350 398 CURVE",
"392 408 OFFCURVE",
"446 410 OFFCURVE",
"486 410 CURVE SMOOTH",
"512 410 OFFCURVE",
"534 410 OFFCURVE",
"554 408 CURVE",
"552 398 OFFCURVE",
"550 388 OFFCURVE",
"550 378 CURVE"
);
}
);
width = 1093;
}
);
unicode = FB00;
},
{
glyphname = ffi;
lastChange = "2016-04-14 15:41:28 +0000";
layers = (
{
layerId = "7A0FC40B-77F8-4D14-AD08-D047673E78CB";
name = Regular;
paths = (
{
closed = 1;
nodes = (
"806 388 OFFCURVE",
"810 398 OFFCURVE",
"816 406 CURVE",
"858 416 OFFCURVE",
"912 418 OFFCURVE",
"952 418 CURVE SMOOTH",
"1020 418 OFFCURVE",
"1071 412 OFFCURVE",
"1071 412 CURVE",
"1074 459 OFFCURVE",
"1085 495 OFFCURVE",
"1097 532 CURVE",
"1097 532 OFFCURVE",
"1006 570 OFFCURVE",
"872 570 CURVE SMOOTH",
"782 570 OFFCURVE",
"692 556 OFFCURVE",
"616 529 CURVE",
"552 550 OFFCURVE",
"474 562 OFFCURVE",
"406 562 CURVE SMOOTH",
"304 562 OFFCURVE",
"202 545 OFFCURVE",
"120 510 CURVE",
"102 477 OFFCURVE",
"90 423 OFFCURVE",
"83 360 CURVE",
"19 357 LINE",
"26 249 LINE",
"70 247 LINE",
"69 214 OFFCURVE",
"69 179 OFFCURVE",
"69 146 CURVE SMOOTH",
"69 85 OFFCURVE",
"78 14 OFFCURVE",
"83 -10 CURVE",
"170 -3 OFFCURVE",
"262 2 OFFCURVE",
"355 2 CURVE",
"344 83 OFFCURVE",
"346 168 OFFCURVE",
"345 234 CURVE",
"536 227 LINE",
"535 200 OFFCURVE",
"535 172 OFFCURVE",
"535 146 CURVE SMOOTH",
"535 85 OFFCURVE",
"545 14 OFFCURVE",
"550 -10 CURVE",
"637 -3 OFFCURVE",
"728 2 OFFCURVE",
"822 2 CURVE",
"810 79 OFFCURVE",
"812 159 OFFCURVE",
"811 222 CURVE",
"961 214 LINE",
"962 140 OFFCURVE",
"962 65 OFFCURVE",
"962 -10 CURVE",
"1040 -2 OFFCURVE",
"1133 -1 OFFCURVE",
"1218 0 CURVE",
"1214 128 OFFCURVE",
"1212 256 OFFCURVE",
"1210 384 CURVE",
"1150 378 OFFCURVE",
"1083 375 OFFCURVE",
"1018 375 CURVE SMOOTH",
"946 375 OFFCURVE",
"874 375 OFFCURVE",
"803 378 CURVE"
);
},
{
closed = 1;
nodes = (
"337 370 LINE",
"340 380 OFFCURVE",
"344 390 OFFCURVE",
"350 398 CURVE",
"392 408 OFFCURVE",
"446 410 OFFCURVE",
"486 410 CURVE SMOOTH",
"512 410 OFFCURVE",
"534 410 OFFCURVE",
"554 408 CURVE",
"552 398 OFFCURVE",
"550 384 OFFCURVE",
"550 374 CURVE"
);
}
);
width = 1414;
}
);
unicode = FB03;
},
{
glyphname = oe;
lastChange = "2016-04-14 15:41:28 +0000";
layers = (
{
layerId = "7A0FC40B-77F8-4D14-AD08-D047673E78CB";
name = Regular;
paths = (
{
closed = 1;
nodes = (
"794 -10 OFFCURVE",
"862 0 OFFCURVE",
"931 16 CURVE",
"918 55 OFFCURVE",
"911 104 OFFCURVE",
"910 142 CURVE",
"868 134 OFFCURVE",
"819 130 OFFCURVE",
"762 130 CURVE SMOOTH",
"726 130 OFFCURVE",
"689 133 OFFCURVE",
"646 142 CURVE",
"642 154 OFFCURVE",
"638 166 OFFCURVE",
"634 181 CURVE",
"658 178 OFFCURVE",
"682 178 OFFCURVE",
"708 178 CURVE SMOOTH",
"786 178 OFFCURVE",
"865 179 OFFCURVE",
"930 188 CURVE",
"945 225 OFFCURVE",
"953 283 OFFCURVE",
"953 336 CURVE SMOOTH",
"953 373 OFFCURVE",
"950 409 OFFCURVE",
"938 440 CURVE",
"840 465 OFFCURVE",
"770 477 OFFCURVE",
"673 477 CURVE SMOOTH",
"605 477 OFFCURVE",
"545 471 OFFCURVE",
"488 459 CURVE",
"442 469 OFFCURVE",
"388 474 OFFCURVE",
"327 474 CURVE SMOOTH",
"211 474 OFFCURVE",
"123 457 OFFCURVE",
"64 422 CURVE",
"30 376 OFFCURVE",
"12 321 OFFCURVE",
"12 237 CURVE SMOOTH",
"12 136 OFFCURVE",
"34 75 OFFCURVE",
"77 26 CURVE",
"134 2 OFFCURVE",
"217 -10 OFFCURVE",
"318 -10 CURVE SMOOTH",
"384 -10 OFFCURVE",
"440 -4 OFFCURVE",
"487 6 CURVE",
"556 -7 OFFCURVE",
"631 -10 OFFCURVE",
"710 -10 CURVE SMOOTH"
);
},
{
closed = 1;
nodes = (
"302 331 OFFCURVE",
"311 335 OFFCURVE",
"328 335 CURVE SMOOTH",
"339 335 OFFCURVE",
"348 335 OFFCURVE",
"355 329 CURVE",
"363 311 OFFCURVE",
"367 280 OFFCURVE",
"367 233 CURVE SMOOTH",
"367 184 OFFCURVE",
"363 147 OFFCURVE",
"349 128 CURVE SMOOTH",
"342 118 OFFCURVE",
"333 114 OFFCURVE",
"319 114 CURVE SMOOTH",
"302 114 OFFCURVE",
"292 117 OFFCURVE",
"286 124 CURVE",
"277 142 OFFCURVE",
"277 174 OFFCURVE",
"277 223 CURVE SMOOTH",
"277 258 OFFCURVE",
"281 290 OFFCURVE",
"293 323 CURVE"
);
},
{
closed = 1;
nodes = (
"714 319 OFFCURVE",
"714 302 OFFCURVE",
"716 286 CURVE",
"678 282 OFFCURVE",
"644 282 OFFCURVE",
"612 282 CURVE",
"614 298 OFFCURVE",
"617 314 OFFCURVE",
"621 328 CURVE",
"654 338 OFFCURVE",
"679 341 OFFCURVE",
"708 341 CURVE"
);
}
);
width = 965;
}
);
unicode = 0153;
},
{
glyphname = T_O;
lastChange = "2016-04-14 15:41:28 +0000";
layers = (
{
layerId = "7A0FC40B-77F8-4D14-AD08-D047673E78CB";
name = Regular;
paths = (
{
closed = 1;
nodes = (
"1160 457 LINE",
"1154 570 LINE",
"957 566 OFFCURVE",
"201 562 OFFCURVE",
"4 560 CURVE",
"4 414 LINE",
"161 406 LINE",
"147 -10 LINE",
"444 1 LINE",
"427 438 LINE"
);
},
{
closed = 1;
nodes = (
"954 -10 OFFCURVE",
"1052 10 OFFCURVE",
"1117 50 CURVE",
"1149 94 OFFCURVE",
"1166 134 OFFCURVE",
"1166 203 CURVE SMOOTH",
"1166 274 OFFCURVE",
"1149 324 OFFCURVE",
"1118 371 CURVE",
"1057 408 OFFCURVE",
"962 426 OFFCURVE",
"840 426 CURVE SMOOTH",
"713 426 OFFCURVE",
"614 409 OFFCURVE",
"549 374 CURVE",
"510 326 OFFCURVE",
"489 281 OFFCURVE",
"489 197 CURVE SMOOTH",
"489 116 OFFCURVE",
"514 67 OFFCURVE",
"562 26 CURVE",
"622 2 OFFCURVE",
"709 -10 OFFCURVE",
"815 -10 CURVE SMOOTH"
);
},
{
closed = 1;
nodes = (
"802 94 OFFCURVE",
"794 100 OFFCURVE",
"788 113 CURVE SMOOTH",
"782 127 OFFCURVE",
"779 153 OFFCURVE",
"779 191 CURVE SMOOTH",
"779 233 OFFCURVE",
"784 250 OFFCURVE",
"795 274 CURVE",
"804 282 OFFCURVE",
"816 286 OFFCURVE",
"833 286 CURVE SMOOTH",
"845 286 OFFCURVE",
"855 282 OFFCURVE",
"862 272 CURVE",
"870 272 OFFCURVE",
"874 201 OFFCURVE",
"874 201 CURVE",
"874 158 OFFCURVE",
"870 126 OFFCURVE",
"856 109 CURVE",
"847 99 OFFCURVE",
"834 94 OFFCURVE",
"816 94 CURVE SMOOTH"
);
}
);
width = 1176;
}
);
},
{
glyphname = ogonek;
lastChange = "2016-04-14 15:42:29 +0000";
layers = (
{
layerId = "7A0FC40B-77F8-4D14-AD08-D047673E78CB";
name = Regular;
paths = (
{
closed = 1;
nodes = (
"282 -79 OFFCURVE",
"283 -68 OFFCURVE",
"289 -58 CURVE",
"325 -26 OFFCURVE",
"362 -6 OFFCURVE",
"413 16 CURVE",
"255 16 LINE",
"191 3 OFFCURVE",
"155 -15 OFFCURVE",
"114 -44 CURVE",
"112 -54 OFFCURVE",
"111 -63 OFFCURVE",
"111 -73 CURVE SMOOTH",
"111 -97 OFFCURVE",
"118 -122 OFFCURVE",
"134 -138 CURVE",
"179 -149 OFFCURVE",
"229 -154 OFFCURVE",
"273 -154 CURVE SMOOTH",
"334 -154 OFFCURVE",
"382 -144 OFFCURVE",
"429 -129 CURVE",
"421 -80 LINE",
"387 -96 OFFCURVE",
"364 -100 OFFCURVE",
"332 -100 CURVE SMOOTH",
"316 -100 OFFCURVE",
"299 -98 OFFCURVE",
"282 -93 CURVE"
);
}
);
width = 474;
}
);
unicode = 02DB;
},
{
glyphname = eogonek;
lastChange = "2016-04-14 15:41:28 +0000";
layers = (
{
layerId = "7A0FC40B-77F8-4D14-AD08-D047673E78CB";
name = Regular;
paths = (
{
closed = 1;
nodes = (
"437 178 OFFCURVE",
"516 179 OFFCURVE",
"581 188 CURVE",
"596 225 OFFCURVE",
"604 283 OFFCURVE",
"604 336 CURVE SMOOTH",
"604 373 OFFCURVE",
"601 409 OFFCURVE",
"589 440 CURVE",
"491 465 OFFCURVE",
"422 477 OFFCURVE",
"324 477 CURVE SMOOTH",
"224 477 OFFCURVE",
"139 465 OFFCURVE",
"59 438 CURVE",
"15 369 OFFCURVE",
"4 305 OFFCURVE",
"4 232 CURVE SMOOTH",
"4 160 OFFCURVE",
"18 86 OFFCURVE",
"43 36 CURVE",
"137 -5 OFFCURVE",
"245 -10 OFFCURVE",
"361 -10 CURVE SMOOTH",
"446 -10 OFFCURVE",
"513 0 OFFCURVE",
"582 16 CURVE",
"569 55 OFFCURVE",
"562 104 OFFCURVE",
"561 142 CURVE",
"519 134 OFFCURVE",
"470 130 OFFCURVE",
"413 130 CURVE SMOOTH",
"377 130 OFFCURVE",
"340 133 OFFCURVE",
"297 142 CURVE",
"293 154 OFFCURVE",
"289 166 OFFCURVE",
"286 181 CURVE",
"309 178 OFFCURVE",
"333 178 OFFCURVE",
"359 178 CURVE SMOOTH"
);
},
{
closed = 1;
nodes = (
"365 319 OFFCURVE",
"366 302 OFFCURVE",
"367 286 CURVE",
"329 282 OFFCURVE",
"295 282 OFFCURVE",
"263 282 CURVE",
"265 298 OFFCURVE",
"268 314 OFFCURVE",
"272 328 CURVE",
"306 338 OFFCURVE",
"330 341 OFFCURVE",
"359 341 CURVE"
);
},
{
closed = 1;
nodes = (
"425 -79 OFFCURVE",
"426 -68 OFFCURVE",
"432 -58 CURVE",
"468 -26 OFFCURVE",
"505 -6 OFFCURVE",
"556 16 CURVE",
"398 16 LINE",
"334 3 OFFCURVE",
"298 -15 OFFCURVE",
"257 -44 CURVE",
"255 -54 OFFCURVE",
"254 -63 OFFCURVE",
"254 -73 CURVE SMOOTH",
"254 -97 OFFCURVE",
"261 -122 OFFCURVE",
"277 -138 CURVE",
"322 -149 OFFCURVE",
"372 -154 OFFCURVE",
"416 -154 CURVE SMOOTH",
"477 -154 OFFCURVE",
"525 -144 OFFCURVE",
"572 -129 CURVE",
"564 -80 LINE",
"530 -96 OFFCURVE",
"507 -100 OFFCURVE",
"475 -100 CURVE SMOOTH",
"459 -100 OFFCURVE",
"442 -98 OFFCURVE",
"425 -93 CURVE"
);
}
);
width = 616;
}
);
unicode = 0119;
},
{
glyphname = hungarumlaut;
lastChange = "2016-04-14 15:42:29 +0000";
layers = (
{
layerId = "7A0FC40B-77F8-4D14-AD08-D047673E78CB";
name = Regular;
paths = (
{
closed = 1;
nodes = (
"51 505 OFFCURVE",
"62 470 OFFCURVE",
"64 434 CURVE",
"153 451 OFFCURVE",
"246 458 OFFCURVE",
"334 462 CURVE",
"323 503 OFFCURVE",
"314 540 OFFCURVE",
"311 589 CURVE",
"231 567 OFFCURVE",
"122 551 OFFCURVE",
"36 542 CURVE"
);
},
{
closed = 1;
nodes = (
"344 509 OFFCURVE",
"352 474 OFFCURVE",
"354 438 CURVE",
"441 455 OFFCURVE",
"531 462 OFFCURVE",
"615 466 CURVE",
"605 510 OFFCURVE",
"596 549 OFFCURVE",
"593 601 CURVE",
"518 575 OFFCURVE",
"415 557 OFFCURVE",
"334 546 CURVE"
);
}
);
width = 651;
}
);
unicode = 02DD;
},
{
glyphname = uhungarumlaut;
lastChange = "2016-04-14 15:41:28 +0000";
layers = (
{
layerId = "7A0FC40B-77F8-4D14-AD08-D047673E78CB";
name = Regular;
paths = (
{
closed = 1;
nodes = (
"37 505 OFFCURVE",
"48 470 OFFCURVE",
"50 434 CURVE",
"139 451 OFFCURVE",
"232 458 OFFCURVE",
"320 462 CURVE",
"309 503 OFFCURVE",
"300 540 OFFCURVE",
"297 589 CURVE",
"217 567 OFFCURVE",
"108 551 OFFCURVE",
"22 542 CURVE"
);
},
{
closed = 1;
nodes = (
"330 509 OFFCURVE",
"338 474 OFFCURVE",
"340 438 CURVE",
"427 455 OFFCURVE",
"517 462 OFFCURVE",
"601 466 CURVE",
"591 510 OFFCURVE",
"582 549 OFFCURVE",
"579 601 CURVE",
"504 575 OFFCURVE",
"401 557 OFFCURVE",
"320 546 CURVE"
);
},
{
closed = 1;
nodes = (
"350 226 LINE",
"330 208 OFFCURVE",
"312 201 OFFCURVE",
"291 201 CURVE",
"286 231 OFFCURVE",
"282 267 OFFCURVE",
"282 309 CURVE SMOOTH",
"282 341 OFFCURVE",
"284 384 OFFCURVE",
"290 430 CURVE",
"235 425 OFFCURVE",
"184 422 OFFCURVE",
"132 422 CURVE SMOOTH",
"98 422 OFFCURVE",
"62 422 OFFCURVE",
"28 423 CURVE",
"22 359 OFFCURVE",
"20 294 OFFCURVE",
"20 236 CURVE SMOOTH",
"20 149 OFFCURVE",
"26 89 OFFCURVE",
"51 27 CURVE",
"87 4 OFFCURVE",
"122 -10 OFFCURVE",
"177 -10 CURVE SMOOTH",
"221 -10 OFFCURVE",
"268 0 OFFCURVE",
"324 38 CURVE",
"319 -10 LINE",
"608 1 LINE",
"599 152 OFFCURVE",
"599 289 OFFCURVE",
"599 442 CURVE",
"516 432 OFFCURVE",
"429 432 OFFCURVE",
"339 432 CURVE"
);
}
);
width = 624;
}
);
unicode = 0171;
},
{
glyphname = uogonek;
lastChange = "2016-04-14 15:41:28 +0000";
layers = (
{
layerId = "7A0FC40B-77F8-4D14-AD08-D047673E78CB";
name = Regular;
paths = (
{
closed = 1;
nodes = (
"350 226 LINE",
"330 208 OFFCURVE",
"312 201 OFFCURVE",
"291 201 CURVE",
"286 243 OFFCURVE",
"282 291 OFFCURVE",
"282 349 CURVE SMOOTH",
"282 383 OFFCURVE",
"284 429 OFFCURVE",
"290 478 CURVE",
"235 471 OFFCURVE",
"182 470 OFFCURVE",
"132 470 CURVE SMOOTH",
"98 470 OFFCURVE",
"62 470 OFFCURVE",
"28 471 CURVE",
"20 421 OFFCURVE",
"20 308 OFFCURVE",
"20 236 CURVE SMOOTH",
"20 149 OFFCURVE",
"26 89 OFFCURVE",
"51 27 CURVE",
"87 4 OFFCURVE",
"122 -10 OFFCURVE",
"177 -10 CURVE SMOOTH",
"221 -10 OFFCURVE",
"268 0 OFFCURVE",
"324 38 CURVE",
"319 -10 LINE",
"608 1 LINE",
"599 164 OFFCURVE",
"599 317 OFFCURVE",
"599 482 CURVE",
"516 474 OFFCURVE",
"429 473 OFFCURVE",
"339 472 CURVE"
);
},
{
closed = 1;
nodes = (
"461 -79 OFFCURVE",
"462 -68 OFFCURVE",
"468 -58 CURVE",
"504 -26 OFFCURVE",
"541 -6 OFFCURVE",
"592 16 CURVE",
"434 16 LINE",
"370 3 OFFCURVE",
"334 -15 OFFCURVE",
"293 -44 CURVE",
"291 -54 OFFCURVE",
"290 -63 OFFCURVE",
"290 -73 CURVE SMOOTH",
"290 -97 OFFCURVE",
"297 -122 OFFCURVE",
"313 -138 CURVE",
"358 -149 OFFCURVE",
"408 -154 OFFCURVE",
"452 -154 CURVE SMOOTH",
"513 -154 OFFCURVE",
"561 -144 OFFCURVE",
"608 -129 CURVE",
"600 -80 LINE",
"566 -96 OFFCURVE",
"543 -100 OFFCURVE",
"511 -100 CURVE SMOOTH",
"495 -100 OFFCURVE",
"478 -98 OFFCURVE",
"461 -93 CURVE"
);
}
);
width = 624;
}
);
unicode = 0173;
},
{
glyphname = iogonek;
lastChange = "2016-04-14 15:41:28 +0000";
layers = (
{
layerId = "7A0FC40B-77F8-4D14-AD08-D047673E78CB";
name = Regular;
paths = (
{
closed = 1;
nodes = (
"301 570 LINE",
"12 559 LINE",
"20 505 OFFCURVE",
"22 458 OFFCURVE",
"22 410 CURVE",
"58 412 OFFCURVE",
"97 414 OFFCURVE",
"138 414 CURVE SMOOTH",
"178 414 OFFCURVE",
"220 412 OFFCURVE",
"265 407 CURVE"
);
},
{
closed = 1;
nodes = (
"277 384 LINE",
"217 378 OFFCURVE",
"150 375 OFFCURVE",
"85 375 CURVE SMOOTH",
"64 375 OFFCURVE",
"43 375 OFFCURVE",
"23 376 CURVE",
"29 248 OFFCURVE",
"29 119 OFFCURVE",
"29 -10 CURVE",
"107 -2 OFFCURVE",
"200 -1 OFFCURVE",
"285 0 CURVE"
);
},
{
closed = 1;
nodes = (
"172 -79 OFFCURVE",
"173 -68 OFFCURVE",
"179 -58 CURVE",
"215 -26 OFFCURVE",
"252 -6 OFFCURVE",
"303 16 CURVE",
"145 16 LINE",
"81 3 OFFCURVE",
"45 -15 OFFCURVE",
"4 -44 CURVE",
"2 -54 OFFCURVE",
"1 -63 OFFCURVE",
"1 -73 CURVE SMOOTH",
"1 -97 OFFCURVE",
"8 -122 OFFCURVE",
"24 -138 CURVE",
"69 -149 OFFCURVE",
"119 -154 OFFCURVE",
"163 -154 CURVE SMOOTH",
"224 -154 OFFCURVE",
"272 -144 OFFCURVE",
"319 -129 CURVE",
"311 -80 LINE",
"277 -96 OFFCURVE",
"254 -100 OFFCURVE",
"222 -100 CURVE SMOOTH",
"206 -100 OFFCURVE",
"189 -98 OFFCURVE",
"172 -93 CURVE"
);
}
);
width = 321;
}
);
unicode = 012F;
},
{
glyphname = Eogonek;
lastChange = "2016-04-14 15:41:28 +0000";
layers = (
{
layerId = "7A0FC40B-77F8-4D14-AD08-D047673E78CB";
name = Regular;
paths = (
{
closed = 1;
nodes = (
"289 119 LINE",
"281 225 LINE",
"486 233 LINE",
"500 359 LINE",
"428 358 OFFCURVE",
"358 355 OFFCURVE",
"290 354 CURVE",
"290 435 LINE",
"377 435 OFFCURVE",
"456 434 OFFCURVE",
"534 431 CURVE",
"544 570 LINE",
"371 566 OFFCURVE",
"196 562 OFFCURVE",
"17 560 CURVE",
"17 371 OFFCURVE",
"14 181 OFFCURVE",
"8 -10 CURVE",
"189 -4 OFFCURVE",
"366 -1 OFFCURVE",
"543 1 CURVE",
"554 128 LINE"
);
},
{
closed = 1;
nodes = (
"408 -79 OFFCURVE",
"409 -68 OFFCURVE",
"415 -58 CURVE",
"451 -26 OFFCURVE",
"488 -6 OFFCURVE",
"539 16 CURVE",
"381 16 LINE",
"317 3 OFFCURVE",
"281 -15 OFFCURVE",
"240 -44 CURVE",
"238 -54 OFFCURVE",
"237 -63 OFFCURVE",
"237 -73 CURVE SMOOTH",
"237 -97 OFFCURVE",
"244 -122 OFFCURVE",
"260 -138 CURVE",
"305 -149 OFFCURVE",
"355 -154 OFFCURVE",
"399 -154 CURVE SMOOTH",
"460 -154 OFFCURVE",
"508 -144 OFFCURVE",
"555 -129 CURVE",
"547 -80 LINE",
"513 -96 OFFCURVE",
"490 -100 OFFCURVE",
"458 -100 CURVE SMOOTH",
"442 -100 OFFCURVE",
"425 -98 OFFCURVE",
"408 -93 CURVE"
);
}
);
width = 566;
}
);
unicode = 0118;
},
{
glyphname = Iogonek;
lastChange = "2016-04-14 15:41:28 +0000";
layers = (
{
layerId = "7A0FC40B-77F8-4D14-AD08-D047673E78CB";
name = Regular;
paths = (
{
closed = 1;
nodes = (
"292 570 LINE",
"27 560 LINE",
"8 -10 LINE",
"301 1 LINE"
);
},
{
closed = 1;
nodes = (
"154 -79 OFFCURVE",
"155 -68 OFFCURVE",
"161 -58 CURVE",
"197 -26 OFFCURVE",
"234 -6 OFFCURVE",
"285 16 CURVE",
"127 16 LINE",
"63 3 OFFCURVE",
"27 -15 OFFCURVE",
"-14 -44 CURVE",
"-16 -54 OFFCURVE",
"-17 -63 OFFCURVE",
"-17 -73 CURVE SMOOTH",
"-17 -97 OFFCURVE",
"-10 -122 OFFCURVE",
"6 -138 CURVE",
"51 -149 OFFCURVE",
"101 -154 OFFCURVE",
"145 -154 CURVE SMOOTH",
"206 -154 OFFCURVE",
"254 -144 OFFCURVE",
"301 -129 CURVE",
"293 -80 LINE",
"259 -96 OFFCURVE",
"236 -100 OFFCURVE",
"204 -100 CURVE SMOOTH",
"188 -100 OFFCURVE",
"171 -98 OFFCURVE",
"154 -93 CURVE"
);
}
);
width = 309;
}
);
unicode = 012E;
},
{
glyphname = Uogonek;
lastChange = "2016-04-14 15:41:28 +0000";
layers = (
{
layerId = "7A0FC40B-77F8-4D14-AD08-D047673E78CB";
name = Regular;
paths = (
{
closed = 1;
nodes = (
"28 560 LINE",
"15 456 OFFCURVE",
"12 359 OFFCURVE",
"12 261 CURVE SMOOTH",
"12 162 OFFCURVE",
"29 91 OFFCURVE",
"61 44 CURVE",
"118 7 OFFCURVE",
"207 -10 OFFCURVE",
"322 -10 CURVE SMOOTH",
"432 -10 OFFCURVE",
"522 6 OFFCURVE",
"581 38 CURVE",
"620 85 OFFCURVE",
"642 156 OFFCURVE",
"642 254 CURVE SMOOTH",
"642 362 OFFCURVE",
"639 466 OFFCURVE",
"626 570 CURVE",
"377 560 LINE",
"385 462 OFFCURVE",
"390 378 OFFCURVE",
"390 281 CURVE SMOOTH",
"390 201 OFFCURVE",
"384 150 OFFCURVE",
"368 127 CURVE",
"356 122 OFFCURVE",
"342 118 OFFCURVE",
"323 118 CURVE SMOOTH",
"308 118 OFFCURVE",
"295 118 OFFCURVE",
"287 128 CURVE",
"281 150 OFFCURVE",
"278 193 OFFCURVE",
"278 271 CURVE SMOOTH",
"278 383 OFFCURVE",
"284 467 OFFCURVE",
"293 570 CURVE"
);
},
{
closed = 1;
nodes = (
"351 -79 OFFCURVE",
"352 -68 OFFCURVE",
"358 -58 CURVE",
"394 -26 OFFCURVE",
"431 -6 OFFCURVE",
"482 16 CURVE",
"324 16 LINE",
"260 3 OFFCURVE",
"224 -15 OFFCURVE",
"183 -44 CURVE",
"181 -54 OFFCURVE",
"180 -63 OFFCURVE",
"180 -73 CURVE SMOOTH",
"180 -97 OFFCURVE",
"187 -122 OFFCURVE",
"203 -138 CURVE",
"248 -149 OFFCURVE",
"298 -154 OFFCURVE",
"342 -154 CURVE SMOOTH",
"403 -154 OFFCURVE",
"451 -144 OFFCURVE",
"498 -129 CURVE",
"490 -80 LINE",
"456 -96 OFFCURVE",
"433 -100 OFFCURVE",
"401 -100 CURVE SMOOTH",
"385 -100 OFFCURVE",
"368 -98 OFFCURVE",
"351 -93 CURVE"
);
}
);
width = 654;
}
);
unicode = 0172;
},
{
glyphname = hyphen;
lastChange = "2016-04-14 15:38:08 +0000";
layers = (
{
layerId = "7A0FC40B-77F8-4D14-AD08-D047673E78CB";
name = Regular;
paths = (
{
closed = 1;
nodes = (
"42 253 OFFCURVE",
"47 218 OFFCURVE",
"48 182 CURVE",
"117 181 OFFCURVE",
"178 180 OFFCURVE",
"246 174 CURVE",
"248 215 OFFCURVE",
"251 252 OFFCURVE",
"255 301 CURVE",
"194 296 OFFCURVE",
"106 292 OFFCURVE",
"36 290 CURVE"
);
}
);
width = 291;
}
);
unicode = 002D;
},
{
glyphname = parenleft;
lastChange = "2016-04-14 15:38:08 +0000";
layers = (
{
layerId = "7A0FC40B-77F8-4D14-AD08-D047673E78CB";
name = Regular;
paths = (
{
closed = 1;
nodes = (
"278 -14 LINE",
"226 17 OFFCURVE",
"211 118 OFFCURVE",
"211 229 CURVE SMOOTH",
"211 326 OFFCURVE",
"219 405 OFFCURVE",
"278 426 CURVE",
"266 600 LINE",
"208 600 OFFCURVE",
"158 586 OFFCURVE",
"116 565 CURVE",
"57 481 OFFCURVE",
"36 373 OFFCURVE",
"36 227 CURVE SMOOTH",
"36 90 OFFCURVE",
"58 -22 OFFCURVE",
"98 -100 CURVE",
"143 -142 OFFCURVE",
"185 -154 OFFCURVE",
"250 -154 CURVE"
);
}
);
width = 314;
}
);
unicode = 0028;
},
{
glyphname = parenright;
lastChange = "2016-04-14 15:38:08 +0000";
layers = (
{
layerId = "7A0FC40B-77F8-4D14-AD08-D047673E78CB";
name = Regular;
paths = (
{
closed = 1;
nodes = (
"36 460 LINE",
"88 429 OFFCURVE",
"103 328 OFFCURVE",
"103 217 CURVE SMOOTH",
"103 120 OFFCURVE",
"95 41 OFFCURVE",
"36 20 CURVE",
"48 -154 LINE",
"106 -154 OFFCURVE",
"156 -140 OFFCURVE",
"198 -119 CURVE",
"257 -35 OFFCURVE",
"278 73 OFFCURVE",
"278 219 CURVE SMOOTH",
"278 356 OFFCURVE",
"256 468 OFFCURVE",
"216 546 CURVE",
"171 588 OFFCURVE",
"129 600 OFFCURVE",
"64 600 CURVE"
);
}
);
width = 314;
}
);
unicode = 0029;
},
{
glyphname = endash;
lastChange = "2016-04-14 15:38:08 +0000";
layers = (
{
layerId = "7A0FC40B-77F8-4D14-AD08-D047673E78CB";
name = Regular;
paths = (
{
closed = 1;
nodes = (
"21 253 OFFCURVE",
"26 218 OFFCURVE",
"26 182 CURVE",
"233 181 OFFCURVE",
"415 180 OFFCURVE",
"616 174 CURVE",
"618 215 OFFCURVE",
"622 252 OFFCURVE",
"626 301 CURVE",
"454 296 OFFCURVE",
"210 292 OFFCURVE",
"14 290 CURVE"
);
}
);
width = 662;
}
);
unicode = 2013;
},
{
glyphname = emdash;
lastChange = "2016-04-14 15:38:08 +0000";
layers = (
{
layerId = "7A0FC40B-77F8-4D14-AD08-D047673E78CB";
name = Regular;
paths = (
{
closed = 1;
nodes = (
"21 253 OFFCURVE",
"26 218 OFFCURVE",
"26 182 CURVE",
"345 181 OFFCURVE",
"611 180 OFFCURVE",
"896 174 CURVE",
"896 215 OFFCURVE",
"901 252 OFFCURVE",
"906 301 CURVE",
"650 296 OFFCURVE",
"294 292 OFFCURVE",
"14 290 CURVE"
);
}
);
width = 942;
}
);
unicode = 2014;
},
{
glyphname = minus;
lastChange = "2016-04-14 15:38:08 +0000";
layers = (
{
layerId = "7A0FC40B-77F8-4D14-AD08-D047673E78CB";
name = Regular;
paths = (
{
closed = 1;
nodes = (
"21 257 OFFCURVE",
"26 204 OFFCURVE",
"26 157 CURVE",
"177 157 OFFCURVE",
"310 157 OFFCURVE",
"456 149 CURVE",
"458 201 OFFCURVE",
"462 251 OFFCURVE",
"466 316 CURVE",
"339 310 OFFCURVE",
"159 305 OFFCURVE",
"14 305 CURVE"
);
}
);
width = 502;
}
);
unicode = 2212;
},
{
glyphname = A.peq;
lastChange = "2016-04-14 15:38:08 +0000";
layers = (
{
layerId = "7A0FC40B-77F8-4D14-AD08-D047673E78CB";
name = Regular;
paths = (
{
closed = 1;
nodes = (
"214 -6 LINE",
"222 48 LINE",
"351 48 LINE",
"361 -10 LINE",
"468 -2 OFFCURVE",
"574 3 OFFCURVE",
"676 5 CURVE",
"614 156 OFFCURVE",
"573 298 OFFCURVE",
"545 450 CURVE",
"437 441 OFFCURVE",
"281 435 OFFCURVE",
"163 435 CURVE",
"122 286 OFFCURVE",
"74 154 OFFCURVE",
"4 10 CURVE"
);
},
{
closed = 1;
nodes = (
"314 252 LINE",
"341 170 LINE",
"251 164 LINE",
"286 250 LINE"
);
}
);
width = 680;
}
);
},
{
glyphname = Aacute;
lastChange = "2016-04-14 15:41:28 +0000";
layers = (
{
layerId = "7A0FC40B-77F8-4D14-AD08-D047673E78CB";
name = Regular;
paths = (
{
closed = 1;
nodes = (
"214 -6 LINE",
"222 48 LINE",
"351 48 LINE",
"361 -10 LINE",
"468 -2 OFFCURVE",
"574 3 OFFCURVE",
"676 5 CURVE",
"614 156 OFFCURVE",
"573 298 OFFCURVE",
"545 450 CURVE",
"437 441 OFFCURVE",
"281 435 OFFCURVE",
"163 435 CURVE",
"122 286 OFFCURVE",
"74 154 OFFCURVE",
"4 10 CURVE"
);
},
{
closed = 1;
nodes = (
"314 252 LINE",
"341 170 LINE",
"251 164 LINE",
"286 250 LINE"
);
},
{
closed = 1;
nodes = (
"166 528 OFFCURVE",
"177 493 OFFCURVE",
"179 457 CURVE",
"295 474 OFFCURVE",
"416 481 OFFCURVE",
"529 485 CURVE",
"518 529 OFFCURVE",
"510 568 OFFCURVE",
"506 620 CURVE",
"404 594 OFFCURVE",
"262 576 OFFCURVE",
"151 565 CURVE"
);
}
);
width = 680;
}
);
leftKerningGroup = A;
unicode = 00C1;
},
{
glyphname = Abreve;
lastChange = "2016-04-14 15:41:28 +0000";
layers = (
{
layerId = "7A0FC40B-77F8-4D14-AD08-D047673E78CB";
name = Regular;
paths = (
{
closed = 1;
nodes = (
"510 534 OFFCURVE",
"505 571 OFFCURVE",
"502 620 CURVE",
"461 598 OFFCURVE",
"403 580 OFFCURVE",
"340 580 CURVE SMOOTH",
"279 580 OFFCURVE",
"224 589 OFFCURVE",
"186 600 CURVE",
"182 559 OFFCURVE",
"173 528 OFFCURVE",
"163 493 CURVE",
"218 465 OFFCURVE",
"278 457 OFFCURVE",
"340 457 CURVE SMOOTH",
"402 457 OFFCURVE",
"461 465 OFFCURVE",
"517 493 CURVE"
);
},
{
closed = 1;
nodes = (
"214 -6 LINE",
"222 48 LINE",
"351 48 LINE",
"361 -10 LINE",
"468 -2 OFFCURVE",
"574 3 OFFCURVE",
"676 5 CURVE",
"614 156 OFFCURVE",
"573 298 OFFCURVE",
"545 450 CURVE",
"437 441 OFFCURVE",
"281 435 OFFCURVE",
"163 435 CURVE",
"122 286 OFFCURVE",
"74 154 OFFCURVE",
"4 10 CURVE"
);
},
{
closed = 1;
nodes = (
"314 252 LINE",
"341 170 LINE",
"251 164 LINE",
"286 250 LINE"
);
}
);
width = 680;
}
);
leftKerningGroup = A;
unicode = 0102;
},
{
glyphname = Acircumflex;
lastChange = "2016-04-14 15:41:28 +0000";
layers = (
{
layerId = "7A0FC40B-77F8-4D14-AD08-D047673E78CB";
name = Regular;
paths = (
{
closed = 1;
nodes = (
"150 517 OFFCURVE",
"161 488 OFFCURVE",
"164 449 CURVE",
"215 465 OFFCURVE",
"283 477 OFFCURVE",
"340 485 CURVE",
"395 479 OFFCURVE",
"462 469 OFFCURVE",
"511 457 CURVE",
"514 496 OFFCURVE",
"525 525 OFFCURVE",
"538 559 CURVE",
"480 583 OFFCURVE",
"416 606 OFFCURVE",
"339 620 CURVE",
"272 599 OFFCURVE",
"202 577 OFFCURVE",
"141 551 CURVE"
);
},
{
closed = 1;
nodes = (
"214 -6 LINE",
"222 48 LINE",
"351 48 LINE",
"361 -10 LINE",
"468 -2 OFFCURVE",
"574 3 OFFCURVE",
"676 5 CURVE",
"614 156 OFFCURVE",
"573 298 OFFCURVE",
"545 450 CURVE",
"437 441 OFFCURVE",
"281 435 OFFCURVE",
"163 435 CURVE",
"122 286 OFFCURVE",
"74 154 OFFCURVE",
"4 10 CURVE"
);
},
{
closed = 1;
nodes = (
"314 252 LINE",
"341 170 LINE",
"251 164 LINE",
"286 250 LINE"
);
}
);
width = 680;
}
);
leftKerningGroup = A;
unicode = 00C2;
},
{
glyphname = Agrave;
lastChange = "2016-04-14 15:41:28 +0000";
layers = (
{
layerId = "7A0FC40B-77F8-4D14-AD08-D047673E78CB";
name = Regular;
paths = (
{
closed = 1;
nodes = (
"418 576 OFFCURVE",
"276 594 OFFCURVE",
"174 620 CURVE",
"170 568 OFFCURVE",
"162 529 OFFCURVE",
"151 485 CURVE",
"264 481 OFFCURVE",
"385 474 OFFCURVE",
"501 457 CURVE",
"503 493 OFFCURVE",
"514 528 OFFCURVE",
"529 565 CURVE"
);
},
{
closed = 1;
nodes = (
"214 -6 LINE",
"222 48 LINE",
"351 48 LINE",
"361 -10 LINE",
"468 -2 OFFCURVE",
"574 3 OFFCURVE",
"676 5 CURVE",
"614 156 OFFCURVE",
"573 298 OFFCURVE",
"545 450 CURVE",
"437 441 OFFCURVE",
"281 435 OFFCURVE",
"163 435 CURVE",
"122 286 OFFCURVE",
"74 154 OFFCURVE",
"4 10 CURVE"
);
},
{
closed = 1;
nodes = (
"314 252 LINE",
"341 170 LINE",
"251 164 LINE",
"286 250 LINE"
);
}
);
width = 680;
}
);
leftKerningGroup = A;
unicode = 00C0;
},
{
glyphname = Adieresis;
lastChange = "2016-04-14 15:41:28 +0000";
layers = (
{
layerId = "7A0FC40B-77F8-4D14-AD08-D047673E78CB";
name = Regular;
paths = (
{
closed = 1;
nodes = (
"365 479 LINE",
"414 478 OFFCURVE",
"460 476 OFFCURVE",
"508 473 CURVE",
"510 514 OFFCURVE",
"513 551 OFFCURVE",
"517 600 CURVE",
"470 597 OFFCURVE",
"413 595 OFFCURVE",
"356 593 CURVE"
);
},
{
closed = 1;
nodes = (
"316 593 LINE",
"263 592 OFFCURVE",
"209 589 OFFCURVE",
"162 589 CURVE",
"169 552 OFFCURVE",
"174 515 OFFCURVE",
"174 479 CURVE",
"325 479 LINE"
);
},
{
closed = 1;
nodes = (
"214 -6 LINE",
"222 48 LINE",
"351 48 LINE",
"361 -10 LINE",
"468 -2 OFFCURVE",
"574 3 OFFCURVE",
"676 5 CURVE",
"614 156 OFFCURVE",
"573 298 OFFCURVE",
"545 450 CURVE",
"437 441 OFFCURVE",
"281 435 OFFCURVE",
"163 435 CURVE",
"122 286 OFFCURVE",
"74 154 OFFCURVE",
"4 10 CURVE"
);
},
{
closed = 1;
nodes = (
"314 252 LINE",
"341 170 LINE",
"251 164 LINE",
"286 250 LINE"
);
}
);
width = 680;
}
);
leftKerningGroup = A;
unicode = 00C4;
},
{
glyphname = Amacron;
lastChange = "2016-04-14 15:41:28 +0000";
layers = (
{
layerId = "7A0FC40B-77F8-4D14-AD08-D047673E78CB";
name = Regular;
paths = (
{
closed = 1;
nodes = (
"168 552 OFFCURVE",
"173 517 OFFCURVE",
"174 481 CURVE",
"285 480 OFFCURVE",
"400 479 OFFCURVE",
"508 473 CURVE",
"510 514 OFFCURVE",
"513 551 OFFCURVE",
"517 600 CURVE",
"415 595 OFFCURVE",
"273 591 OFFCURVE",
"162 589 CURVE"
);
},
{
closed = 1;
nodes = (
"214 -6 LINE",
"222 48 LINE",
"351 48 LINE",
"361 -10 LINE",
"468 -2 OFFCURVE",
"574 3 OFFCURVE",
"676 5 CURVE",
"614 156 OFFCURVE",
"573 298 OFFCURVE",
"545 450 CURVE",
"437 441 OFFCURVE",
"281 435 OFFCURVE",
"163 435 CURVE",
"122 286 OFFCURVE",
"74 154 OFFCURVE",
"4 10 CURVE"
);
},
{
closed = 1;
nodes = (
"314 252 LINE",
"341 170 LINE",
"251 164 LINE",
"286 250 LINE"
);
}
);
width = 680;
}
);
leftKerningGroup = A;
unicode = 0100;
},
{
glyphname = Aogonek;
lastChange = "2016-04-14 15:41:28 +0000";
layers = (
{
layerId = "7A0FC40B-77F8-4D14-AD08-D047673E78CB";
name = Regular;
paths = (
{
closed = 1;
nodes = (
"214 -6 LINE",
"222 80 LINE",
"351 80 LINE",
"361 -10 LINE",
"468 -2 OFFCURVE",
"574 3 OFFCURVE",
"676 5 CURVE",
"622 192 OFFCURVE",
"586 382 OFFCURVE",
"561 570 CURVE",
"443 561 OFFCURVE",
"274 555 OFFCURVE",
"147 555 CURVE",
"111 370 OFFCURVE",
"68 190 OFFCURVE",
"4 10 CURVE"
);
},
{
closed = 1;
nodes = (
"306 372 LINE",
"341 202 LINE",
"251 196 LINE",
"294 370 LINE"
);
},
{
closed = 1;
nodes = (
"529 -79 OFFCURVE",
"530 -68 OFFCURVE",
"536 -58 CURVE",
"572 -26 OFFCURVE",
"609 -6 OFFCURVE",
"660 16 CURVE",
"502 16 LINE",
"438 3 OFFCURVE",
"402 -15 OFFCURVE",
"361 -44 CURVE",
"359 -54 OFFCURVE",
"358 -63 OFFCURVE",
"358 -73 CURVE SMOOTH",
"358 -97 OFFCURVE",
"365 -122 OFFCURVE",
"381 -138 CURVE",
"426 -149 OFFCURVE",
"476 -154 OFFCURVE",
"520 -154 CURVE SMOOTH",
"581 -154 OFFCURVE",
"629 -144 OFFCURVE",
"676 -129 CURVE",
"668 -80 LINE",
"634 -96 OFFCURVE",
"611 -100 OFFCURVE",
"579 -100 CURVE SMOOTH",
"563 -100 OFFCURVE",
"546 -98 OFFCURVE",
"529 -93 CURVE"
);
}
);
width = 680;
}
);
leftKerningGroup = A;
unicode = 0104;
},
{
glyphname = Aring;
lastChange = "2016-04-14 15:41:28 +0000";
layers = (
{
layerId = "7A0FC40B-77F8-4D14-AD08-D047673E78CB";
name = Regular;
paths = (
{
closed = 1;
nodes = (
"225 570 OFFCURVE",
"221 556 OFFCURVE",
"221 541 CURVE SMOOTH",
"221 521 OFFCURVE",
"227 502 OFFCURVE",
"241 481 CURVE",
"270 469 OFFCURVE",
"299 463 OFFCURVE",
"329 463 CURVE SMOOTH",
"358 463 OFFCURVE",
"389 469 OFFCURVE",
"420 478 CURVE",
"447 503 OFFCURVE",
"458 534 OFFCURVE",
"458 568 CURVE SMOOTH",
"458 577 OFFCURVE",
"457 587 OFFCURVE",
"456 597 CURVE",
"422 608 OFFCURVE",
"389 614 OFFCURVE",
"355 614 CURVE SMOOTH",
"314 614 OFFCURVE",
"273 605 OFFCURVE",
"231 586 CURVE"
);
},
{
closed = 1;
nodes = (
"374 513 OFFCURVE",
"357 509 OFFCURVE",
"341 509 CURVE SMOOTH",
"328 509 OFFCURVE",
"315 509 OFFCURVE",
"301 516 CURVE",
"301 527 OFFCURVE",
"301 539 OFFCURVE",
"308 547 CURVE",
"321 557 OFFCURVE",
"337 561 OFFCURVE",
"351 561 CURVE SMOOTH",
"366 561 OFFCURVE",
"381 557 OFFCURVE",
"388 553 CURVE",
"393 548 OFFCURVE",
"396 543 OFFCURVE",
"396 538 CURVE SMOOTH",
"396 531 OFFCURVE",
"394 526 OFFCURVE",
"391 520 CURVE"
);
},
{
closed = 1;
nodes = (
"214 -6 LINE",
"222 48 LINE",
"351 48 LINE",
"361 -10 LINE",
"468 -2 OFFCURVE",
"574 3 OFFCURVE",
"676 5 CURVE",
"614 156 OFFCURVE",
"573 298 OFFCURVE",
"545 450 CURVE",
"437 441 OFFCURVE",
"281 435 OFFCURVE",
"163 435 CURVE",
"122 286 OFFCURVE",
"74 154 OFFCURVE",
"4 10 CURVE"
);
},
{
closed = 1;
nodes = (
"314 252 LINE",
"341 170 LINE",
"251 164 LINE",
"286 250 LINE"
);
}
);
width = 680;
}
);
leftKerningGroup = A;
unicode = 00C5;
},
{
glyphname = Atilde;
lastChange = "2016-04-14 15:41:28 +0000";
layers = (
{
layerId = "7A0FC40B-77F8-4D14-AD08-D047673E78CB";
name = Regular;
paths = (
{
closed = 1;
nodes = (
"167 541 OFFCURVE",
"171 512 OFFCURVE",
"172 473 CURVE",
"193 485 OFFCURVE",
"224 497 OFFCURVE",
"258 497 CURVE SMOOTH",
"316 497 OFFCURVE",
"351 457 OFFCURVE",
"406 457 CURVE SMOOTH",
"444 457 OFFCURVE",
"482 465 OFFCURVE",
"518 493 CURVE",
"509 534 OFFCURVE",
"503 571 OFFCURVE",
"500 620 CURVE",
"477 598 OFFCURVE",
"443 580 OFFCURVE",
"406 580 CURVE SMOOTH",
"351 580 OFFCURVE",
"311 612 OFFCURVE",
"258 612 CURVE SMOOTH",
"224 612 OFFCURVE",
"193 602 OFFCURVE",
"162 575 CURVE"
);
},
{
closed = 1;
nodes = (
"214 -6 LINE",
"222 48 LINE",
"351 48 LINE",
"361 -10 LINE",
"468 -2 OFFCURVE",
"574 3 OFFCURVE",
"676 5 CURVE",
"614 156 OFFCURVE",
"573 298 OFFCURVE",
"545 450 CURVE",
"437 441 OFFCURVE",
"281 435 OFFCURVE",
"163 435 CURVE",
"122 286 OFFCURVE",
"74 154 OFFCURVE",
"4 10 CURVE"
);
},
{
closed = 1;
nodes = (
"314 252 LINE",
"341 170 LINE",
"251 164 LINE",
"286 250 LINE"
);
}
);
width = 680;
}
);
leftKerningGroup = A;
unicode = 00C3;
},
{
glyphname = AE;
lastChange = "2016-04-14 15:41:28 +0000";
layers = (
{
layerId = "7A0FC40B-77F8-4D14-AD08-D047673E78CB";
name = Regular;
paths = (
{
closed = 1;
nodes = (
"350 370 LINE",
"366 370 LINE",
"366 199 LINE",
"275 196 LINE"
);
},
{
closed = 1;
nodes = (
"906 128 LINE",
"641 119 LINE",
"633 225 LINE",
"838 233 LINE",
"852 359 LINE",
"780 358 OFFCURVE",
"710 355 OFFCURVE",
"642 354 CURVE",
"642 435 LINE",
"729 435 OFFCURVE",
"808 434 OFFCURVE",
"886 431 CURVE",
"896 570 LINE",
"681 558 OFFCURVE",
"466 555 OFFCURVE",
"203 555 CURVE",
"150 370 OFFCURVE",
"90 190 OFFCURVE",
"4 10 CURVE",
"214 -6 LINE",
"246 80 LINE",
"377 80 LINE",
"374 -10 LINE",
"550 -4 OFFCURVE",
"724 0 OFFCURVE",
"895 1 CURVE"
);
}
);
width = 918;
}
);
leftKerningGroup = AE;
unicode = 00C6;
},
{
glyphname = Cacute;
lastChange = "2016-04-14 15:41:28 +0000";
layers = (
{
layerId = "7A0FC40B-77F8-4D14-AD08-D047673E78CB";
name = Regular;
paths = (
{
closed = 1;
nodes = (
"518 134 LINE",
"495 130 OFFCURVE",
"474 130 OFFCURVE",
"454 130 CURVE SMOOTH",
"406 130 OFFCURVE",
"366 133 OFFCURVE",
"334 138 CURVE",
"311 153 OFFCURVE",
"299 182 OFFCURVE",
"299 229 CURVE SMOOTH",
"299 257 OFFCURVE",
"307 282 OFFCURVE",
"322 298 CURVE",
"350 303 OFFCURVE",
"384 305 OFFCURVE",
"423 305 CURVE SMOOTH",
"452 305 OFFCURVE",
"483 299 OFFCURVE",
"514 291 CURVE",
"542 431 LINE",
"490 447 OFFCURVE",
"427 458 OFFCURVE",
"346 458 CURVE SMOOTH",
"242 458 OFFCURVE",
"166 449 OFFCURVE",
"88 430 CURVE",
"34 377 OFFCURVE",
"4 330 OFFCURVE",
"4 227 CURVE SMOOTH",
"4 130 OFFCURVE",
"30 78 OFFCURVE",
"78 28 CURVE",
"167 0 OFFCURVE",
"249 -10 OFFCURVE",
"370 -10 CURVE SMOOTH",
"414 -10 OFFCURVE",
"478 -3 OFFCURVE",
"529 5 CURVE"
);
},
{
closed = 1;
nodes = (
"127 528 OFFCURVE",
"138 493 OFFCURVE",
"140 457 CURVE",
"256 474 OFFCURVE",
"377 481 OFFCURVE",
"490 485 CURVE",
"479 529 OFFCURVE",
"471 568 OFFCURVE",
"467 620 CURVE",
"365 594 OFFCURVE",
"223 576 OFFCURVE",
"112 565 CURVE"
);
}
);
width = 554;
}
);
unicode = 0106;
},
{
glyphname = C.peq;
lastChange = "2016-04-14 15:38:08 +0000";
layers = (
{
layerId = "7A0FC40B-77F8-4D14-AD08-D047673E78CB";
name = Regular;
paths = (
{
closed = 1;
nodes = (
"518 134 LINE",
"495 130 OFFCURVE",
"474 130 OFFCURVE",
"454 130 CURVE SMOOTH",
"406 130 OFFCURVE",
"366 133 OFFCURVE",
"334 138 CURVE",
"311 153 OFFCURVE",
"299 182 OFFCURVE",
"299 229 CURVE SMOOTH",
"299 257 OFFCURVE",
"307 282 OFFCURVE",
"322 298 CURVE",
"350 303 OFFCURVE",
"384 305 OFFCURVE",
"423 305 CURVE SMOOTH",
"452 305 OFFCURVE",
"483 299 OFFCURVE",
"514 291 CURVE",
"542 431 LINE",
"490 447 OFFCURVE",
"427 458 OFFCURVE",
"346 458 CURVE SMOOTH",
"242 458 OFFCURVE",
"166 449 OFFCURVE",
"88 430 CURVE",
"34 377 OFFCURVE",
"4 330 OFFCURVE",
"4 227 CURVE SMOOTH",
"4 130 OFFCURVE",
"30 78 OFFCURVE",
"78 28 CURVE",
"167 0 OFFCURVE",
"249 -10 OFFCURVE",
"370 -10 CURVE SMOOTH",
"414 -10 OFFCURVE",
"478 -3 OFFCURVE",
"529 5 CURVE"
);
}
);
width = 554;
}
);
},
{
glyphname = Ccaron;
lastChange = "2016-04-14 15:41:28 +0000";
layers = (
{
layerId = "7A0FC40B-77F8-4D14-AD08-D047673E78CB";
name = Regular;
paths = (
{
closed = 1;
nodes = (
"466 553 OFFCURVE",
"455 585 OFFCURVE",
"452 628 CURVE",
"401 615 OFFCURVE",
"333 605 OFFCURVE",
"276 599 CURVE",
"221 604 OFFCURVE",
"155 610 OFFCURVE",
"105 620 CURVE",
"102 590 OFFCURVE",
"92 568 OFFCURVE",
"78 541 CURVE",
"136 511 OFFCURVE",
"200 481 OFFCURVE",
"277 465 CURVE",
"344 481 OFFCURVE",
"415 497 OFFCURVE",
"475 517 CURVE"
);
},
{
closed = 1;
nodes = (
"518 134 LINE",
"495 130 OFFCURVE",
"474 130 OFFCURVE",
"454 130 CURVE SMOOTH",
"406 130 OFFCURVE",
"366 133 OFFCURVE",
"334 138 CURVE",
"311 153 OFFCURVE",
"299 182 OFFCURVE",
"299 229 CURVE SMOOTH",
"299 257 OFFCURVE",
"307 282 OFFCURVE",
"322 298 CURVE",
"350 303 OFFCURVE",
"384 305 OFFCURVE",
"423 305 CURVE SMOOTH",
"452 305 OFFCURVE",
"483 299 OFFCURVE",
"514 291 CURVE",
"542 431 LINE",
"490 447 OFFCURVE",
"427 458 OFFCURVE",
"346 458 CURVE SMOOTH",
"242 458 OFFCURVE",
"166 449 OFFCURVE",
"88 430 CURVE",
"34 377 OFFCURVE",
"4 330 OFFCURVE",
"4 227 CURVE SMOOTH",
"4 130 OFFCURVE",
"30 78 OFFCURVE",
"78 28 CURVE",
"167 0 OFFCURVE",
"249 -10 OFFCURVE",
"370 -10 CURVE SMOOTH",
"414 -10 OFFCURVE",
"478 -3 OFFCURVE",
"529 5 CURVE"
);
}
);
width = 554;
}
);
unicode = 010C;
},
{
glyphname = Ccedilla;
lastChange = "2016-04-14 15:41:28 +0000";
layers = (
{
layerId = "7A0FC40B-77F8-4D14-AD08-D047673E78CB";
name = Regular;
paths = (
{
closed = 1;
nodes = (
"243 -99 OFFCURVE",
"226 -100 OFFCURVE",
"210 -100 CURVE SMOOTH",
"181 -100 OFFCURVE",
"160 -99 OFFCURVE",
"129 -96 CURVE",
"121 -145 LINE",
"149 -150 OFFCURVE",
"177 -154 OFFCURVE",
"213 -154 CURVE SMOOTH",
"274 -154 OFFCURVE",
"346 -149 OFFCURVE",
"408 -138 CURVE",
"424 -122 OFFCURVE",
"431 -97 OFFCURVE",
"431 -73 CURVE SMOOTH",
"431 -63 OFFCURVE",
"430 -54 OFFCURVE",
"428 -44 CURVE",
"398 -33 OFFCURVE",
"365 -33 OFFCURVE",
"335 -33 CURVE",
"335 -10 LINE",
"370 -10 LINE SMOOTH",
"414 -10 OFFCURVE",
"478 -3 OFFCURVE",
"529 5 CURVE",
"518 134 LINE",
"495 130 OFFCURVE",
"474 130 OFFCURVE",
"454 130 CURVE SMOOTH",
"412 130 OFFCURVE",
"378 133 OFFCURVE",
"350 138 CURVE",
"318 164 OFFCURVE",
"299 210 OFFCURVE",
"299 285 CURVE SMOOTH",
"299 344 OFFCURVE",
"314 386 OFFCURVE",
"338 410 CURVE",
"361 414 OFFCURVE",
"390 417 OFFCURVE",
"423 417 CURVE SMOOTH",
"452 417 OFFCURVE",
"483 411 OFFCURVE",
"514 403 CURVE",
"542 543 LINE",
"490 559 OFFCURVE",
"427 570 OFFCURVE",
"346 570 CURVE SMOOTH",
"251 570 OFFCURVE",
"182 561 OFFCURVE",
"112 542 CURVE",
"42 482 OFFCURVE",
"4 414 OFFCURVE",
"4 283 CURVE SMOOTH",
"4 158 OFFCURVE",
"37 91 OFFCURVE",
"102 28 CURVE",
"127 19 OFFCURVE",
"151 13 OFFCURVE",
"175 7 CURVE",
"161 -73 LINE",
"176 -70 OFFCURVE",
"195 -70 OFFCURVE",
"212 -70 CURVE SMOOTH",
"227 -70 OFFCURVE",
"241 -72 OFFCURVE",
"248 -74 CURVE",
"254 -80 OFFCURVE",
"258 -88 OFFCURVE",
"260 -97 CURVE"
);
}
);
width = 554;
}
);
unicode = 00C7;
},
{
glyphname = Ccircumflex;
lastChange = "2016-04-14 15:41:28 +0000";
layers = (
{
layerId = "7A0FC40B-77F8-4D14-AD08-D047673E78CB";
name = Regular;
paths = (
{
closed = 1;
nodes = (
"111 517 OFFCURVE",
"122 488 OFFCURVE",
"125 449 CURVE",
"176 465 OFFCURVE",
"244 477 OFFCURVE",
"301 485 CURVE",
"356 479 OFFCURVE",
"423 469 OFFCURVE",
"472 457 CURVE",
"475 496 OFFCURVE",
"486 525 OFFCURVE",
"499 559 CURVE",
"441 583 OFFCURVE",
"377 606 OFFCURVE",
"300 620 CURVE",
"233 599 OFFCURVE",
"163 577 OFFCURVE",
"102 551 CURVE"
);
},
{
closed = 1;
nodes = (
"518 134 LINE",
"495 130 OFFCURVE",
"474 130 OFFCURVE",
"454 130 CURVE SMOOTH",
"406 130 OFFCURVE",
"366 133 OFFCURVE",
"334 138 CURVE",
"311 153 OFFCURVE",
"299 182 OFFCURVE",
"299 229 CURVE SMOOTH",
"299 257 OFFCURVE",
"307 282 OFFCURVE",
"322 298 CURVE",
"350 303 OFFCURVE",
"384 305 OFFCURVE",
"423 305 CURVE SMOOTH",
"452 305 OFFCURVE",
"483 299 OFFCURVE",
"514 291 CURVE",
"542 431 LINE",
"490 447 OFFCURVE",
"427 458 OFFCURVE",
"346 458 CURVE SMOOTH",
"242 458 OFFCURVE",
"166 449 OFFCURVE",
"88 430 CURVE",
"34 377 OFFCURVE",
"4 330 OFFCURVE",
"4 227 CURVE SMOOTH",
"4 130 OFFCURVE",
"30 78 OFFCURVE",
"78 28 CURVE",
"167 0 OFFCURVE",
"249 -10 OFFCURVE",
"370 -10 CURVE SMOOTH",
"414 -10 OFFCURVE",
"478 -3 OFFCURVE",
"529 5 CURVE"
);
}
);
width = 554;
}
);
unicode = 0108;
},
{
glyphname = Cdotaccent;
lastChange = "2016-04-14 15:41:28 +0000";
layers = (
{
layerId = "7A0FC40B-77F8-4D14-AD08-D047673E78CB";
name = Regular;
paths = (
{
closed = 1;
nodes = (
"429 637 LINE",
"172 626 LINE",
"181 568 OFFCURVE",
"182 523 OFFCURVE",
"182 477 CURVE",
"214 479 OFFCURVE",
"246 481 OFFCURVE",
"282 481 CURVE SMOOTH",
"317 481 OFFCURVE",
"354 479 OFFCURVE",
"393 474 CURVE"
);
},
{
closed = 1;
nodes = (
"518 134 LINE",
"495 130 OFFCURVE",
"474 130 OFFCURVE",
"454 130 CURVE SMOOTH",
"406 130 OFFCURVE",
"366 133 OFFCURVE",
"334 138 CURVE",
"311 153 OFFCURVE",
"299 182 OFFCURVE",
"299 229 CURVE SMOOTH",
"299 257 OFFCURVE",
"307 282 OFFCURVE",
"322 298 CURVE",
"350 303 OFFCURVE",
"384 305 OFFCURVE",
"423 305 CURVE SMOOTH",
"452 305 OFFCURVE",
"483 299 OFFCURVE",
"514 291 CURVE",
"542 431 LINE",
"490 447 OFFCURVE",
"427 458 OFFCURVE",
"346 458 CURVE SMOOTH",
"242 458 OFFCURVE",
"166 449 OFFCURVE",
"88 430 CURVE",
"34 377 OFFCURVE",
"4 330 OFFCURVE",
"4 227 CURVE SMOOTH",
"4 130 OFFCURVE",
"30 78 OFFCURVE",
"78 28 CURVE",
"167 0 OFFCURVE",
"249 -10 OFFCURVE",
"370 -10 CURVE SMOOTH",
"414 -10 OFFCURVE",
"478 -3 OFFCURVE",
"529 5 CURVE"
);
}
);
width = 554;
}
);
unicode = 010A;
},
{
glyphname = E.peq;
lastChange = "2016-04-14 15:38:08 +0000";
layers = (
{
layerId = "7A0FC40B-77F8-4D14-AD08-D047673E78CB";
name = Regular;
paths = (
{
closed = 1;
nodes = (
"289 119 LINE",
"281 169 LINE",
"486 177 LINE",
"500 279 LINE",
"428 278 OFFCURVE",
"358 275 OFFCURVE",
"290 274 CURVE",
"290 323 LINE",
"377 323 OFFCURVE",
"456 322 OFFCURVE",
"534 319 CURVE",
"544 450 LINE",
"371 445 OFFCURVE",
"196 440 OFFCURVE",
"17 440 CURVE",
"17 287 OFFCURVE",
"14 145 OFFCURVE",
"8 -10 CURVE",
"189 -4 OFFCURVE",
"366 -1 OFFCURVE",
"543 1 CURVE",
"554 128 LINE"
);
}
);
width = 566;
}
);
},
{
glyphname = Ebreve;
lastChange = "2016-04-14 15:41:28 +0000";
layers = (
{
layerId = "7A0FC40B-77F8-4D14-AD08-D047673E78CB";
name = Regular;
paths = (
{
closed = 1;
nodes = (
"453 534 OFFCURVE",
"448 571 OFFCURVE",
"445 620 CURVE",
"404 598 OFFCURVE",
"346 580 OFFCURVE",
"283 580 CURVE SMOOTH",
"222 580 OFFCURVE",
"167 589 OFFCURVE",
"129 600 CURVE",
"125 559 OFFCURVE",
"116 528 OFFCURVE",
"106 493 CURVE",
"161 465 OFFCURVE",
"221 457 OFFCURVE",
"283 457 CURVE SMOOTH",
"345 457 OFFCURVE",
"404 465 OFFCURVE",
"460 493 CURVE"
);
},
{
closed = 1;
nodes = (
"289 119 LINE",
"281 169 LINE",
"486 177 LINE",
"500 279 LINE",
"428 278 OFFCURVE",
"358 275 OFFCURVE",
"290 274 CURVE",
"290 323 LINE",
"377 323 OFFCURVE",
"456 322 OFFCURVE",
"534 319 CURVE",
"544 450 LINE",
"371 445 OFFCURVE",
"196 440 OFFCURVE",
"17 440 CURVE",
"17 287 OFFCURVE",
"14 145 OFFCURVE",
"8 -10 CURVE",
"189 -4 OFFCURVE",
"366 -1 OFFCURVE",
"543 1 CURVE",
"554 128 LINE"
);
}
);
width = 566;
}
);
unicode = 0114;
},
{
glyphname = Ecaron;
lastChange = "2016-04-14 15:41:28 +0000";
layers = (
{
layerId = "7A0FC40B-77F8-4D14-AD08-D047673E78CB";
name = Regular;
paths = (
{
closed = 1;
nodes = (
"472 545 OFFCURVE",
"461 577 OFFCURVE",
"458 620 CURVE",
"407 607 OFFCURVE",
"339 597 OFFCURVE",
"282 591 CURVE",
"227 596 OFFCURVE",
"161 602 OFFCURVE",
"111 612 CURVE",
"108 582 OFFCURVE",
"98 560 OFFCURVE",
"84 533 CURVE",
"142 503 OFFCURVE",
"206 473 OFFCURVE",
"283 457 CURVE",
"350 473 OFFCURVE",
"421 489 OFFCURVE",
"481 509 CURVE"
);
},
{
closed = 1;
nodes = (
"289 119 LINE",
"281 169 LINE",
"486 177 LINE",
"500 279 LINE",
"428 278 OFFCURVE",
"358 275 OFFCURVE",
"290 274 CURVE",
"290 323 LINE",
"377 323 OFFCURVE",
"456 322 OFFCURVE",
"534 319 CURVE",
"544 450 LINE",
"371 445 OFFCURVE",
"196 440 OFFCURVE",
"17 440 CURVE",
"17 287 OFFCURVE",
"14 145 OFFCURVE",
"8 -10 CURVE",
"189 -4 OFFCURVE",
"366 -1 OFFCURVE",
"543 1 CURVE",
"554 128 LINE"
);
}
);
width = 566;
}
);
unicode = 011A;
},
{
glyphname = Ecircumflex;
lastChange = "2016-04-14 15:41:28 +0000";
layers = (
{
layerId = "7A0FC40B-77F8-4D14-AD08-D047673E78CB";
name = Regular;
paths = (
{
closed = 1;
nodes = (
"93 517 OFFCURVE",
"104 488 OFFCURVE",
"107 449 CURVE",
"158 465 OFFCURVE",
"226 477 OFFCURVE",
"283 485 CURVE",
"338 479 OFFCURVE",
"405 469 OFFCURVE",
"454 457 CURVE",
"457 496 OFFCURVE",
"468 525 OFFCURVE",
"481 559 CURVE",
"423 583 OFFCURVE",
"359 606 OFFCURVE",
"282 620 CURVE",
"215 599 OFFCURVE",
"145 577 OFFCURVE",
"84 551 CURVE"
);
},
{
closed = 1;
nodes = (
"289 119 LINE",
"281 169 LINE",
"486 177 LINE",
"500 279 LINE",
"428 278 OFFCURVE",
"358 275 OFFCURVE",
"290 274 CURVE",
"290 323 LINE",
"377 323 OFFCURVE",
"456 322 OFFCURVE",
"534 319 CURVE",
"544 450 LINE",
"371 445 OFFCURVE",
"196 440 OFFCURVE",
"17 440 CURVE",
"17 287 OFFCURVE",
"14 145 OFFCURVE",
"8 -10 CURVE",
"189 -4 OFFCURVE",
"366 -1 OFFCURVE",
"543 1 CURVE",
"554 128 LINE"
);
}
);
width = 566;
}
);
unicode = 00CA;
},
{
glyphname = Edieresis;
lastChange = "2016-04-14 15:41:28 +0000";
layers = (
{
layerId = "7A0FC40B-77F8-4D14-AD08-D047673E78CB";
name = Regular;
paths = (
{
closed = 1;
nodes = (
"309 479 LINE",
"358 478 OFFCURVE",
"404 476 OFFCURVE",
"452 473 CURVE",
"454 514 OFFCURVE",
"457 551 OFFCURVE",
"461 600 CURVE",
"414 597 OFFCURVE",
"357 595 OFFCURVE",
"300 593 CURVE"
);
},
{
closed = 1;
nodes = (
"260 593 LINE",
"207 592 OFFCURVE",
"153 589 OFFCURVE",
"106 589 CURVE",
"113 552 OFFCURVE",
"118 515 OFFCURVE",
"118 479 CURVE",
"269 479 LINE"
);
},
{
closed = 1;
nodes = (
"289 119 LINE",
"281 169 LINE",
"486 177 LINE",
"500 279 LINE",
"428 278 OFFCURVE",
"358 275 OFFCURVE",
"290 274 CURVE",
"290 323 LINE",
"377 323 OFFCURVE",
"456 322 OFFCURVE",
"534 319 CURVE",
"544 450 LINE",
"371 445 OFFCURVE",
"196 440 OFFCURVE",
"17 440 CURVE",
"17 287 OFFCURVE",
"14 145 OFFCURVE",
"8 -10 CURVE",
"189 -4 OFFCURVE",
"366 -1 OFFCURVE",
"543 1 CURVE",
"554 128 LINE"
);
}
);
width = 566;
}
);
unicode = 00CB;
},
{
glyphname = Edotaccent;
lastChange = "2016-04-14 15:41:28 +0000";
layers = (
{
layerId = "7A0FC40B-77F8-4D14-AD08-D047673E78CB";
name = Regular;
paths = (
{
closed = 1;
nodes = (
"411 621 LINE",
"154 610 LINE",
"163 552 OFFCURVE",
"164 507 OFFCURVE",
"164 461 CURVE",
"196 463 OFFCURVE",
"228 465 OFFCURVE",
"264 465 CURVE SMOOTH",
"299 465 OFFCURVE",
"336 463 OFFCURVE",
"375 458 CURVE"
);
},
{
closed = 1;
nodes = (
"289 119 LINE",
"281 169 LINE",
"486 177 LINE",
"500 279 LINE",
"428 278 OFFCURVE",
"358 275 OFFCURVE",
"290 274 CURVE",
"290 323 LINE",
"377 323 OFFCURVE",
"456 322 OFFCURVE",
"534 319 CURVE",
"544 450 LINE",
"371 445 OFFCURVE",
"196 440 OFFCURVE",
"17 440 CURVE",
"17 287 OFFCURVE",
"14 145 OFFCURVE",
"8 -10 CURVE",
"189 -4 OFFCURVE",
"366 -1 OFFCURVE",
"543 1 CURVE",
"554 128 LINE"
);
}
);
width = 566;
}
);
unicode = 0116;
},
{
glyphname = Egrave;
lastChange = "2016-04-14 15:41:28 +0000";
layers = (
{
layerId = "7A0FC40B-77F8-4D14-AD08-D047673E78CB";
name = Regular;
paths = (
{
closed = 1;
nodes = (
"361 576 OFFCURVE",
"219 594 OFFCURVE",
"117 620 CURVE",
"113 568 OFFCURVE",
"105 529 OFFCURVE",
"94 485 CURVE",
"207 481 OFFCURVE",
"328 474 OFFCURVE",
"444 457 CURVE",
"446 493 OFFCURVE",
"457 528 OFFCURVE",
"472 565 CURVE"
);
},
{
closed = 1;
nodes = (
"289 119 LINE",
"281 169 LINE",
"486 177 LINE",
"500 279 LINE",
"428 278 OFFCURVE",
"358 275 OFFCURVE",
"290 274 CURVE",
"290 323 LINE",
"377 323 OFFCURVE",
"456 322 OFFCURVE",
"534 319 CURVE",
"544 450 LINE",
"371 445 OFFCURVE",
"196 440 OFFCURVE",
"17 440 CURVE",
"17 287 OFFCURVE",
"14 145 OFFCURVE",
"8 -10 CURVE",
"189 -4 OFFCURVE",
"366 -1 OFFCURVE",
"543 1 CURVE",
"554 128 LINE"
);
}
);
width = 566;
}
);
unicode = 00C8;
},
{
glyphname = Emacron;
lastChange = "2016-04-14 15:41:28 +0000";
layers = (
{
layerId = "7A0FC40B-77F8-4D14-AD08-D047673E78CB";
name = Regular;
paths = (
{
closed = 1;
nodes = (
"112 552 OFFCURVE",
"117 517 OFFCURVE",
"118 481 CURVE",
"229 480 OFFCURVE",
"344 479 OFFCURVE",
"452 473 CURVE",
"454 514 OFFCURVE",
"457 551 OFFCURVE",
"461 600 CURVE",
"359 595 OFFCURVE",
"217 591 OFFCURVE",
"106 589 CURVE"
);
},
{
closed = 1;
nodes = (
"289 119 LINE",
"281 169 LINE",
"486 177 LINE",
"500 279 LINE",
"428 278 OFFCURVE",
"358 275 OFFCURVE",
"290 274 CURVE",
"290 323 LINE",
"377 323 OFFCURVE",
"456 322 OFFCURVE",
"534 319 CURVE",
"544 450 LINE",
"371 445 OFFCURVE",
"196 440 OFFCURVE",
"17 440 CURVE",
"17 287 OFFCURVE",
"14 145 OFFCURVE",
"8 -10 CURVE",
"189 -4 OFFCURVE",
"366 -1 OFFCURVE",
"543 1 CURVE",
"554 128 LINE"
);
}
);
width = 566;
}
);
unicode = 0112;
},
{
glyphname = G.peq;
lastChange = "2016-04-14 15:38:08 +0000";
layers = (
{
layerId = "7A0FC40B-77F8-4D14-AD08-D047673E78CB";
name = Regular;
paths = (
{
closed = 1;
nodes = (
"654 226 LINE",
"388 216 LINE",
"403 134 LINE",
"369 137 OFFCURVE",
"342 142 OFFCURVE",
"317 152 CURVE",
"306 166 OFFCURVE",
"299 186 OFFCURVE",
"299 221 CURVE SMOOTH",
"299 242 OFFCURVE",
"306 261 OFFCURVE",
"318 270 CURVE",
"350 280 OFFCURVE",
"390 286 OFFCURVE",
"437 286 CURVE SMOOTH",
"485 286 OFFCURVE",
"544 282 OFFCURVE",
"594 271 CURVE",
"630 423 LINE",
"556 434 OFFCURVE",
"472 442 OFFCURVE",
"362 442 CURVE SMOOTH",
"248 442 OFFCURVE",
"157 432 OFFCURVE",
"83 413 CURVE",
"32 372 OFFCURVE",
"4 315 OFFCURVE",
"4 219 CURVE SMOOTH",
"4 126 OFFCURVE",
"30 71 OFFCURVE",
"80 26 CURVE",
"150 2 OFFCURVE",
"250 -10 OFFCURVE",
"370 -10 CURVE SMOOTH",
"446 -10 OFFCURVE",
"542 -3 OFFCURVE",
"638 25 CURVE"
);
}
);
width = 674;
}
);
},
{
glyphname = Gbreve;
lastChange = "2016-04-14 15:41:28 +0000";
layers = (
{
layerId = "7A0FC40B-77F8-4D14-AD08-D047673E78CB";
name = Regular;
paths = (
{
closed = 1;
nodes = (
"654 226 LINE",
"388 216 LINE",
"403 134 LINE",
"369 137 OFFCURVE",
"342 142 OFFCURVE",
"317 152 CURVE",
"306 166 OFFCURVE",
"299 186 OFFCURVE",
"299 221 CURVE SMOOTH",
"299 242 OFFCURVE",
"306 261 OFFCURVE",
"318 270 CURVE",
"350 280 OFFCURVE",
"390 286 OFFCURVE",
"437 286 CURVE SMOOTH",
"485 286 OFFCURVE",
"544 282 OFFCURVE",
"594 271 CURVE",
"630 423 LINE",
"556 434 OFFCURVE",
"472 442 OFFCURVE",
"362 442 CURVE SMOOTH",
"248 442 OFFCURVE",
"157 432 OFFCURVE",
"83 413 CURVE",
"32 372 OFFCURVE",
"4 315 OFFCURVE",
"4 219 CURVE SMOOTH",
"4 126 OFFCURVE",
"30 71 OFFCURVE",
"80 26 CURVE",
"150 2 OFFCURVE",
"250 -10 OFFCURVE",
"370 -10 CURVE SMOOTH",
"446 -10 OFFCURVE",
"542 -3 OFFCURVE",
"638 25 CURVE"
);
},
{
closed = 1;
nodes = (
"501 534 OFFCURVE",
"496 571 OFFCURVE",
"493 620 CURVE",
"452 598 OFFCURVE",
"394 580 OFFCURVE",
"331 580 CURVE SMOOTH",
"270 580 OFFCURVE",
"215 589 OFFCURVE",
"177 600 CURVE",
"173 559 OFFCURVE",
"164 528 OFFCURVE",
"154 493 CURVE",
"209 465 OFFCURVE",
"269 457 OFFCURVE",
"331 457 CURVE SMOOTH",
"393 457 OFFCURVE",
"452 465 OFFCURVE",
"508 493 CURVE"
);
}
);
width = 674;
}
);
unicode = 011E;
},
{
glyphname = aogonek;
lastChange = "2016-04-14 15:41:28 +0000";
layers = (
{
layerId = "7A0FC40B-77F8-4D14-AD08-D047673E78CB";
name = Regular;
paths = (
{
closed = 1;
nodes = (
"29 248 OFFCURVE",
"12 211 OFFCURVE",
"12 155 CURVE SMOOTH",
"12 106 OFFCURVE",
"21 50 OFFCURVE",
"51 9 CURVE",
"94 -6 OFFCURVE",
"133 -14 OFFCURVE",
"184 -14 CURVE SMOOTH",
"259 -14 OFFCURVE",
"308 2 OFFCURVE",
"333 14 CURVE",
"332 -1 OFFCURVE",
"332 -10 OFFCURVE",
"332 -10 CURVE",
"419 -3 OFFCURVE",
"510 2 OFFCURVE",
"604 2 CURVE",
"608 34 OFFCURVE",
"614 102 OFFCURVE",
"614 176 CURVE SMOOTH",
"614 274 OFFCURVE",
"603 381 OFFCURVE",
"559 425 CURVE",
"478 468 OFFCURVE",
"374 477 OFFCURVE",
"274 477 CURVE SMOOTH",
"154 477 OFFCURVE",
"73 447 OFFCURVE",
"73 447 CURVE",
"92 411 OFFCURVE",
"108 374 OFFCURVE",
"114 327 CURVE",
"114 327 OFFCURVE",
"166 346 OFFCURVE",
"234 346 CURVE SMOOTH",
"259 346 OFFCURVE",
"294 342 OFFCURVE",
"322 337 CURVE",
"335 324 OFFCURVE",
"342 308 OFFCURVE",
"342 287 CURVE",
"306 302 OFFCURVE",
"258 310 OFFCURVE",
"210 310 CURVE SMOOTH",
"145 310 OFFCURVE",
"101 304 OFFCURVE",
"50 280 CURVE"
);
},
{
closed = 1;
nodes = (
"358 173 OFFCURVE",
"354 149 OFFCURVE",
"346 123 CURVE",
"334 121 OFFCURVE",
"326 118 OFFCURVE",
"310 118 CURVE SMOOTH",
"300 118 OFFCURVE",
"288 120 OFFCURVE",
"280 124 CURVE",
"275 131 OFFCURVE",
"274 142 OFFCURVE",
"274 155 CURVE SMOOTH",
"274 174 OFFCURVE",
"276 187 OFFCURVE",
"282 198 CURVE",
"292 202 OFFCURVE",
"306 203 OFFCURVE",
"316 203 CURVE SMOOTH",
"332 203 OFFCURVE",
"343 202 OFFCURVE",
"359 198 CURVE"
);
},
{
closed = 1;
nodes = (
"468 -79 OFFCURVE",
"469 -68 OFFCURVE",
"475 -58 CURVE",
"511 -26 OFFCURVE",
"548 -6 OFFCURVE",
"599 16 CURVE",
"441 16 LINE",
"377 3 OFFCURVE",
"341 -15 OFFCURVE",
"300 -44 CURVE",
"298 -54 OFFCURVE",
"297 -63 OFFCURVE",
"297 -73 CURVE SMOOTH",
"297 -97 OFFCURVE",
"304 -122 OFFCURVE",
"320 -138 CURVE",
"365 -149 OFFCURVE",
"415 -154 OFFCURVE",
"459 -154 CURVE SMOOTH",
"520 -154 OFFCURVE",
"568 -144 OFFCURVE",
"615 -129 CURVE",
"607 -80 LINE",
"573 -96 OFFCURVE",
"550 -100 OFFCURVE",
"518 -100 CURVE SMOOTH",
"502 -100 OFFCURVE",
"485 -98 OFFCURVE",
"468 -93 CURVE"
);
}
);
width = 632;
}
);
unicode = 0105;
},
{
glyphname = sacute;
lastChange = "2016-04-14 15:41:28 +0000";
layers = (
{
layerId = "7A0FC40B-77F8-4D14-AD08-D047673E78CB";
name = Regular;
paths = (
{
closed = 1;
nodes = (
"63 509 OFFCURVE",
"74 474 OFFCURVE",
"76 438 CURVE",
"192 455 OFFCURVE",
"313 462 OFFCURVE",
"426 466 CURVE",
"415 510 OFFCURVE",
"407 549 OFFCURVE",
"403 601 CURVE",
"301 575 OFFCURVE",
"159 557 OFFCURVE",
"48 546 CURVE"
);
},
{
closed = 1;
nodes = (
"18 243 OFFCURVE",
"26 205 OFFCURVE",
"50 179 CURVE",
"107 165 OFFCURVE",
"136 165 OFFCURVE",
"176 159 CURVE",
"182 154 OFFCURVE",
"186 145 OFFCURVE",
"186 134 CURVE",
"158 131 OFFCURVE",
"134 130 OFFCURVE",
"110 130 CURVE SMOOTH",
"81 130 OFFCURVE",
"54 133 OFFCURVE",
"34 138 CURVE",
"32 100 OFFCURVE",
"26 51 OFFCURVE",
"12 12 CURVE",
"70 -2 OFFCURVE",
"125 -10 OFFCURVE",
"194 -10 CURVE SMOOTH",
"278 -10 OFFCURVE",
"362 -5 OFFCURVE",
"431 36 CURVE",
"462 66 OFFCURVE",
"470 112 OFFCURVE",
"470 145 CURVE SMOOTH",
"470 174 OFFCURVE",
"467 211 OFFCURVE",
"439 246 CURVE",
"390 258 OFFCURVE",
"343 264 OFFCURVE",
"292 266 CURVE",
"290 271 OFFCURVE",
"288 276 OFFCURVE",
"288 289 CURVE",
"325 292 OFFCURVE",
"351 294 OFFCURVE",
"382 294 CURVE SMOOTH",
"402 294 OFFCURVE",
"430 291 OFFCURVE",
"447 290 CURVE",
"447 319 OFFCURVE",
"454 370 OFFCURVE",
"469 409 CURVE",
"410 422 OFFCURVE",
"359 430 OFFCURVE",
"300 430 CURVE SMOOTH",
"203 430 OFFCURVE",
"121 418 OFFCURVE",
"43 390 CURVE",
"21 353 OFFCURVE",
"18 312 OFFCURVE",
"18 281 CURVE SMOOTH"
);
}
);
width = 474;
}
);
unicode = 015B;
},
{
glyphname = AEacute;
lastChange = "2016-04-14 15:41:28 +0000";
layers = (
{
layerId = "7A0FC40B-77F8-4D14-AD08-D047673E78CB";
name = Regular;
paths = (
{
closed = 1;
nodes = (
"350 290 LINE",
"366 290 LINE",
"366 167 LINE",
"275 164 LINE"
);
},
{
closed = 1;
nodes = (
"906 128 LINE",
"641 119 LINE",
"633 169 LINE",
"838 177 LINE",
"852 279 LINE",
"780 278 OFFCURVE",
"710 275 OFFCURVE",
"642 274 CURVE",
"642 323 LINE",
"729 323 OFFCURVE",
"808 322 OFFCURVE",
"886 319 CURVE",
"896 458 LINE",
"681 446 OFFCURVE",
"466 443 OFFCURVE",
"203 443 CURVE",
"150 291 OFFCURVE",
"90 157 OFFCURVE",
"4 10 CURVE",
"214 -6 LINE",
"246 48 LINE",
"377 48 LINE",
"374 -10 LINE",
"550 -4 OFFCURVE",
"724 0 OFFCURVE",
"895 1 CURVE"
);
},
{
closed = 1;
nodes = (
"374 528 OFFCURVE",
"385 493 OFFCURVE",
"387 457 CURVE",
"503 474 OFFCURVE",
"624 481 OFFCURVE",
"737 485 CURVE",
"726 529 OFFCURVE",
"718 568 OFFCURVE",
"714 620 CURVE",
"612 594 OFFCURVE",
"470 576 OFFCURVE",
"359 565 CURVE"
);
}
);
width = 918;
}
);
leftKerningGroup = AE;
unicode = 01FC;
},
{
glyphname = ohungarumlaut;
lastChange = "2016-04-14 15:41:28 +0000";
layers = (
{
layerId = "7A0FC40B-77F8-4D14-AD08-D047673E78CB";
name = Regular;
paths = (
{
closed = 1;
nodes = (
"48 505 OFFCURVE",
"59 470 OFFCURVE",
"61 434 CURVE",
"150 451 OFFCURVE",
"243 458 OFFCURVE",
"331 462 CURVE",
"320 503 OFFCURVE",
"311 540 OFFCURVE",
"308 589 CURVE",
"228 567 OFFCURVE",
"119 551 OFFCURVE",
"33 542 CURVE"
);
},
{
closed = 1;
nodes = (
"341 509 OFFCURVE",
"349 474 OFFCURVE",
"351 438 CURVE",
"438 455 OFFCURVE",
"528 462 OFFCURVE",
"612 466 CURVE",
"602 510 OFFCURVE",
"593 549 OFFCURVE",
"590 601 CURVE",
"515 575 OFFCURVE",
"412 557 OFFCURVE",
"331 546 CURVE"
);
},
{
closed = 1;
nodes = (
"443 -10 OFFCURVE",
"533 10 OFFCURVE",
"592 50 CURVE",
"618 101 OFFCURVE",
"633 146 OFFCURVE",
"633 223 CURVE SMOOTH",
"633 293 OFFCURVE",
"622 336 OFFCURVE",
"601 379 CURVE",
"541 414 OFFCURVE",
"447 430 OFFCURVE",
"327 430 CURVE SMOOTH",
"208 430 OFFCURVE",
"117 415 OFFCURVE",
"56 386 CURVE",
"28 343 OFFCURVE",
"12 292 OFFCURVE",
"12 217 CURVE SMOOTH",
"12 126 OFFCURVE",
"34 71 OFFCURVE",
"77 26 CURVE",
"134 2 OFFCURVE",
"217 -10 OFFCURVE",
"318 -10 CURVE SMOOTH"
);
},
{
closed = 1;
nodes = (
"299 287 OFFCURVE",
"310 291 OFFCURVE",
"328 291 CURVE SMOOTH",
"339 291 OFFCURVE",
"348 291 OFFCURVE",
"355 285 CURVE",
"363 272 OFFCURVE",
"367 248 OFFCURVE",
"367 213 CURVE SMOOTH",
"367 172 OFFCURVE",
"364 140 OFFCURVE",
"353 124 CURVE",
"345 117 OFFCURVE",
"334 114 OFFCURVE",
"319 114 CURVE SMOOTH",
"302 114 OFFCURVE",
"292 117 OFFCURVE",
"286 124 CURVE",
"277 138 OFFCURVE",
"277 164 OFFCURVE",
"277 203 CURVE SMOOTH",
"277 230 OFFCURVE",
"280 254 OFFCURVE",
"289 279 CURVE"
);
}
);
width = 645;
}
);
unicode = 0151;
},
{
glyphname = fl;
lastChange = "2016-04-14 15:41:28 +0000";
layers = (
{
layerId = "7A0FC40B-77F8-4D14-AD08-D047673E78CB";
name = Regular;
paths = (
{
closed = 1;
nodes = (
"789 559 OFFCURVE",
"719 559 OFFCURVE",
"663 559 CURVE SMOOTH",
"568 559 OFFCURVE",
"499 570 OFFCURVE",
"430 570 CURVE SMOOTH",
"318 570 OFFCURVE",
"209 553 OFFCURVE",
"120 518 CURVE",
"102 485 OFFCURVE",
"90 431 OFFCURVE",
"83 368 CURVE",
"19 365 LINE",
"26 249 LINE",
"70 247 LINE",
"69 214 OFFCURVE",
"69 179 OFFCURVE",
"69 146 CURVE SMOOTH",
"69 85 OFFCURVE",
"78 14 OFFCURVE",
"83 -10 CURVE",
"170 -3 OFFCURVE",
"262 2 OFFCURVE",
"355 2 CURVE",
"344 79 OFFCURVE",
"346 159 OFFCURVE",
"345 222 CURVE",
"526 214 LINE",
"526 386 LINE",
"337 378 LINE",
"340 388 OFFCURVE",
"344 398 OFFCURVE",
"350 406 CURVE",
"399 416 OFFCURVE",
"462 418 OFFCURVE",
"510 418 CURVE SMOOTH",
"535 418 OFFCURVE",
"557 417 OFFCURVE",
"573 415 CURVE",
"575 269 OFFCURVE",
"575 80 OFFCURVE",
"575 -10 CURVE",
"654 -2 OFFCURVE",
"746 -1 OFFCURVE",
"831 0 CURVE",
"828 78 OFFCURVE",
"826 155 OFFCURVE",
"826 233 CURVE SMOOTH",
"826 345 OFFCURVE",
"830 456 OFFCURVE",
"839 568 CURVE"
);
}
);
width = 859;
}
);
unicode = FB02;
},
